<?xml version="1.0" encoding="utf-8"?>
<!-- Generator: Adobe Illustrator 26.0.3, SVG Export Plug-In . SVG Version: 6.00 Build 0)  -->
<svg version="1.0" id="Layer_1" xmlns="http://www.w3.org/2000/svg" xmlns:xlink="http://www.w3.org/1999/xlink" x="0px" y="0px"
	 viewBox="0 0 641.9 436.5" style="enable-background:new 0 0 641.9 436.5;" xml:space="preserve">
<style type="text/css">
	.st0{fill:#243C96;}
	.st1{clip-path:url(#SVGID_00000049221784432371673740000003141604686253485993_);}
	.st2{clip-path:url(#SVGID_00000114070414848844429320000012626609159615762095_);}
	.st3{clip-path:url(#SVGID_00000103954334466160960470000001852369297519113407_);}
	.st4{clip-path:url(#SVGID_00000024702254143264841020000012153031254587478928_);}
	.st5{clip-path:url(#SVGID_00000050649009522205419440000007988188413307718309_);}
	.st6{fill:url(#SVGID_00000041296042589630071430000001228453129432368317_);}
	.st7{clip-path:url(#SVGID_00000153691764514075784790000016450691015824482740_);}
	.st8{clip-path:url(#SVGID_00000103243453698375082750000002951988653035748489_);}
</style>
<path class="st0" d="M542.5,233.5l2.5-4.5c0.1-0.2,0.3-0.2,0.5-0.1c3.5,2.5,7,3.9,10.3,3.9s5.3-1.4,5.3-3.6c0-5-17.5-2.8-17.5-14.4
	c0-6.2,5.4-9.9,11.9-9.9c4.1,0.1,8.1,1.3,11.5,3.6c0.1,0.1,0.1,0.2,0.1,0.3l-2.7,4.9c-0.1,0.1-0.2,0.2-0.3,0.1c-3.1-1.8-6-3-8.7-3
	c-2.9,0-4.8,1.4-4.8,3.3c0,5.5,17.5,3.3,17.5,14.4c0,6.9-5.5,10.2-12.3,10.2c-4.8,0-9.4-1.6-13.1-4.6
	C542.4,234,542.3,233.8,542.5,233.5"/>
<path class="st0" d="M261.1,233.5l2.5-4.5c0.1-0.2,0.3-0.2,0.5-0.1c3.5,2.5,7,3.9,10.3,3.9c3.3,0,5.3-1.4,5.3-3.6
	c0-5-17.5-2.8-17.5-14.4c0-6.2,5.4-9.9,11.9-9.9c4.1,0.1,8.1,1.3,11.5,3.6c0.1,0.1,0.1,0.2,0.1,0.3l-2.7,4.9
	c-0.1,0.1-0.2,0.2-0.3,0.1c-3.1-1.8-6-3-8.7-3c-2.9,0-4.9,1.4-4.9,3.3c0,5.5,17.5,3.3,17.5,14.4c0,6.9-5.6,10.2-12.3,10.2
	c-4.8,0-9.4-1.6-13.1-4.6C261,234,260.9,233.8,261.1,233.5"/>
<path class="st0" d="M514.3,228.7c-0.1-0.1-0.2-0.1-0.3,0c0,0,0,0,0,0c-2.3,2.4-5.5,3.8-8.8,3.8c-4.7,0-8.5-2.5-9.3-7.6
	c0-0.1,0.1-0.3,0.2-0.3c0,0,0,0,0,0h23.4c0.1,0,0.2-0.1,0.2-0.2c1.1-11.7-5.9-19.6-14.8-19.6c-8.8,0-16.7,6.5-16.7,17.1
	c0,10.1,7.3,16.8,16.7,16.8c5,0.2,9.8-2,13-5.8c0.1-0.1,0.1-0.2,0-0.3c0,0,0,0,0,0L514.3,228.7z M512.2,219.5H496
	c-0.1,0-0.2-0.1-0.2-0.3c0,0,0,0,0,0c0.8-4.9,3.9-8.3,8.4-8.3c4.8,0,7.7,3.6,8.2,8.3C512.4,219.3,512.3,219.4,512.2,219.5
	C512.2,219.4,512.2,219.5,512.2,219.5"/>
<path class="st0" d="M315.2,228.7c-0.1-0.1-0.2-0.1-0.3,0c-2.3,2.4-5.5,3.8-8.8,3.8c-4.7,0-8.4-2.5-9.3-7.6c0-0.1,0.1-0.3,0.2-0.3
	c0,0,0,0,0,0h23.4c0.1,0,0.2-0.1,0.2-0.2c1.1-11.7-5.9-19.6-14.8-19.6c-8.8,0-16.7,6.5-16.7,17.1c0,10.1,7.3,16.8,16.7,16.8
	c5,0.2,9.8-2,13-5.8c0.1-0.1,0.1-0.2,0-0.3c0,0,0,0,0,0L315.2,228.7z M313.1,219.5h-16.2c-0.1,0-0.3-0.1-0.3-0.3c0,0,0,0,0,0
	c0.8-4.9,3.9-8.3,8.4-8.3c4.8,0,7.7,3.6,8.2,8.3C313.3,219.3,313.2,219.4,313.1,219.5C313.1,219.4,313.1,219.4,313.1,219.5"/>
<path class="st0" d="M170.9,216.5c0-12.5,9.2-22.5,22.3-22.5c7.9,0,12.7,2.7,16.7,6.6c0.1,0.1,0.1,0.2,0,0.3c0,0,0,0,0,0l-4.6,5.3
	c-0.1,0.1-0.2,0.1-0.3,0c0,0,0,0,0,0c-3.4-3.1-7.1-5.2-11.9-5.2c-8.3,0-14.3,6.7-14.3,15.4c0,8.5,6,15.4,14.3,15.4
	c5.2,0,8.6-2.1,12.2-5.5c0.1-0.1,0.2-0.1,0.3,0c0,0,0,0,0,0l4.6,4.6c0.1,0.1,0.1,0.2,0,0.3c-4.5,4.6-9.4,7.5-17.4,7.5
	C180.3,238.7,170.9,228.9,170.9,216.5"/>
<path class="st0" d="M242.1,204.8c-9.4,0.2-16.8,8-16.6,17.3c0.2,9.4,8,16.8,17.3,16.6c9.2-0.2,16.6-7.7,16.6-17
	C259.4,212.3,251.6,204.7,242.1,204.8C242.1,204.8,242.1,204.8,242.1,204.8 M242.1,232.3c-5.4,0-9.9-4.7-9.9-10.5
	c0-5.8,4.4-10.5,9.9-10.5s9.9,4.7,9.9,10.5C252,227.5,247.6,232.2,242.1,232.3"/>
<path class="st0" d="M377.8,205.4c-0.1,0-0.2,0.1-0.2,0.2v32.1c0,0.1,0.1,0.2,0.2,0.2h7c0.1,0,0.2-0.1,0.2-0.2v-12.2
	c0-8.6,3.9-12.9,10.5-12.9c0.5,0,0.5-0.3,0.5-0.5l1-7c0-0.1,0-0.2-0.2-0.3c0,0-0.1,0-0.1,0c-6.5,0-9.3,2.7-11.3,6.9
	c-0.1,0.1-0.2,0.2-0.3,0.1c-0.1,0-0.1-0.1-0.1-0.2v-6c0-0.1-0.1-0.2-0.2-0.2L377.8,205.4"/>
<path class="st0" d="M213.5,196.4l7-2.4c0.1,0,0.3,0,0.3,0.1c0,0,0,0.1,0,0.1v43.5c0,0.1-0.1,0.2-0.2,0.2h-7c-0.1,0-0.2-0.1-0.2-0.2
	v-41.1C213.3,196.6,213.4,196.5,213.5,196.4"/>
<path class="st0" d="M373.5,226c0,8.2-6.4,12-16,12H338c-0.1,0-0.2-0.1-0.2-0.2V195c0-0.1,0.1-0.2,0.2-0.3c0,0,0,0,0,0h18.9
	c6,0,14.2,2.4,14.2,11.1c0.2,4-2.1,7.8-5.7,9.6c-0.1,0.1-0.2,0.2-0.1,0.3c0,0.1,0.1,0.1,0.1,0.1C370.1,217.2,373.5,220.3,373.5,226
	 M363.3,207.1c0-3.5-2.7-5.6-7.6-5.6h-10c-0.1,0-0.2,0.1-0.2,0.2v11c0,0.1,0.1,0.2,0.2,0.2h9.5C360,212.9,363.3,211,363.3,207.1
	 M365.6,225.3c0-3.8-2.9-5.9-8.9-5.9h-11c-0.1,0-0.2,0.1-0.2,0.2V231c0,0.1,0.1,0.2,0.2,0.2h11.5
	C362.4,231.2,365.5,229.2,365.6,225.3"/>
<path class="st0" d="M436.2,229.1V212c0-0.1-0.1-0.2-0.2-0.2c0,0,0,0,0,0h-3.6c-0.1,0-0.2-0.1-0.2-0.2v-5.9c0-0.1,0.1-0.2,0.2-0.2
	h3.7c0.1,0,0.2-0.1,0.2-0.2v-8.5c0-0.1,0.1-0.2,0.2-0.2l7-2.4c0.1,0,0.3,0,0.3,0.2c0,0,0,0,0,0.1v10.9c0,0.1,0.1,0.2,0.2,0.2
	c0,0,0,0,0,0h8c0.1,0,0.2,0.1,0.2,0.2v5.9c0,0.1-0.1,0.2-0.2,0.2h-8c-0.1,0-0.2,0.1-0.2,0.2c0,0,0,0,0,0V228c0,2.9,1.5,4.1,4,4.1
	c1.4,0,2.9-0.4,4.1-1c0.1-0.1,0.3,0,0.3,0.1c0,0,0,0.1,0,0.1v5.6c0,0.1-0.1,0.2-0.1,0.2c-2,1.1-4.2,1.7-6.5,1.7
	C440.1,238.7,436.3,236.3,436.2,229.1"/>
<path class="st0" d="M456,196.4l7-2.4c0.1,0,0.3,0,0.3,0.2c0,0,0,0,0,0.1v15.6c0,0.1,0.1,0.2,0.3,0.2c0.1,0,0.1,0,0.2-0.1
	c2.2-3.3,5.8-5.2,9.8-5.1c7.3,0,11.6,4.9,11.6,12.5v20.4c0,0.1-0.1,0.2-0.2,0.2h-7c-0.1,0-0.2-0.1-0.2-0.2v-18.2c0-5.1-2.5-8-7-8
	s-7.4,3-7.4,8.1v18c0,0.1-0.1,0.2-0.2,0.2h-7c-0.1,0-0.2-0.1-0.2-0.2v-41C455.8,196.5,455.9,196.5,456,196.4"/>
<path class="st0" d="M523.5,205.4c-0.1,0-0.2,0.1-0.2,0.2c0,0,0,0,0,0v32.1c0,0.1,0.1,0.2,0.2,0.2h7c0.1,0,0.2-0.1,0.2-0.2v-12.2
	c0-8.6,3.9-12.9,10.5-12.9c0.4,0,0.5-0.3,0.5-0.5l1-7c0-0.1,0-0.2-0.1-0.3c0,0-0.1,0-0.1,0c-6.5,0-9.3,2.7-11.3,6.9
	c-0.1,0.1-0.2,0.2-0.3,0.1c-0.1,0-0.1-0.1-0.1-0.2v-6c0-0.1-0.1-0.2-0.2-0.2c0,0,0,0,0,0L523.5,205.4"/>
<path class="st0" d="M413.3,204.8c-9.4,0.2-16.8,8-16.6,17.3c0.2,9.4,8,16.8,17.3,16.6c9.2-0.2,16.6-7.7,16.6-17
	C430.5,212.3,422.7,204.7,413.3,204.8C413.3,204.8,413.3,204.8,413.3,204.8 M413.3,232.3c-5.5,0-9.9-4.7-9.9-10.5
	c0-5.8,4.4-10.5,9.9-10.5s9.9,4.7,9.9,10.5C423.1,227.6,418.7,232.3,413.3,232.3"/>
<g>
	<defs>
		<path id="SVGID_1_" d="M85.8,240.1L85.8,240.1l-0.2-0.3l-0.5-0.7c-0.4-0.5-0.7-0.9-1-1.4s-0.6-1-1-1.4c-1.2-1.9-2.3-4-3.1-6.1
			c-1.7-4.3-2.6-8.9-2.6-13.5l0,0c0-7.9,2.5-15.6,7.3-22c1.2-1.5,2.4-3,3.8-4.3l1-1l1.1-0.9c0.1-0.1,0.2-0.2,0.3-0.2L91,188l0.6-0.4
			l0.6-0.4l0.6-0.4c0.8-0.6,1.6-1.1,2.4-1.6c0.4-0.2,0.8-0.5,1.2-0.7c0.2-0.1,0.4-0.2,0.6-0.3l0.6-0.3l0.6-0.3l0.7-0.3
			c0.4-0.2,0.9-0.4,1.3-0.6l1.3-0.5l1.3-0.5c1.8-0.6,3.7-1,5.5-1.3c1.9-0.3,3.8-0.4,5.7-0.4l0,0c3.4,0,6.8,0.5,10.1,1.4
			c3.8,1.1,7.4,2.8,10.6,5c1.6,1.1,3.1,2.3,4.6,3.7c1.4,1.3,2.8,2.8,3.9,4.4c1.2,1.6,2.3,3.2,3.2,4.9c0.9,1.7,1.7,3.6,2.4,5.4
			c0.1,0.2,0.2,0.5,0.2,0.7s0.2,0.5,0.2,0.7c0.1,0.5,0.3,0.9,0.4,1.4c0.2,1,0.5,1.9,0.6,2.9c0.3,1.9,0.5,3.9,0.5,5.9
			c0,0.2,0,0.4,0,0.5l0,0c0,6.9-1.9,13.7-5.6,19.5c-0.6,1-1.3,1.9-2,2.8l-0.9,1.1l-0.1,0.1L132.2,230l0,0l0.6-0.8l0.5-0.8
			c0.7-1.1,1.2-2.2,1.7-3.4c0.5-1.2,0.8-2.4,1.1-3.6c0.3-1.2,0.4-2.5,0.5-3.7c0-0.3,0-0.6,0-0.9l0,0c0-2.9-0.6-5.8-1.7-8.6
			c-3.5-8.3-11.6-13.8-20.6-13.8l0,0c-12.3,0-22.3,10-22.3,22.3l0,0c0,0.2,0,0.5,0,0.7c0.1,2.5,0.6,5,1.5,7.4c0.5,1.2,1,2.3,1.7,3.4
			c0.3,0.5,0.7,1.1,1,1.6l0.1,0.2L85.8,240.1L85.8,240.1 M74,216.7c0,10.5,4.1,20.5,11.4,28c0.2,0.2,0.5,0.2,0.7,0c0,0,0,0,0,0
			l14.3-14.3c0.2-0.2,0.2-0.5,0-0.7c-7.2-7.6-7-19.6,0.6-26.9s19.6-7,26.9,0.6c7,7.3,7,18.9,0,26.2c-0.2,0.2-0.2,0.5,0,0.7
			l14.3,14.3c0.2,0.2,0.5,0.2,0.7,0c0,0,0,0,0,0c15.5-15.9,15.2-41.3-0.7-56.8s-41.3-15.2-56.8,0.7C78.1,196.1,74,206.2,74,216.7"/>
	</defs>
	<clipPath id="SVGID_00000099642077524832558650000014845206813296581549_">
		<use xlink:href="#SVGID_1_"  style="overflow:visible;"/>
	</clipPath>
	<g style="clip-path:url(#SVGID_00000099642077524832558650000014845206813296581549_);">
		<g>
			<defs>
				<rect id="SVGID_00000006687688925093475040000015389970301556697476_" x="74" y="176.6" width="80.3" height="68.4"/>
			</defs>
			<clipPath id="SVGID_00000038403328970938000950000012882921168521440943_">
				<use xlink:href="#SVGID_00000006687688925093475040000015389970301556697476_"  style="overflow:visible;"/>
			</clipPath>
			<g style="clip-path:url(#SVGID_00000038403328970938000950000012882921168521440943_);">
				
					<image style="overflow:visible;enable-background:new    ;" width="168" height="143" xlink:href="C11C5232.png"  transform="matrix(0.48 0 0 0.48 73.88 176.48)">
				</image>
			</g>
		</g>
	</g>
</g>
<g>
	<defs>
		<path id="SVGID_00000055665888005269451280000003741153704669222827_" d="M102.3,252c-1.9-0.6-3.8-1.4-5.6-2.4
			c-0.4-0.2-0.9-0.5-1.3-0.7c-0.4-0.2-0.9-0.5-1.3-0.8l-0.3-0.2l-0.2-0.1l0,0l-0.1-0.1l-0.1-0.1l20.8-20.9l20.8,20.8l0,0l-0.1,0.1
			h-0.1l0,0l-0.1,0.1l-1.3,0.8l-1.3,0.8c-5.5,3-11.6,4.5-17.8,4.5l0,0C110.2,253.8,106.2,253.2,102.3,252 M113.9,222.8l-24.7,24.7
			c-0.2,0.2-0.2,0.5,0,0.7c0,0,0,0,0,0c14.6,11.5,35.2,11.5,49.8,0c0.2-0.2,0.2-0.5,0-0.7c0,0,0,0,0,0l-24.6-24.6
			c-0.2-0.2-0.5-0.2-0.7,0c0,0,0,0,0,0"/>
	</defs>
	<clipPath id="SVGID_00000108988819340795337360000010673734822173874575_">
		<use xlink:href="#SVGID_00000055665888005269451280000003741153704669222827_"  style="overflow:visible;"/>
	</clipPath>
	<g style="clip-path:url(#SVGID_00000108988819340795337360000010673734822173874575_);">
		<g>
			<defs>
				<rect id="SVGID_00000147209658928560712660000011137513745252228770_" x="89" y="222.8" width="50.3" height="37"/>
			</defs>
			<clipPath id="SVGID_00000069358007229736432660000004668787790526624921_">
				<use xlink:href="#SVGID_00000147209658928560712660000011137513745252228770_"  style="overflow:visible;"/>
			</clipPath>
			<g style="clip-path:url(#SVGID_00000069358007229736432660000004668787790526624921_);">
				
					<image style="overflow:visible;enable-background:new    ;" width="106" height="78" xlink:href="C11C5236.png"  transform="matrix(0.48 0 0 0.48 88.76 222.56)">
				</image>
			</g>
		</g>
	</g>
</g>
<g>
	<defs>
		<path id="SVGID_00000050642364035885361670000007566265472570697858_" d="M113.8,226.3l-21,21c-0.2,0.2-0.2,0.5,0,0.7
			c0,0,0.1,0,0.1,0.1c6.3,4.2,13.6,6.5,21.2,6.5l0,0c7.6,0,15-2.3,21.2-6.5c0.2-0.1,0.3-0.4,0.1-0.7c0,0,0-0.1-0.1-0.1l-20.9-21
			c-0.1-0.1-0.2-0.1-0.3-0.1C114,226.1,113.9,226.2,113.8,226.3"/>
	</defs>
	<clipPath id="SVGID_00000012432310335577495000000017835064181352026290_">
		<use xlink:href="#SVGID_00000050642364035885361670000007566265472570697858_"  style="overflow:visible;"/>
	</clipPath>
	<g style="clip-path:url(#SVGID_00000012432310335577495000000017835064181352026290_);">
		
			<linearGradient id="SVGID_00000127028510614867444890000017249397572662093474_" gradientUnits="userSpaceOnUse" x1="-21.5271" y1="-191.9209" x2="-18.8171" y2="-191.9209" gradientTransform="matrix(15.84 0 0 15.84 433.5504 3280.3269)">
			<stop  offset="0" style="stop-color:#AAACB1"/>
			<stop  offset="0.5" style="stop-color:#AAACB1"/>
			<stop  offset="1" style="stop-color:#85898E"/>
		</linearGradient>
		
			<rect x="92.7" y="226.1" style="fill:url(#SVGID_00000127028510614867444890000017249397572662093474_);" width="43" height="28.3"/>
	</g>
</g>
<g>
	<defs>
		<path id="SVGID_00000060022101513315031280000016415221801576673445_" d="M108.1,179.4c-5.8,0.9-11.3,3.2-16.1,6.6
			c-16.9,12.2-20.7,35.8-8.5,52.7c0.6,0.9,1.3,1.7,2,2.5c0.1,0.2,0.4,0.2,0.5,0c0,0,0,0,0,0l11.1-11.1c0.1-0.1,0.1-0.4,0-0.5
			c-5.1-6.6-5.9-15.6-1.9-23c1-1.8,2.1-3.4,3.5-4.9l0.2-0.2l0,0c8.3-8.4,21.8-8.5,30.2-0.2c7.7,7.6,8.5,19.8,1.8,28.3
			c-0.1,0.1-0.1,0.4,0,0.5l11.1,11.1c0.1,0.2,0.4,0.2,0.5,0c0,0,0,0,0,0c13.6-15.8,11.8-39.6-4-53.2c-6.9-5.9-15.6-9.2-24.7-9.2
			C112.1,179,110.1,179.1,108.1,179.4"/>
	</defs>
	<clipPath id="SVGID_00000020387987210347181550000018149893788355395491_">
		<use xlink:href="#SVGID_00000060022101513315031280000016415221801576673445_"  style="overflow:visible;"/>
	</clipPath>
	<g style="clip-path:url(#SVGID_00000020387987210347181550000018149893788355395491_);">
		<g>
			<defs>
				<rect id="SVGID_00000021104909491595604280000010727307037536170140_" x="76.4" y="179" width="75.5" height="62.6"/>
			</defs>
			<clipPath id="SVGID_00000155855646316465680470000002153856433796283270_">
				<use xlink:href="#SVGID_00000021104909491595604280000010727307037536170140_"  style="overflow:visible;"/>
			</clipPath>
			<g style="clip-path:url(#SVGID_00000155855646316465680470000002153856433796283270_);">
				
					<image style="overflow:visible;enable-background:new    ;" width="158" height="131" xlink:href="C11C5236.png"  transform="matrix(0.48 0 0 0.48 76.28 178.88)">
				</image>
			</g>
		</g>
	</g>
</g>
</svg>
