<?xml version="1.0" encoding="utf-8"?>
<!-- Generator: Adobe Illustrator 25.0.0, SVG Export Plug-In . SVG Version: 6.00 Build 0)  -->
<svg version="1.1" id="katman_1" xmlns="http://www.w3.org/2000/svg" xmlns:xlink="http://www.w3.org/1999/xlink" x="0px" y="0px"
	 viewBox="0 0 560 400" style="enable-background:new 0 0 560 400;" xml:space="preserve">
<style type="text/css">
	.st0{fill-rule:evenodd;clip-rule:evenodd;fill:#231F20;}
	.st1{fill-rule:evenodd;clip-rule:evenodd;fill:#FFFFFF;}
	.st2{fill-rule:evenodd;clip-rule:evenodd;fill:#EF3E42;}
</style>
<path class="st0" d="M425,103.8c-0.2,9.3-3.4,18.3-9.1,25.6c1.7,6.4,2.6,13,2.6,19.6c0,20.4-9.6,31.3-12,34.9
	c1.9,12.5-0.1,25.4-5.7,36.7c-6.4,12.6-15.1,21.3-28.8,28.2c0,0-10.4,25.9-23.9,44.4c-29,39.7-62.4,58.8-68.2,60.7
	c-6.3-2-38.8-20.8-67.9-60.7c-13.5-18.6-23.9-44.4-23.9-44.4c-13.7-6.9-22.4-15.6-28.8-28.2c-5.6-11.4-7.6-24.2-5.7-36.7
	c-2.4-3.7-12-14.5-12-34.9c0-6.6,0.9-13.2,2.6-19.6c-5.7-7.3-8.9-16.3-9.1-25.6c-0.4-9.7,1.7-19.3,6.2-27.9c0.7-1.3,1.5-2.5,2.3-3.6
	c0.9,3.5,2.2,6.8,3.9,9.9c1.9,3.4,4.4,6.5,7.3,9.1c3.8,3.5,8.2,6.1,13.1,7.7l0-42.6c19.5-4.3,59-10.4,112.2-10.4
	c53.1,0,92.2,6.1,112.4,10.4l0,42.6c4.8-1.6,9.3-4.2,13.1-7.7c2.9-2.6,5.4-5.6,7.3-9.1c1.7-3.1,3-6.5,3.9-9.9
	c0.8,1.2,1.6,2.4,2.3,3.6C423.3,84.6,425.4,94.2,425,103.8"/>
<path class="st1" d="M417.2,82.7c-1.9,4.8-6.1,9.4-10.3,13c-5,4.3-13.6,8.3-18.8,9.1V59.5c-6.6-1.4-44.9-9.5-108.2-9.5
	c-63.3,0-101.5,8.1-108.1,9.5v45.4c-5.2-0.9-13.8-4.8-18.8-9.1c-4.2-3.6-8.4-8.2-10.3-13c-2.5,6.4-3.6,13.3-3.4,20.2
	c0.4,11.6,4.2,18.1,9.6,25.9c0,0-3.8,8.2-3,24.4c0.7,13.7,8.6,24.8,12.3,29.9c-4.1,24.2,7,40.6,13.9,48.5
	c5.6,6.1,12.3,11.1,19.8,14.7c3.6,9.5,12.9,30.4,25.5,46.8c15.3,19.8,37.4,43,62.3,55.9c24.9-13,47.5-36.2,62.8-55.9
	c12.6-16.3,21.9-37.3,25.5-46.8c7.5-3.6,14.2-8.6,19.8-14.7c6.9-7.9,18-24.3,13.9-48.5c3.6-5.1,11.6-16.2,12.3-29.9
	c0.9-16.2-3-24.4-3-24.4c5.3-7.7,9.2-14.3,9.6-25.9C420.8,96,419.7,89.1,417.2,82.7"/>
<g>
	<path class="st0" d="M197.4,64.7c-1.3,0-2.5,0-3.8,0.2c-3,0.4-10.3,1.5-10.3,1.5l0,43c0,0,4.4-0.6,5.9-0.8c1.6-0.2,6.7-0.8,7.9-1.1
		c1.5-0.2,2.9-0.9,4-2c1.5-1.5,2.4-3.6,2.3-5.8l0-26.4c0.1-1.9-0.2-3.8-0.9-5.6c-0.6-1.2-1.7-2.2-2.9-2.7
		C198.8,64.9,198.1,64.7,197.4,64.7L197.4,64.7z M194.2,69c0.6-0.2,1.2,0,1.6,0.4c0.4,0.4,0.4,1.1,0.4,2.4l0,29.7
		c0.1,0.7-0.1,1.3-0.6,1.8c-0.5,0.4-1.1,0.6-1.7,0.6l-3.5,0.5l0-34.9L194.2,69L194.2,69L194.2,69z"/>
	<path class="st0" d="M208,101.5c-0.7,0.1-1.3,0.4-1.7,0.9c-0.4,0.5-0.7,1.2-0.6,1.9c0,0.7,0.4,1.3,0.9,1.8c0.5,0.5,1.2,0.7,1.8,0.6
		c0.7,0,1.3-0.4,1.7-0.9c0.9-1.1,0.8-2.8-0.3-3.7C209.3,101.7,208.7,101.5,208,101.5L208,101.5z"/>
	<path class="st0" d="M224.2,61.4c-1.3,0.1-5.3,0.3-7.7,2.9c-1.6,1.7-2.3,4.1-2.1,6.4v27.5c-0.1,2.2,0.9,4.4,2.6,5.8
		c0.8,0.6,2.5,2,7.2,1.5c2.7-0.1,5.2-1,7.3-2.7c1.5-1.3,2.3-3.3,2.2-5.3V87.3l-7.1,3l0,7.3c0,2.2-0.8,3.2-2.5,3.4
		c-1.1,0.1-2.6,0-2.6-2.8V68.4l0-0.3c0-1.3,1-2.4,2.4-2.5c0.2,0,0.3-0.1,0.5-0.1c1.2,0,2.2,1,2.2,2.2l0,0.3l0,8.5l7.1-3l0-4.2
		c0.2-1.8-0.2-3.6-1-5.2C230.9,61.8,227.1,61.1,224.2,61.4L224.2,61.4L224.2,61.4z"/>
	<path class="st0" d="M238.4,98.9c-0.7,0.1-1.3,0.4-1.7,0.9c-0.5,0.5-0.7,1.2-0.6,1.9c0,0.7,0.4,1.3,0.9,1.8c0.4,0.4,1,0.7,1.7,0.7
		c0.7,0,1.4-0.3,1.9-0.9c0.9-1.1,0.8-2.8-0.3-3.7C239.7,99.1,239.1,98.9,238.4,98.9L238.4,98.9z"/>
	<path class="st0" d="M265.5,59.6l-7.3,0.2v36.4c0,2.6-1.5,3-2.9,3c-1.8,0-2.8-0.8-2.8-2.7V59.9l-7.2,0.3v35.8
		c0,3.7,1.5,4.9,2.2,5.5c1.4,1.2,4.5,2,7.7,1.9c3.8-0.2,5.9-1,7.8-2.3c1.7-1.4,2.6-3.5,2.5-5.6L265.5,59.6L265.5,59.6z"/>
	<path class="st0" d="M279,59.4l-6.7,0v43.2h7.1V72.8l7,13.7v16.1l7,0.1V59.6l-7.2-0.1l0,15.9L279,59.4L279,59.4z"/>
	<path class="st0" d="M301,59.7v43.2l7.2,0.4V60L301,59.7L301,59.7z"/>
	<path class="st0" d="M313,60.2l-2.1,4.3l7.8,0.4v38.8c0,0,7.3,0.5,7.1,0.5V65.4l7.2,0.5l0-4.4c0,0-7.2-0.5-10.2-0.7
		C318.7,60.6,313,60.2,313,60.2L313,60.2L313,60.2z"/>
	<path class="st0" d="M336.4,61.8v43.3c0,0,5.5,0.5,7.5,0.8c2.3,0.2,8.4,0.9,8.4,0.9l0-4.9l-8.8-1l0-15.6l4.7,0.5l2.6-5l-7.3-0.8V67
		l7.6,0.8l0-4.5c0,0-4.9-0.5-7.1-0.7C342.3,62.3,336.4,61.8,336.4,61.8L336.4,61.8z"/>
	<path class="st0" d="M356.5,64v43.4c0,0,4.5,0.6,5.9,0.8c1.5,0.2,6.9,1,8,1c1.3,0.2,2.6-0.2,3.7-0.9c1.4-0.9,2.3-2.7,2.3-5.1
		l0-26.5c0.1-2,0-4.1-0.4-6.1c-0.4-1.5-1.5-2.8-2.9-3.5c-1.3-0.8-3.5-1.2-6.6-1.7C363.6,64.8,356.5,64,356.5,64L356.5,64z
		 M363.7,69.2l3.6,0.5c1.1,0.1,1.4,0.4,1.7,1c0.3,0.8,0.4,1.6,0.3,2.4v29.7c0,0.8-0.1,1.2-0.4,1.5c-0.6,0.3-1.2,0.3-1.8,0.2
		l-3.3-0.5L363.7,69.2L363.7,69.2z"/>
</g>
<g>
	<path class="st0" d="M145.6,95.4c-1.7,10.2,1.8,19.7,7.3,27.7c8.7,12.7,20.9,18.9,26.4,21.8c8.2,4.5,11.2,6.4,14.9,9.1
		c12.8,9.6,9.6,21.5,9.6,21.5c-4.2-9.6-13.8-16.2-27.8-23.2c-19.3-9.6-22-18.6-22-18.6c-2.3,8.8-2.2,18.1,0.3,26.9
		c5.7,19.3,21.9,26.5,34.3,33.4c4.9,2.6,9.5,5.7,13.8,9.2c11.6,10.1,9.4,17.3,9.4,17.3c-4.2-8.3-16.7-13.8-27.6-19.3
		c-14.9-7.5-19.7-14.4-19.7-14.4c-2.2,13,1.8,25,7,33.4c6.9,10.9,17.5,19,29.8,22.9h157.4c12.3-3.9,22.9-12,29.8-22.9
		c5.2-8.4,9.2-20.5,7-33.4c0,0-4.8,6.9-19.7,14.4c-10.9,5.5-23.4,11-27.6,19.3c0,0-2.1-7.2,9.4-17.3c4.3-3.5,8.9-6.6,13.9-9.2
		c12.4-7,28.6-14.1,34.2-33.4c2.5-8.8,2.6-18,0.3-26.9c-2.3-8.8-2.6,8.9-22,18.6c-14,7-23.6,13.6-27.8,23.2c0,0-3.2-11.9,9.6-21.5
		c3.7-2.8,6.7-4.6,14.9-9.1c5.4-3,17.7-9.1,26.4-21.8c5.5-8,9-17.5,7.3-27.7c0,0-1.8,3.8-8.4,7.9c-8,5-16.8,7.5-29.1,10.8
		c-11.6,3.1-31.5,7-43.3,13.6c-5.4,3.1-8.7,7.2-8.8,11.9c-0.3,12.6,11.1,24.5,11.1,40.8c0,10.3-7.9,17.1-21.6,17.1
		c-10.2,0-15.2-2.6-17.7-4.8c-2.7-2.5-4.2-6-4.2-9.7l0-0.6c0-5.1,4.2-9.3,9.3-9.3l0.3,0c3,0,6.9,1.7,7.7,4.9
		c1.2-0.4,6.1-3.9,6.1-11.1c0-4.9-3.2-10.3-12.2-10.3c-2.3,0-4.7,0.3-7,0.9c0.2-5.9-5.3-8.7-11.2-8.7c-6.2,0-10.5,1.9-22.8,0.7
		c-2.8-0.3-5.7-0.9-8.4-1.8c0.9,1.2,1.7,2.5,2.3,3.8c0.9,2.1,1.2,4.4,0.9,6.7c-0.4,4-3.1,6.6-7.1,8.2c1.7,0.8,9.1,3.2,9.1,13.6
		c-0.2,4.8-2.3,9.3-5.9,12.5c-3.5,3.1-8,4.9-12.7,4.8c-11.5,0-16.8-6.8-16.8-17c0-16.3,11.3-28.3,11.1-40.8c-0.1-4.8-3.5-9-8.8-11.9
		c-11.8-6.6-31.7-10.5-43.3-13.6c-12.3-3.3-21.1-5.8-29.1-10.8C147.3,99.2,145.6,95.4,145.6,95.4L145.6,95.4L145.6,95.4z
		 M260.6,152.9c4.2,2.1,12.3,2.1,17.5,1.2c4.2-0.7,9-1.4,11.8,0.8c3.6,2.9,2.6,7.9,2.6,7.9l0.7-0.3c2.9-1.1,5.9-1.6,9-1.5
		c5.3,0,8.7,1.7,9.4,5.7c0.3,2-0.2,4.1-1.3,5.8c-1.1,1.7-1.9-3.7-8.2-3.7c-8.5,0-15,5.6-14.7,15.1c0.2,3.9,1.7,7.7,4.3,10.7
		c-0.1-0.1-0.1,0.4-0.1,0.4c-3.1-1.6-7.9-3.2-10.4-1.8c-3.2,1.7-3,7.3-2.4,10.5l-0.6,0.3c-0.9-2.3-2-7.1-8.6-9.5
		c-2.8-1-7.2-0.8-11.1-0.1c3.9-3.9,6.2-9.2,6.4-14.8c0-8.3-4.2-11.2-6.4-12.8c2.1-1.5,3.6-3.7,4-6.3
		C262.6,157.8,262,155.2,260.6,152.9L260.6,152.9L260.6,152.9z"/>
	<path class="st0" d="M276.9,161c1.2,1.6,2.5,3.1,3.9,4.5c1.9,1.5,5.1,0.1,7.8-1c1.3-0.6,3.8-1.6,3.8-1.6c-0.9-0.6-1.9-1-2.9-1.3
		c-2.3-0.6-4.6-0.8-7-0.6C280,161,276.9,161,276.9,161L276.9,161L276.9,161z"/>
	<path class="st0" d="M254.3,268.1c1,2.2,1.6,4.6,1.6,7c0.1,3.1-0.3,6.3-1.3,9.3h50.6c-1-3-1.4-6.1-1.3-9.3c0.1-2.4,0.6-4.8,1.7-7
		H254.3L254.3,268.1z"/>
	<path class="st0" d="M240.8,309.1c9.3,10.5,28.3,26.7,39,32.3c11.8-6.2,30.4-23.6,40-32.3H240.8L240.8,309.1z"/>
</g>
<path class="st2" d="M332.5,252c11.9-3.8,26-8.7,26-8.7H201.3c0,0,14.5,5.1,26.5,8.7c10.3,3.1,22.7,7.6,26.5,16.1h51.3
	C309.8,259.6,322.3,255.3,332.5,252 M249.2,296.7c-2.5,4.3-5.3,8.4-8.3,12.3h78.8c-1.7-2.4-5.3-7-8.5-12.3c-2.5-3.8-4.5-8-5.9-12.3
	h-50.6C253.2,288.7,251.4,292.8,249.2,296.7 M319.6,222h-8.7l7,5.1l-2.7,8.2l7-5.1l7,5.1l-2.7-8.2l7-5.1h-8.7l-2.7-8.2L319.6,222
	L319.6,222z M276.9,222h-8.7l7,5.1l-2.7,8.2l7-5.1l7,5.1l-2.7-8.2l7-5.1h-8.7l-2.7-8.2L276.9,222L276.9,222z M236.4,213.7l2.7,8.2
	h8.7l-7,5.1l2.7,8.2l-7-5.1l-7,5.1l2.7-8.2l-7-5.1h8.7L236.4,213.7L236.4,213.7z"/>
<g>
	<path class="st0" d="M279.7,111.7c-24.6,0.1-49.1,1.4-73.5,3.9c-24.4,2.5,13.7,3.2,23.9,8.7c6,3.2,10.1,8.3,10.5,13.8
		c0.5,7.9-3.3,16.4-5.5,21.8c-3.7,8.6-5.7,15.6-5.6,20.9c0,2.7,0.7,5.4,2.2,7.7c1.6,2.3,4.1,4.5,9.6,4.5c9.3,0,12.8-8.3,12.8-13.2
		c0.1-3.4-1.6-6.7-4.3-8.8c-2.3-1.9-5-3.3-7.8-4.2c-2.8-0.9,10.7-3.4,10.7-9.7c0-5.1-3.1-10.9-7.1-15.2l0.3-0.3
		c2.7,1.3,5.5,2.2,8.5,2.7c5,0.8,10,1.2,15.1,1.2c8.2,0,11.9-1,18-1c6.3,0,11.9,3,13.3,8.7c2.2-0.3,4.5-0.3,6.7-0.2
		c7.5,0.8,12.7,6.1,12.8,12.9c0.4,8.5-5.3,16.2-13.6,18.3c0.3-0.9,0.4-1.8,0.2-2.7c-0.3-2.1-2.1-3.7-4.2-3.8c-3.5,0-5.3,2.9-5.2,5.8
		c0.3,6.3,7.3,9,14.5,9.4c1.1,0.1,1.8,0.1,2.9,0.1c6.6-0.2,10.7-1.8,13.1-4.8c1.6-2.2,2.4-4.9,2.4-7.7c0-5.3-1.9-12.3-5.6-20.9
		c-2.3-5.3-6.1-13.8-5.5-21.8c0.4-5.5,4.5-10.5,10.5-13.8c10.1-5.5,23.9-8.7,23.9-8.7C331.6,113.4,306.1,111.7,279.7,111.7
		L279.7,111.7L279.7,111.7z"/>
	<path class="st0" d="M359.6,250.1c-9.7,3.7-18.3,6.4-26.5,9c-10.1,3.2-23.7,7.4-24.4,15.6c-0.9,10.3,12.8,25.4,16.3,28.9
		c7.6-8.1,14.4-16.8,20.4-26.1C350.9,268.7,355.6,259.6,359.6,250.1L359.6,250.1L359.6,250.1z"/>
	<path class="st0" d="M200.5,250.1c8.2,19.8,20,38,34.7,53.6c3.9-4,16.1-18.6,16.1-29c0-8-14.2-12.4-24.4-15.5
		C219,256.8,210.2,253.8,200.5,250.1L200.5,250.1L200.5,250.1z"/>
</g>
</svg>
