<?xml version="1.0" encoding="utf-8"?>
<!-- Generator: Adobe Illustrator 25.0.1, SVG Export Plug-In . SVG Version: 6.00 Build 0)  -->
<svg version="1.0" id="Layer_1" xmlns="http://www.w3.org/2000/svg" xmlns:xlink="http://www.w3.org/1999/xlink" x="0px" y="0px"
	 viewBox="0 0 954 638.8" style="enable-background:new 0 0 954 638.8;" xml:space="preserve">
<style type="text/css">
	.st0{clip-path:url(#SVGID_2_);}
	.st1{fill-rule:evenodd;clip-rule:evenodd;}
</style>
<g>
	<defs>
		<rect id="SVGID_1_" x="105" y="194.5" width="744" height="250.5"/>
	</defs>
	<clipPath id="SVGID_2_">
		<use xlink:href="#SVGID_1_"  style="overflow:visible;"/>
	</clipPath>
	<g class="st0">
		<path class="st1" d="M625.9,201.9c-6.6,0-11.9,5.3-11.9,11.9c0,0,0,0,0,0V425c0,6.6,5.3,11.9,11.9,11.9c0,0,0,0,0,0h211.2
			c6.6,0,11.9-5.3,11.9-11.9c0,0,0,0,0,0V213.8c0-6.6-5.3-11.9-11.9-11.9l0,0H625.9z M233.3,206.4c1.6-2.8,5.3-3.8,8.1-2.2
			c0.9,0.5,1.7,1.3,2.2,2.2l127.5,220.9c1.6,2.9,0.6,6.5-2.3,8.2c-0.9,0.5-1.9,0.8-2.9,0.8H111c-2.2,0.1-4.2-1.1-5.2-3
			c-1.1-1.8-1.1-4.1,0-6L233.3,206.4z M597.7,319.4c0,69-55.9,124.9-124.9,125s-124.9-55.9-125-124.9c0-69,55.9-124.9,124.9-125
			c0,0,0,0,0,0C541.7,194.5,597.7,250.4,597.7,319.4C597.7,319.4,597.7,319.4,597.7,319.4L597.7,319.4z"/>
	</g>
</g>
</svg>
