<?xml version="1.0" encoding="utf-8"?>
<!-- Generator: Adobe Illustrator 25.0.1, SVG Export Plug-In . SVG Version: 6.00 Build 0)  -->
<svg version="1.1" id="katman_1" xmlns="http://www.w3.org/2000/svg" xmlns:xlink="http://www.w3.org/1999/xlink" x="0px" y="0px"
	 viewBox="0 0 560 400" style="enable-background:new 0 0 560 400;" xml:space="preserve">
<style type="text/css">
	.st0{fill:#234781;}
	.st1{fill:#D92628;}
</style>
<g transform="matrix(7.13286 0 0 7.13286 -3065.82 -4297.92)">
	<path class="st0" d="M468.5,637.9c0,0.5-0.2,0.9-0.7,0.9c-0.6,0-0.7-0.4-0.7-0.9v-5.2c0-0.6,0-1.2,0.7-1.2c0.7,0,0.7,0.7,0.7,1.2
		V637.9z M467.8,629.6c-2.3,0-3.9,0.8-3.9,3.6v4.3c0,2.4,1.8,3.3,3.9,3.3c2.3,0,3.8-0.8,3.9-3.3v-4.3
		C471.7,630.7,470.4,629.6,467.8,629.6"/>
	<path class="st0" d="M472.1,629.7v2h1.1v6.9c0,1.7,1,2.1,2.6,2.1c0.7,0,1.1,0,2-0.1v-1.9c-0.3,0-0.4,0-0.8,0
		c-0.4,0-0.7-0.2-0.7-0.8v-6.2h1.5v-2"/>
	<path class="st0" d="M497.1,629.6c-1.2,0-1.9,0.6-2.2,1.5h0c-0.2-0.9-0.9-1.5-2.1-1.5c-1.1,0-1.9,0.6-2.3,1.6h0v-1.5h-3v10.9h3
		v-7.7c0-0.5,0.2-0.9,0.8-0.9c0.6,0,0.7,0.4,0.7,0.9v7.7h3v-7.7c0-0.5,0.2-0.9,0.7-0.9c0.6,0,0.7,0.4,0.7,0.9v7.7h3v-9
		C499.2,630.3,498.3,629.6,497.1,629.6"/>
	<path class="st0" d="M483,633.7h-1.5v-0.7c0-0.7-0.1-1.4,0.7-1.4c0.8,0,0.7,0.7,0.7,1.1V633.7z M482.2,629.6
		c-2.2,0-3.9,0.8-3.9,3.5v4.6c0,2.4,1.9,3.1,3.9,3.1c2.6,0,3.9-0.9,3.9-2.8v-1.6H483v1.2c0,0.6-0.1,1.3-0.7,1.3
		c-0.6,0-0.7-0.7-0.7-1.3v-2h4.6v-2.9C486.1,630.3,484.3,629.5,482.2,629.6"/>
	<path class="st0" d="M458.5,633H458v-3.3c0,0,0.3,0,0.4,0c1,0,1.3,0.5,1.3,1.7C459.7,632.2,459.4,633,458.5,633 M462.9,630.9
		c0-2.5-1.7-3.1-3.8-3.1h-4.2v12.8h3.2v-5.8h0.6c0.7,0.1,1,0.5,1.1,1.4c0,0.1,0,0.3,0,0.5h0v4h3.1v-4c0-0.4,0-0.8,0-1.1
		c-0.1-0.9-0.7-1.7-2.4-1.8v0C462.3,633.4,462.9,632.3,462.9,630.9"/>
	<path class="st1" d="M479.5,623l-6.3,3.1v3.1l6.3-3.1"/>
	<path class="st1" d="M479.5,623l-6.3,3.1v3.1l6.3-3.1"/>
	<g>
		<path class="st0" d="M442.3,622.4H440v-1.9h-1.1v5h1.1v-2.1h2.3v2.1h1.1v-5h-1.1"/>
		<path class="st0" d="M467,621.4h2v1.4h-2.3v-1.2c0-0.1,0-0.2,0-0.2C466.8,621.4,466.9,621.4,467,621.4 M465.9,620.7
			c-0.2,0.2-0.2,0.6-0.2,0.8v3.9h1.1v-1.6h2.3v1.6h1.1v-5h-3.4C466.4,620.4,466.1,620.5,465.9,620.7"/>
		<path class="st0" d="M458.2,620.4h-3.4v5h1.1v-4h2c0.1,0,0.2,0,0.2,0.1c0,0.1,0,0.2,0,0.2v3.7h1.1v-3.9c0-0.2,0-0.5-0.2-0.8
			C458.9,620.5,458.6,620.4,458.2,620.4"/>
		<path class="st0" d="M452.8,624.1c0,0.1,0,0.2,0,0.2c-0.1,0.1-0.1,0.1-0.2,0.1h-2v-4h-1.1v5h3.4c0.3,0,0.6-0.1,0.8-0.3
			c0.2-0.2,0.2-0.6,0.2-0.8v-3.9h-1.1"/>
		<path class="st0" d="M463.7,624.1c0,0.1,0,0.2,0,0.2c0,0.1-0.1,0.1-0.2,0.1h-2v-3h2c0.1,0,0.2,0,0.2,0.1c0,0.1,0,0.2,0,0.2V624.1z
			 M464.8,621.5c0-0.2,0-0.5-0.2-0.8c-0.2-0.2-0.5-0.3-0.8-0.3h-3.4v5h3.4c0.3,0,0.6,0,0.8-0.3c0.2-0.2,0.2-0.6,0.2-0.8"/>
		<path class="st0" d="M446.4,622.6l-1.3-2.2h-1.3l2,3.1v1.8h1.2v-1.8l2-3.1h-1.3"/>
		<path class="st0" d="M471.2,620.4h1.2v5h-1.2V620.4z"/>
	</g>
</g>
</svg>
