<?xml version="1.0" encoding="utf-8"?>
<!-- Generator: Adobe Illustrator 26.0.3, SVG Export Plug-In . SVG Version: 6.00 Build 0)  -->
<svg version="1.0" id="katman_1" xmlns="http://www.w3.org/2000/svg" xmlns:xlink="http://www.w3.org/1999/xlink" x="0px" y="0px"
	 viewBox="0 0 600 450" style="enable-background:new 0 0 600 450;" xml:space="preserve">
<style type="text/css">
	
		.st0{clip-path:url(#SVGID_00000028304934979423303370000018101893501617564836_);fill-rule:evenodd;clip-rule:evenodd;fill:#101721;}
	
		.st1{clip-path:url(#SVGID_00000028304934979423303370000018101893501617564836_);fill-rule:evenodd;clip-rule:evenodd;fill:#DE1F26;}
	.st2{fill-rule:evenodd;clip-rule:evenodd;fill:#DE1F26;}
</style>
<g>
	<g>
		<defs>
			<rect id="SVGID_1_" x="87" y="190.4" width="425" height="70.3"/>
		</defs>
		<clipPath id="SVGID_00000079482429360161372550000004149010245527092620_">
			<use xlink:href="#SVGID_1_"  style="overflow:visible;"/>
		</clipPath>
		
			<path style="clip-path:url(#SVGID_00000079482429360161372550000004149010245527092620_);fill-rule:evenodd;clip-rule:evenodd;fill:#101721;" d="
			M194.4,220.5c0,5.7-5.2,6.9-9.6,6.9h-8.3c-0.1,0-0.2-0.1-0.2-0.2v-13.3c0-0.1,0.1-0.2,0.2-0.2h8.3c3.6,0,9.6,0.8,9.6,6.4V220.5z
			 M185.2,207.5h-13.9c-0.7,0-1.4,0.7-1.4,1.5v30.7c0,0.8,0.6,1.5,1.4,1.5h3.7c0.8,0,1.4-0.6,1.4-1.5v-5.9c0-0.1,0.1-0.2,0.2-0.2
			h8.6c10,0,15.8-4.7,15.8-13v-0.3C201,212,195.4,207.5,185.2,207.5L185.2,207.5z M510.5,208.9v30.7c0,0.8-0.6,1.5-1.4,1.5h-4.5
			c-0.4,0-0.8-0.2-1-0.5l-19.2-22.9c0,0-0.1-0.1-0.1-0.1c0,0,0,0.1,0,0.1v21.9c0,0.8-0.6,1.5-1.4,1.5h-3.7c-0.8,0-1.3-0.6-1.3-1.5
			v-30.7c0-0.8,0.6-1.5,1.3-1.5h4.5c0.4,0,0.8,0.2,0.9,0.5l19.2,22.9c0,0,0.1,0.1,0.1,0.1v-22c0-0.8,0.6-1.5,1.4-1.5h3.7
			C509.8,207.5,510.5,208.1,510.5,208.9L510.5,208.9z M426.8,223.3c0-6.8,4.1-10.2,12.4-10.2c8.4,0,12.6,3.4,12.6,10.2v2
			c0,8.5-6.8,10.3-12.6,10.3c-5.6,0-12.4-1.8-12.4-10.3V223.3z M439.2,206.6c-12.4,0-19,5.8-19,16.7v1.9c0,10.9,6.6,16.7,19,16.7
			c12.6,0,19.2-5.8,19.2-16.7v-1.9C458.4,212.4,451.8,206.6,439.2,206.6L439.2,206.6z M399.8,208.9v30.7c0,0.8-0.6,1.5-1.3,1.5h-3.9
			c-0.8,0-1.4-0.6-1.4-1.5v-30.7c0-0.8,0.6-1.5,1.4-1.5h3.9C399.2,207.5,399.8,208.1,399.8,208.9L399.8,208.9z M374.1,236.1v3.5
			c0,0.8-0.6,1.4-1.4,1.5H348c-0.8,0-1.4-0.6-1.4-1.5v-30.7c0-0.8,0.6-1.5,1.4-1.5h3.9c0.7,0,1.4,0.7,1.4,1.5v25.5
			c0,0.1,0.1,0.2,0.2,0.2h19.2C373.5,234.6,374.1,235.3,374.1,236.1L374.1,236.1z M324.2,208.9v30.7c0,0.8-0.6,1.5-1.3,1.5h-3.9
			c-0.8,0-1.3-0.6-1.3-1.5v-30.7c0-0.8,0.6-1.5,1.3-1.5h3.9C323.6,207.5,324.2,208.1,324.2,208.9L324.2,208.9z M299.3,208.2
			c0.3,0.5,0.3,1.1,0,1.6v0l-14.7,30.5c-0.2,0.5-0.7,0.8-1.1,0.8h-5.2c-0.5,0-1-0.3-1.2-0.8l-14.7-30.4c-0.3-0.6-0.3-1.2,0.1-1.7
			c0.3-0.4,0.8-0.7,1.3-0.7h4.2c0.5,0,0.9,0.3,1.2,0.8l11.7,24.9c0,0.1,0.1,0.1,0.1,0.1c0,0,0-0.1,0-0.1l11.6-24.9
			c0.2-0.5,0.7-0.8,1.2-0.8h4.2C298.5,207.5,299,207.7,299.3,208.2L299.3,208.2z M238.5,229.7c0,0,0,0-0.1,0h-13.5
			c-0.1,0-0.1,0-0.2,0c0,0,0-0.1,0-0.1l6.8-15.3c0-0.1,0-0.1,0.1-0.1c0,0,0,0.1,0.1,0.1l6.9,15.3
			C238.5,229.6,238.5,229.7,238.5,229.7L238.5,229.7z M235.8,208.2c-0.2-0.5-0.6-0.8-1.1-0.8h-6.2c-0.5,0-1,0.3-1.2,0.8l-13.7,30.7
			c-0.2,0.5-0.2,1.1,0.1,1.6c0.3,0.4,0.7,0.7,1.3,0.7h4.2c0.5,0,0.9-0.3,1.2-0.9l2.1-4.7c0-0.1,0.1-0.2,0.3-0.2h17.7
			c0.2,0,0.3,0.1,0.3,0.2l2.1,4.7c0.3,0.5,0.7,0.9,1.2,0.9h4.2c0.5,0,1-0.2,1.3-0.7c0.3-0.5,0.3-1.1,0.1-1.6L235.8,208.2z
			 M235.8,208.2"/>
		
			<path style="clip-path:url(#SVGID_00000079482429360161372550000004149010245527092620_);fill-rule:evenodd;clip-rule:evenodd;fill:#DE1F26;" d="
			M130,213.4l-38.6-22.7c-1.8-1.1-4.3,0.2-4.3,2.4v13.6l27,15.9L130,213.4z M130,213.4"/>
	</g>
	<path class="st2" d="M144.8,222l-11.7-6.8l-27,15.5v18.4l38.8-22.4C146.7,225.8,146.7,223.1,144.8,222"/>
	<g>
		<defs>
			<rect id="SVGID_00000091004596876841761020000015839137518165023885_" x="87" y="207.1" width="425" height="53.5"/>
		</defs>
		<clipPath id="SVGID_00000106866061190123191570000017290674263450452621_">
			<use xlink:href="#SVGID_00000091004596876841761020000015839137518165023885_"  style="overflow:visible;"/>
		</clipPath>
		<g style="clip-path:url(#SVGID_00000106866061190123191570000017290674263450452621_);">
			
				<image style="overflow:visible;" width="530" height="67" xlink:href="ED90DBE6.jpg"  transform="matrix(0.8031 0 0 0.8031 87 207.0945)">
			</image>
		</g>
	</g>
</g>
</svg>
