<?xml version="1.0" encoding="utf-8"?>
<!-- Generator: Adobe Illustrator 24.3.0, SVG Export Plug-In . SVG Version: 6.00 Build 0)  -->
<svg version="1.1" id="katman_1" xmlns="http://www.w3.org/2000/svg" xmlns:xlink="http://www.w3.org/1999/xlink" x="0px" y="0px"
	 viewBox="0 0 560 400" style="enable-background:new 0 0 560 400;" xml:space="preserve">
<style type="text/css">
	.st0{fill:#BF0000;}
</style>
<path class="st0" d="M406.1,241.6H155.7l20,20L406.1,241.6z M446.2,229V189c0-7.5,5.3-13.7,12.7-13.7c7.5,0,12.7,6.2,12.7,13.7V229
	H487V189c0-16.5-11.2-29.7-27.7-29.7c-7.5,0-13.2,4.2-13.2,4.2v-2.7h-15.4v67.8h15.4v0.3H446.2z M395.1,159.1
	c-18,0-30.6,15.7-30.6,35.7c0,20.9,16,35.7,32.2,35.7c8.2,0,18.5-2.7,27.2-15.2l-13.7-8c-10.5,15.4-28.2,7.7-30.2-8h44.4
	C428.2,175.3,412.5,159.1,395.1,159.1z M408.6,186.1h-27.7C384.1,170.3,405.5,169.4,408.6,186.1z M359.4,212.7
	c-1.5,1-3.3,1.8-5.3,1.8c-2.5,0-7.2-2-7.2-8.2v-29.2h13.2v-16.2h-13.2v-17h-15.4v17h-8.2v16.2h8.2v29.2c0,15.2,11.5,24.2,22.9,24.2
	c4.2,0,10.2-1.5,15-4.2L359.4,212.7z M302.5,160.8v39.9c0,7.5-5.3,13.7-12.7,13.7c-7.5,0-12.7-6.2-12.7-13.7v-39.9h-15.4v39.9
	c0,16.5,11.2,29.7,27.7,29.7c7.5,0,13.2-4.2,13.2-4.2v2.5H318v-67.8h-15.5V160.8z M232.7,192.8l26.4-31.9h-21.5l-18.7,23.7v-46.2
	h-15.7V229h15.7v-27.9l22.9,27.9h21.5L232.7,192.8z M179,160.8v3c-4.8-3-8.8-4.8-14.5-4.8c-17.4,0-31,16-31,35.7s13.2,35.7,31,35.7
	c5.7,0,9.9-1.8,14.5-4.8v3h15.4v-67.8L179,160.8z M164.3,214.3c-8.8,0-15-8.5-15-19.2c0-10.8,6.2-19.2,15-19.2
	c8.8,0,14.7,8.5,14.7,19.2C179.2,205.7,173,214.3,164.3,214.3z M89.2,229v-26.4h11.2l19.8,26.2h20.2l-24-31.7
	c7.5-5.3,12.3-13.9,12.3-24c0-16.2-13.2-29.2-29.2-29.2H73v84.8h16.2L89.2,229z M89.2,160.1h10.5c7.2,0,13.2,6,13.2,13.2
	s-6,13.2-13.2,13.2H89.2V160.1z"/>
</svg>
