<?xml version="1.0" encoding="utf-8"?>
<!-- Generator: Adobe Illustrator 25.0.1, SVG Export Plug-In . SVG Version: 6.00 Build 0)  -->
<svg version="1.0" id="katman_1" xmlns="http://www.w3.org/2000/svg" xmlns:xlink="http://www.w3.org/1999/xlink" x="0px" y="0px"
	 viewBox="0 0 560 400" style="enable-background:new 0 0 560 400;" xml:space="preserve">
<style type="text/css">
	.st0{fill:#171FC9;}
</style>
<path class="st0" d="M280,50c-82.8,0-150,67.2-150,150s67.2,150,150,150s150-67.2,150-150S362.8,50,280,50z M242.5,251.8l-1.4,1.4
	c-2.9,2.9-6.1,5.7-9.3,8.3l-3.8,2.9c-0.3,0.2-0.6,0.3-0.9,0.3c-0.3,0-0.5-0.1-0.7-0.2c-0.5-0.3-0.8-0.9-0.6-1.5l1.5-6.6
	c1.6-7.2,1.3-14.8-1-21.8l-0.8-2.4c-0.9-2.8-2-5.6-3.2-8.4L204.9,183l-1.9-5.6c-0.6-1.7-1-3.5-1.2-5.3l-0.3-2.8
	c-0.9-7.9,1.8-15.6,7.4-21.2l1.4-1.4c2.9-2.9,6.1-5.7,9.3-8.3l3.8-2.9c0.5-0.4,1.1-0.4,1.6-0.1c0.5,0.3,0.8,0.9,0.6,1.5l-1.5,6.6
	c-1.6,7.2-1.3,14.8,1,21.8l0.8,2.4c0.9,2.8,2,5.6,3.2,8.4l17.4,40.9l1.9,5.6c0.6,1.7,1,3.5,1.2,5.3l0.3,2.8
	C250.8,238.5,248.1,246.2,242.5,251.8L242.5,251.8z M301.1,265.2l-1.8,1.8c-3.7,3.7-7.7,7.3-11.8,10.5l-4.9,3.9
	c-0.3,0.2-0.6,0.3-0.9,0.3c-0.3,0-0.6-0.1-0.8-0.3c-0.6-0.4-0.8-1-0.7-1.6l1.9-8.6c2-9.1,1.6-18.7-1.3-27.6l-1-3.1
	c-1.2-3.6-2.5-7.2-4.1-10.6l-21.9-51.5l-2.3-7c-0.7-2.1-1.2-4.4-1.5-6.6l-0.4-3.6c-1.1-9.8,2.3-19.5,9.2-26.5l1.8-1.8
	c3.7-3.7,7.7-7.3,11.8-10.5l4.9-3.9c0.5-0.4,1.2-0.5,1.7-0.1c0.6,0.4,0.8,1,0.7,1.6l-1.9,8.6c-2,9.1-1.6,18.7,1.3,27.6l1,3.1
	c1.2,3.6,2.5,7.2,4.1,10.6l21.9,51.6l2.3,7c0.7,2.1,1.2,4.4,1.5,6.6l0.4,3.6C311.4,248.5,308,258.2,301.1,265.2L301.1,265.2z
	 M351,251.8l-1.4,1.4c-2.9,2.9-6.1,5.7-9.3,8.3l-3.8,2.9c-0.3,0.2-0.6,0.3-0.9,0.3c-0.3,0-0.5-0.1-0.7-0.2c-0.5-0.3-0.8-0.9-0.6-1.5
	l1.5-6.6c1.6-7.2,1.3-14.8-1-21.8l-0.8-2.4c-0.9-2.8-2-5.6-3.2-8.4L313.4,183l-1.9-5.6c-0.6-1.7-1-3.5-1.2-5.3l-0.3-2.8
	c-0.9-7.9,1.8-15.6,7.4-21.2l1.4-1.4c2.9-2.9,6.1-5.7,9.3-8.3l3.8-2.9c0.5-0.4,1.1-0.4,1.6-0.1c0.5,0.3,0.8,0.9,0.6,1.5l-1.5,6.6
	c-1.6,7.2-1.3,14.8,1,21.8l0.8,2.4c0.9,2.8,2,5.6,3.2,8.4l17.4,40.9l1.9,5.6c0.6,1.7,1,3.5,1.2,5.3l0.3,2.8
	C359.3,238.5,356.6,246.2,351,251.8L351,251.8z"/>
</svg>
