<?xml version="1.0" encoding="utf-8"?>
<!-- Generator: Adobe Illustrator 25.0.1, SVG Export Plug-In . SVG Version: 6.00 Build 0)  -->
<svg version="1.0" id="katman_1" xmlns="http://www.w3.org/2000/svg" xmlns:xlink="http://www.w3.org/1999/xlink" x="0px" y="0px"
	 viewBox="0 0 600 400" style="enable-background:new 0 0 600 400;" xml:space="preserve">
<style type="text/css">
	.st0{clip-path:url(#SVGID_4_);}
	.st1{clip-path:url(#SVGID_5_);}
	.st2{clip-path:url(#SVGID_6_);fill:#D60C8C;}
	.st3{clip-path:url(#SVGID_6_);fill:#46166B;}
	.st4{clip-path:url(#SVGID_6_);fill:#F58025;}
	.st5{clip-path:url(#SVGID_6_);fill:#FFCF01;}
	.st6{clip-path:url(#SVGID_8_);fill-rule:evenodd;clip-rule:evenodd;fill:#FFCF01;}
	.st7{fill-rule:evenodd;clip-rule:evenodd;fill:#3E296E;}
	.st8{fill-rule:evenodd;clip-rule:evenodd;fill:#D60C8C;}
	.st9{fill-rule:evenodd;clip-rule:evenodd;fill:#472669;}
</style>
<g>
	<g>
		<defs>
			<rect id="SVGID_1_" x="228.5" y="140.8" width="334.2" height="119.2"/>
		</defs>
		<defs>
			<path id="SVGID_2_" d="M451,145.2c-0.8,4.3-3.6,8.4-6.7,11.5c-0.2,0.2-0.4,0.4-0.6,0.6c-0.8-1.4-1-3.6-1.1-4.7
				c-0.6-4.1-12.9-1.2-12.2,3.3c0.5,3.5,1.7,7.4,5.4,8.7c4.5,1.7,9.7,0,13.7-2.3c6.3-3.6,12.4-11.5,13.8-18.7
				c0.4-1.9-1.4-2.6-3.7-2.6C456,141,451.4,142.7,451,145.2 M469,147.7c-5.1,30.5-12.5,60.7-12.7,91.7c-0.1,10.3,15.9,10.3,15.9,0
				c0.1-29.7,7.2-58.4,12.1-87.5c1-6-4.1-10-8.8-10C472.5,141.9,469.7,143.6,469,147.7 M301.3,164.5c-6.5,3.3-12.9,7-18.9,11.4
				c-4.2,3.1-9.2,6.8-11.7,12c-2.5,5.3-0.2,12.1,4.8,13.8c14.9,5,33.9,2.2,47.1,9.1c0.7,0.4,1.4,0.9,2.1,1.3
				c0.2,0.1,0.3,0.2,0.4,0.3c0.1,0.1,0.2,0.2,0.3,0.4c0.6,0.6,0.6,0.6,0.8,1.4c0.2,0.6,0.1,1.2-0.1,2.6c-0.4,2.1-0.9,3.4-1.7,5.1
				c-2.9,6.2-8,10.1-14.2,13.5c-12.9,7-30.2,7.2-44.1,2.8c-6.4-2-12.4-5.4-16.6-10.3c-1.6-1.9-3.3-5-3.8-6.7
				c-1.2-4-1.2-5.5-0.8-10.1c0.4-5.1-3.9-9.4-8-9.4c-4.7,0-7.5,4.3-8,9.4c-1.7,20.4,10.8,35.2,25.7,42.4c16.1,7.7,34.9,8,51.6,3.2
				c15.5-4.5,32.7-16.8,35.6-37c3.7-25.5-21.3-29.8-37-31.8c-2.3-0.3-4.6-0.5-6.8-0.8c1.8-1.1,3.6-2.2,5.4-3.2
				c4.1-2.3,8.3-4.2,12.6-5.6c0.8-0.3,1.7-0.5,2.5-0.7c1.4-0.4,1.1-0.3,1.2-0.3c0,0,0,0,0.2,0c5.2,5.7,15.8,0.6,13.1-9.2
				c-2-7.3-6.8-9.7-12.2-9.7C314.1,158.4,306.4,161.9,301.3,164.5 M499.6,170.8c-12,12.3-18.3,35.2-14.7,52
				c2.1,9.8,10.3,19.3,19.4,23.2c9.9,4.3,20.8,3.6,30.9,0.1c9.1-3.1,17.3-8.4,24.4-14.9c7.6-6.9-3.7-18.2-11.3-11.3
				c-10.2,9.4-27.8,18.5-40.9,9.7c-3.4-2.3-5.5-5.3-6.6-8.7c6.8-2.8,12.6-8.3,17.6-13.6c6.2-6.6,11.9-14.3,14.7-23
				c2.8-8.5-0.6-17.6-9.4-20.6c-2.2-0.7-4.4-1.1-6.5-1.1C510.5,162.7,504.3,165.9,499.6,170.8 M498.4,192c1.2-3,3-5.9,4.9-8.5
				c1.4-1.9,4.1-4.1,5-4.4c1.8-0.7,0.9-0.5,2.8-0.5c-0.1,0,0.3,0.1,0.7,0.2c0,0.3-0.1,0.5-0.1,0.6c-1.3,5.4-6,11.3-10.1,15.9
				c-2,2.2-4.2,4.4-6.4,6.3C496,198.2,497.2,194.9,498.4,192 M409.1,173.2c-8,7.6-12.6,17.5-17,27.5c-0.4,0.8-0.7,1.7-1.1,2.6
				c0.2-5.4-0.2-10.7-2.4-16.1c-1.9-4.6-6.9-7.7-11.7-4.7c-4,2.5-7.5,5.6-10.5,9.1c-3.9-5.1-14.3-3.5-14.4,4.8
				c-0.1,13.3-2.2,26.4-2.3,39.6c-0.1,10.4,15,10.1,15.9,0c0.8-9.4,3.8-21,9.6-29.9c-0.1,2-0.3,4-0.5,6.1
				c-0.8,7.6-1.3,14.8-0.3,22.4c0.9,6.4,9.4,7,13.3,3.5c9.7-8.6,13.9-20.7,19.1-32.2c-0.4,5.5-0.7,11-0.5,16.5
				c0.3,8.4,1.7,17,7,23.7c5.7,7.3,14.9,8.2,23.4,6.9c4.3-0.7,6.6-6,5.6-9.8c-1.3-4.5-5.5-6.2-9.8-5.6c-2.5,0.4-4.6,0-5.4-0.4
				c-1.8-0.9-0.2,0.2-1.6-1.3c-0.1,0-0.1-0.1-0.1-0.1c-0.1-0.2-0.2-0.3-0.3-0.5c-0.4-0.6-0.7-1.3-1-1.9c0.6,1.1-0.6-2-0.7-2.5
				c-0.5-1.7-0.6-3-0.7-3.8c-0.4-3.8-0.4-7.6-0.3-11.4c0.2-7.4,1-14.8,1.5-22.2c0.3-5.3,0.9-11.7-1.2-16.7c-1.5-3.5-4.6-5.8-7.9-5.8
				C412.7,170.9,410.8,171.6,409.1,173.2 M436,180c-0.2,12.5-3.2,24.9-4.7,37.3c-0.5,4.3,4,8,8,8c4.7,0,7.5-3.6,8-8
				c1.4-12.4,4.5-24.8,4.7-37.3c0.1-5.1-3.9-7.7-7.8-7.7C440.1,172.3,436.1,174.8,436,180"/>
		</defs>
		<defs>
			<rect id="SVGID_3_" x="228.5" y="140.8" width="334.2" height="119.2"/>
		</defs>
		<clipPath id="SVGID_4_">
			<use xlink:href="#SVGID_1_"  style="overflow:visible;"/>
		</clipPath>
		<clipPath id="SVGID_5_" class="st0">
			<use xlink:href="#SVGID_2_"  style="overflow:visible;"/>
		</clipPath>
		<clipPath id="SVGID_6_" class="st1">
			<use xlink:href="#SVGID_3_"  style="overflow:visible;"/>
		</clipPath>
		<rect x="159.9" y="112.2" class="st2" width="416.9" height="92.5"/>
		<rect x="159.9" y="198.3" class="st3" width="416.9" height="18.5"/>
		<rect x="159.9" y="228.6" class="st4" width="416.9" height="40.9"/>
		<rect x="159.9" y="216.8" class="st5" width="416.9" height="12.6"/>
	</g>
	<g>
		<defs>
			<rect id="SVGID_7_" x="36.3" y="140" width="526.3" height="120"/>
		</defs>
		<clipPath id="SVGID_8_">
			<use xlink:href="#SVGID_7_"  style="overflow:visible;"/>
		</clipPath>
		<path class="st6" d="M108.3,183c-0.7-1.5-1.5-2.8-2.4-3.9c-1-1.2-2-2.1-3.2-3c-0.6-0.5-1.2-0.9-1.9-1.2c-0.3-0.2-0.7-0.4-0.9-0.6
			c0.3-0.1,0.7-0.3,0.9-0.5c0.7-0.3,1.3-0.7,1.9-1.1c1.2-0.9,2.2-1.8,3.2-3c0.9-1.2,1.7-2.5,2.4-3.9c0.7-1.4,1.1-3,1.4-4.6
			c0.1-1.2,0.2-2.3,0.2-3.4v-1.5c-0.1-1.3-0.4-2.7-0.9-4c-0.5-1.3-1.1-2.6-1.8-3.7c-0.8-1.3-1.6-2.3-2.7-3.4
			c-1.1-0.9-2.2-1.9-3.4-2.7c-1.4-0.7-2.7-1.3-4.2-1.7c-1.5-0.5-3.1-0.8-4.8-0.8c-1.6-0.1-3.2,0.1-4.7,0.4c-1.4,0.4-2.9,1-4.1,1.6
			c-1.3,0.7-2.5,1.5-3.6,2.6c-1,1-1.8,2.1-2.5,3.3c-0.7,1.3-1.1,2.6-1.3,4c-0.2,0.8-0.2,1.4-0.2,2.2c0,0.7,0,1.3,0.1,1.8
			c-1.3-0.8-2.7-1.4-4-1.8c-1.6-0.6-3.6-0.9-5.5-1c-1.8,0-3.5,0.2-5.2,0.6c-1.5,0.3-3.1,0.9-4.5,1.6c-1.4,0.7-2.6,1.6-3.8,2.6
			c-0.8,0.7-1.5,1.3-2.3,2.1c0,0-1.2,1.2-1.7,1.9c-0.7,0.7-1.3,1.5-2,2.4l-1.5,1.9c-0.4,0.6-0.8,1.1-1.2,1.5
			c-0.6,0.8-1.3,1.5-1.9,2.1c-1.2,1.2-2.4,2.2-3.7,3.1c-0.3,0.2-0.6,0.4-0.9,0.6c-0.2,0.1-0.4,0.2-0.6,0.3c-0.2,0.1-0.4,0.2-0.4,0.4
			c0,0.3,0.2,0.4,0.4,0.5c0.2,0.1,0.4,0.2,0.6,0.3c0.3,0.2,0.6,0.4,0.9,0.6c1.3,0.9,2.6,1.9,3.7,3.1c0.7,0.7,1.3,1.4,1.9,2.1
			c0.5,0.5,0.9,1,1.2,1.5l1.5,1.9c0.7,0.9,1.3,1.7,2,2.4c0.6,0.8,1.7,1.8,1.7,1.8c0.8,0.9,1.5,1.5,2.3,2.2c1.3,1,2.6,1.9,3.8,2.6
			c1.4,0.8,3,1.3,4.5,1.6c1.6,0.5,3.4,0.6,5.2,0.6c1.9-0.1,3.9-0.4,5.5-0.9c1.3-0.4,2.7-1.1,4-1.8c-0.1,0.6-0.1,1.1-0.1,1.8
			c0,0.8,0,1.4,0.2,2.2c0.2,1.4,0.7,2.8,1.3,4c0.7,1.3,1.5,2.4,2.5,3.4c1.1,1,2.2,1.9,3.6,2.6c1.2,0.7,2.7,1.2,4.1,1.6
			c1.5,0.3,3.1,0.5,4.7,0.4c1.7,0,3.3-0.3,4.8-0.8c1.5-0.4,2.9-0.9,4.2-1.7c1.2-0.8,2.4-1.7,3.4-2.7c1.1-1.1,1.9-2.1,2.7-3.4
			c0.8-1.2,1.3-2.5,1.8-3.7c0.5-1.3,0.8-2.7,0.9-4.2V191c0-1.1-0.1-2.2-0.2-3.4C109.4,186,108.9,184.5,108.3,183"/>
	</g>
	<path class="st7" d="M104.2,184.6c-0.6-1.3-1.3-2.4-2.2-3.5c-0.9-1.1-1.9-1.9-3.1-2.6c-1.2-0.8-2.5-1.4-3.8-1.6
		c-1.3-0.5-2.8-0.7-4.2-0.7c-1.5,0-3,0.2-4.5,0.6c-1.3,0.3-2.4,0.7-3.5,1.2c-1.1,0.5-2,1.2-2.9,1.8c-0.9,0.6-1.7,1.3-2.5,1.9
		c-0.9,0.6-1.6,1.2-2.5,1.7c-0.8,0.5-1.6,1-2.6,1.3c-1.1,0.3-2.1,0.5-3.2,0.5c-1.5,0-2.9-0.3-4.2-0.9c-1.4-0.6-2.5-1.3-3.5-2.4
		c-1.1-1-1.8-2.2-2.3-3.6c-0.6-1.2-0.8-2.7-0.8-4.1c0-1.3,0.2-2.8,0.8-4c0.5-1.4,1.3-2.5,2.3-3.6c1-1.1,2.1-1.8,3.5-2.4
		c1.3-0.6,2.8-0.8,4.2-0.8c1.1,0,2.1,0.2,3.2,0.5c1,0.4,1.8,0.8,2.6,1.3c0.9,0.6,1.6,1.2,2.5,1.8c0.8,0.6,1.6,1.2,2.5,1.9
		c0.9,0.6,1.8,1.2,2.9,1.7c1.2,0.6,2.3,1,3.5,1.2c1.5,0.4,3,0.6,4.5,0.6c1.4,0,2.9-0.2,4.2-0.6c1.3-0.4,2.6-0.9,3.8-1.7
		c1.2-0.7,2.2-1.5,3.1-2.6c1-1.1,1.6-2.2,2.2-3.5c0.6-1.3,1-2.7,1.1-4.1c0.2-1.5,0.2-3.1-0.1-4.6c-0.3-1.4-0.8-2.9-1.4-4.1
		c-0.7-1.2-1.5-2.3-2.5-3.3c-1-1-2.1-1.8-3.4-2.5c-1.2-0.6-2.6-1.1-3.9-1.3c-1.3-0.3-2.9-0.4-4.3-0.2c-1.4,0.2-2.8,0.6-4,1.2
		c-1.2,0.6-2.3,1.4-3.2,2.4c-1,1-1.6,2.1-2.2,3.4c-0.5,1.2-0.9,2.6-1,4c0,1.3,0.1,2.8,0.6,4.1c0,0.2,0.1,0.4,0.2,0.6
		c0,0.1,0,0.2,0.1,0.3c0,0.1,0,0.2,0.1,0.3c0,0,0.1,0.1,0.2,0.1c0,0,0.1-0.1,0.1-0.2v-0.6c0.1-0.8,0.3-1.4,0.6-2.1
		c0.6-1.2,1.4-2.3,2.5-3.1c1.2-0.7,2.5-1.1,3.8-1.2c1.4-0.1,2.9,0.1,4.1,0.8c1.1,0.6,2.1,1.5,2.8,2.7c0.7,1.1,1,2.6,1,4
		c0,1.3-0.4,2.8-1.1,3.9c-0.7,1.2-1.7,2.1-3,2.8c-1.3,0.6-2.7,0.9-4,0.7c-1-0.1-1.9-0.4-2.8-0.8c-0.8-0.4-1.7-1-2.5-1.5
		c-0.9-0.7-1.7-1.3-2.5-2c-0.9-0.8-1.7-1.5-2.6-2.2c-1-0.8-1.9-1.4-3-1.9c-1.2-0.7-2.3-1.1-3.5-1.5c-1.4-0.4-2.8-0.6-4.2-0.6
		c-1.4,0-2.9,0.1-4.3,0.5c-1.2,0.3-2.4,0.7-3.5,1.3c-1,0.6-1.9,1.2-2.9,2c-0.9,0.7-1.6,1.5-2.4,2.4c-0.8,0.9-1.4,1.7-2.1,2.6
		c-0.8,0.9-1.4,1.8-2.1,2.7c-0.8,0.9-1.4,1.7-2.3,2.5c-0.8,0.7-1.5,1.4-2.5,2.1c-0.2,0.1-0.4,0.2-0.6,0.3c-0.1,0.1-0.3,0.2-0.4,0.3
		c-0.1,0-0.3,0.1-0.3,0.2c0,0.2,0.2,0.3,0.3,0.4c0.1,0,0.3,0.1,0.4,0.2c0.2,0.1,0.4,0.2,0.6,0.4c1,0.6,1.7,1.2,2.5,2
		c0.9,0.8,1.5,1.7,2.3,2.5c0.7,0.9,1.3,1.8,2.1,2.7c0.7,0.9,1.3,1.7,2.1,2.6c0.8,0.9,1.5,1.7,2.4,2.4c1,0.8,1.9,1.5,2.9,2
		c1.1,0.6,2.3,1,3.5,1.2c1.4,0.4,2.9,0.5,4.3,0.5c1.5,0,2.9-0.2,4.2-0.6c1.2-0.4,2.4-0.9,3.5-1.4c1-0.6,2-1.2,3-2
		c0.9-0.6,1.7-1.4,2.6-2.1c0.8-0.8,1.6-1.5,2.5-2.1c0.8-0.6,1.6-1.2,2.5-1.5c0.9-0.4,1.8-0.7,2.8-0.8c1.3-0.2,2.8,0.1,4,0.7
		c1.3,0.6,2.3,1.6,3,2.8c0.8,1.2,1.1,2.6,1.1,3.9c0,1.4-0.3,2.8-1,3.9c-0.7,1.2-1.6,2.1-2.8,2.7c-1.3,0.7-2.7,0.9-4.1,0.8
		c-1.4,0-2.7-0.5-3.8-1.2c-1.1-0.8-1.9-1.8-2.5-3.1c-0.3-0.7-0.5-1.3-0.6-2.1v-0.6c0-0.1-0.1-0.2-0.1-0.2c-0.1,0-0.2,0.1-0.2,0.1
		c-0.1,0.1-0.1,0.2-0.1,0.3c-0.1,0.1-0.1,0.2-0.1,0.3c-0.1,0.2-0.2,0.4-0.2,0.6c-0.5,1.4-0.6,2.8-0.6,4.1c0.1,1.4,0.5,2.7,1,3.9
		c0.6,1.2,1.2,2.4,2.2,3.4c0.9,1,2,1.8,3.2,2.4c1.2,0.7,2.7,1,4,1.2c1.4,0.2,3,0.1,4.3-0.2c1.3-0.3,2.7-0.8,3.9-1.3
		c1.2-0.7,2.3-1.5,3.4-2.5c1-1,1.8-2,2.5-3.3c0.7-1.2,1.2-2.7,1.4-4.1c0.3-1.5,0.3-3.1,0.1-4.6C105.2,187.2,104.8,185.9,104.2,184.6
		"/>
	<path class="st8" d="M83.8,174.4l-0.1-0.1c-1.7-0.4-3.3-1.3-4.6-2.3c-1.5-1.1-3-2.3-4.4-3.4c-1.6-1.1-3.3-1.9-5.1-2
		c-1.4-0.1-3,0.2-4.2,1c-1.1,0.7-2.1,1.6-2.8,2.8c-0.8,1.3-1.1,2.7-1.1,4v0.1c0,1.3,0.3,2.8,1.1,4c0.7,1.1,1.6,2.1,2.8,2.8
		c1.2,0.7,2.8,1.1,4.2,1c1.8-0.1,3.5-1,5.1-2c1.4-1.1,2.9-2.2,4.4-3.4c1.3-1,2.9-1.9,4.6-2.3C83.7,174.6,83.8,174.5,83.8,174.4"/>
	<path class="st9" d="M216.6,176.9l6.2-14.5l5.8,14.5H216.6 M231.5,194.7h16.2c-3.2-1.9-4.2-3.8-6.2-8.5
		c-11.1-25.8-15.1-34.8-15.1-34.8s-2.5,4.2-10.5,5.7c0.6,0.4,1.2,1.4,1.2,2.5c0,0.7-0.2,1.7-0.6,2.8l-10.6,23.8
		c-2.3,5-3.6,7.2-6.7,8.2c-2.5-1.4-2.9-2.8-2.9-7.7v-24.5c0-5.1,0.5-6.4,3.1-7.9h-14.4c2.6,1.5,3.1,2.8,3.1,7.9v8.4h-20.1v-8.4
		c0-5.1,0.6-6.4,3.2-7.9h-14.5c2.8,1.5,3.2,2.8,3.2,7.9v24.5c0,5.1-0.5,6.4-3.2,8h14.5c-2.7-1.6-3.2-2.9-3.2-8v-10.5h20.1v10.5
		c0,5.1-0.6,6.4-3.2,8h28.6c-1.4-0.9-2.5-2-2.5-3.6c0-1.1,0.4-1.8,1.3-3.9l2.3-5.5h16l2.4,6.1c0.7,1.6,1,2.3,1,3.3
		C233.9,192.7,232.6,193.9,231.5,194.7 M259.1,186.7v-24.5c0-5.1,0.5-6.4,3-7.9h-14.4c2.6,1.5,3.1,2.8,3.1,7.9v24.5
		c0,5.1-0.5,6.4-3.1,8h14.4C259.6,193.1,259.1,191.9,259.1,186.7 M155.4,151.4c-1.5,1.3-3.9,2.9-10.2,2.9h-18.1
		c-3.6,0-5.1-2.1-5.7-3.4c-1.4,3.1-4.9,7.5-7,9.3h16.9v26c0,5.2-0.8,6.9-3.2,8.5h14.4c-2.6-1.6-3-2.9-3-8v-26.6h2.4
		c3.6,0,5.5-0.4,7-0.9C152.7,157.9,155.1,155,155.4,151.4"/>
</g>
</svg>
