<?xml version="1.0" encoding="utf-8"?>
<!-- Generator: Adobe Illustrator 25.0.1, SVG Export Plug-In . SVG Version: 6.00 Build 0)  -->
<svg version="1.0" id="Layer_1" xmlns="http://www.w3.org/2000/svg" xmlns:xlink="http://www.w3.org/1999/xlink" x="0px" y="0px"
	 viewBox="0 0 941.2 611.4" style="enable-background:new 0 0 941.2 611.4;" xml:space="preserve">
<style type="text/css">
	.st0{fill:#0062DF;}
	.st1{fill:#093687;}
	.st2{fill:none;}
</style>
<path class="st0" d="M148.4,221.6h53.7c-13,41.3-26.4,82.5-39.3,123.9c-2.3,5.7-0.7,13.9,5.8,15.9c9.8,1.2,19.6,0.2,29.5,0.5
	c15-46.7,29.8-93.5,44.7-140.2c20.3,0,40.5,0,60.8,0c-14.6,15.9-29.5,31.6-44.1,47.5l23.6-6.4c-13.6,42.5-27.1,84.9-40.7,127.3
	c-35.1,0.1-70.1,0-105.2,0.1c-9.4,0.3-19.9-2.9-25.2-11.1c-6.8-10.5-6-24-2.3-35.5C122.5,302.8,135.4,262.2,148.4,221.6z"/>
<path class="st0" d="M320.1,221.6c39.5,0,79.1,0,118.6,0c9.3-0.4,19.3,2.8,24.8,10.7c7.6,10.5,6.6,24.5,2.7,36.3
	c-4.8,13.9-7.6,28.9-16.6,40.9c-10.8,14.8-27.7,26.8-46.7,26.5c-19.5,0.2-39-0.2-58.5,0.1c-5.6,18-11.4,35.8-17.1,53.8
	c-17.8,0.1-35.5,0.1-53.3,0c13.6-42.4,27.1-84.8,40.7-127.2c6.5,2.2,12.9,4.3,19.4,6.5C329.4,253.3,324.6,237.5,320.1,221.6z
	 M371.8,250c-6.1,19.2-12.3,38.4-18.3,57.7c10-0.1,20.1,0.2,30.2,0c10.3,0.5,19-7.8,21.8-17.2c2.9-9.1,6.3-18.1,8.4-27.4
	c1.4-5.6-2.3-12.6-8.5-12.9C394.1,249.6,382.9,250.1,371.8,250z"/>
<path class="st1" d="M510.9,221.6c17.8,0,35.5,0,53.3,0c-5.7,18-11.5,36-17.2,54.1c21.1,0.2,42.2-0.4,63.3,0.3
	c11.3,0.4,21.3,9.1,23.8,20.1c4.2,15.9-3.8,31.1-8,46.1c-7.5,26-31.6,49.6-59.9,47.9c-36.3-0.1-72.5,0-108.8-0.1
	C475.2,333.9,493,277.7,510.9,221.6z M537.9,304.1c-6.2,19.2-12.2,38.5-18.4,57.7c10.9-0.1,21.7,0.3,32.6-0.1
	c9.7-0.7,17.2-9.1,19.8-18.1c2.7-8.6,5.8-17,7.9-25.8c1.7-5.6-1.8-13.2-8.2-13.5C560.4,303.7,549.2,304.3,537.9,304.1L537.9,304.1z"
	/>
<path class="st1" d="M690.8,221.3c17.8,0,35.5,0,53.2,0c-4.3,13.8-8.8,27.5-13.1,41.4c-17.8,0.2-35.6,0.1-53.4,0.1
	C682,248.9,686.3,235.1,690.8,221.3z"/>
<path class="st1" d="M774.2,221.3c17.8-0.1,35.5,0,53.3,0c-5.7,17.9-11.4,35.9-17.2,53.9c8,0,16,0,24,0c-2.9,9.5-6,18.9-9,28.4
	c-8,0-16,0-24.1,0c-4.3,14.2-9.7,28.1-12.8,42.7c-1.6,5.6,0.3,13,6.7,14.5c8.3,2,17.1,0.8,25.7,1.1c-2.9,9.2-5.8,18.5-8.8,27.6
	c-17.5-0.1-35.1,0.2-52.6-0.1c-9.7-0.1-19.6-5.4-23.7-14.5c-5.5-11-3.3-23.9,0.5-35C749.1,300.4,761.7,260.9,774.2,221.3z"/>
<path class="st1" d="M669.4,288.5c17.8,0,35.5-0.1,53.3,0c-10.8,33.7-21.5,67.3-32.2,100.9c-17.8,0-35.5,0-53.2,0
	C647.9,355.8,658.6,322.2,669.4,288.5z"/>
<rect x="80.2" y="192.4" class="st2" width="780.8" height="226.6"/>
</svg>
