<?xml version="1.0" encoding="utf-8"?>
<!-- Generator: Adobe Illustrator 26.0.3, SVG Export Plug-In . SVG Version: 6.00 Build 0)  -->
<svg version="1.0" id="layer" xmlns="http://www.w3.org/2000/svg" xmlns:xlink="http://www.w3.org/1999/xlink" x="0px" y="0px"
	 viewBox="0 0 862 640" style="enable-background:new 0 0 862 640;" xml:space="preserve">
<style type="text/css">
	.st0{fill:none;stroke:#000000;stroke-width:2.0509;stroke-linecap:round;stroke-linejoin:round;stroke-miterlimit:10;}
</style>
<path id="XMLID_106_" class="st0" d="M509,212.4C508.9,212.4,508.9,212.4,509,212.4L509,212.4z"/>
<path id="XMLID_105_" class="st0" d="M497.6,349.3c0-0.1,0-0.2-0.1-0.2C497.4,349.2,497.5,349.3,497.6,349.3
	C497.6,349.4,497.6,349.3,497.6,349.3z"/>
<path id="XMLID_104_" d="M497.6,349.3c0-0.1,0-0.2-0.1-0.2C497.4,349.2,497.5,349.3,497.6,349.3
	C497.6,349.4,497.6,349.3,497.6,349.3"/>
<path id="XMLID_103_" class="st0" d="M443.1,244.8L443.1,244.8L443.1,244.8L443.1,244.8L443.1,244.8z"/>
<path id="XMLID_101_" class="st0" d="M441.4,354.2C441.4,354.2,441.3,354.2,441.4,354.2C441.3,354.2,441.4,354.3,441.4,354.2
	C441.4,354.3,441.4,354.2,441.4,354.2z"/>
<path id="XMLID_100_" d="M441.4,354.2C441.4,354.2,441.3,354.2,441.4,354.2C441.3,354.2,441.4,354.3,441.4,354.2
	C441.4,354.3,441.4,354.2,441.4,354.2"/>
<path id="XMLID_99_" class="st0" d="M507.3,304.5c0.1,0,0.1-0.1,0.2-0.2C507.3,304.3,507.2,304.3,507.3,304.5z"/>
<path id="XMLID_98_" d="M507.3,304.5c0.1,0,0.1-0.1,0.2-0.2C507.3,304.3,507.2,304.3,507.3,304.5"/>
<path id="XMLID_97_" class="st0" d="M506.5,305.6C506.5,305.6,506.5,305.5,506.5,305.6L506.5,305.6L506.5,305.6z"/>
<path id="XMLID_7_" d="M316.7,187.3c-6.3,5.7-12.2,11.8-17.5,18.4c-10.1,12.5-18.1,26.3-24.1,41.2c-1.1,2.6-2,5.3-2.9,7.9l-0.2,0.6
	c-0.3,1-0.6,2-0.9,2.9l-0.2,0.7c-1.4,4.5-2.7,9.1-3.8,13.7c-0.7,3.2-1.3,6.4-1.9,9.6c-0.4,2.7-0.8,5.4-1.1,8.1
	c-0.3,2.6-0.5,5.1-0.7,7.7c-0.1,2.2-0.2,4.4-0.3,6.6c-0.2,6.6,0,13.1,0.6,19.6c0.3,3.4,0.8,6.7,1.2,10.1c0.2,1.9,0.5,3.8,0.7,5.7
	c0.1,0.7,0.2,1.4,0.3,2.1c0.3,1.3,0.6,2.6,0.9,3.8c0.1,0.3,0.1,0.7,0.3,1c0.6,1.6,1.1,3.2,1.6,4.9c0.3,1.1,0.6,2.2,1.3,3.1
	c0.2-0.4,0.1-0.8,0-1.2c-0.3-1.7-0.4-3.4-0.5-5c-0.1-2.4-0.3-4.9-0.4-7.3c-0.1-1.4-0.2-2.8-0.2-4.3c0-4.4,0-8.8,0-13.2
	c0-2.9,0.4-5.8,0.8-8.7c0.3-2.1,0.7-4.3,1-6.4c0.3-2.3,0.6-4.6,0.9-7c0.1-1.1,0.3-2.3,0.5-3.4c0.3-1.7,0.7-3.3,0.9-5
	c0.3-2.5,0.9-4.9,1.3-7.3c0.1-0.3,0.2-0.6,0.3-0.9c-0.1-0.2,0-0.4,0-0.6c0.6-2.1,1.1-4.3,1.8-6.4c0.1-0.3,0.1-0.5,0.3-0.8
	c0.4-0.9,0.6-1.8,0.8-2.7v-0.3c0.1-0.4,0.1-0.9,0.2-1.3c0-0.3,0.1-0.6,0.3-0.9c0.1-0.2,0.2-0.4,0.3-0.6l0.4-0.8
	c0.1-0.2,0.3-0.5,0.4-0.7l0.2-0.3c0.1-0.2,0.2-0.4,0.3-0.6l0.3-0.5c0.2-0.3,0.3-0.7,0.5-1l0.6-1.3c0.1-0.3,0.3-0.5,0.4-0.8
	c0,0,0,0,0-0.1l0.4-0.7c0.2-0.4,0.5-0.8,0.8-1.2c0.2-0.2,0.4-0.5,0.6-0.7l0.3-0.4c0.5-0.6,1-1.3,1.5-2l0,0l0.7-1.1
	c0.2-0.4,0.5-0.8,0.8-1.1c0.1,0,0.1-0.1,0.2-0.1c0.1,0,0.1,0.1,0.1,0.2c-0.2,0.7-0.3,1.5-0.5,2.3c-0.2,1.1-0.2,2.3-0.3,3.4
	c-0.3,2.7-0.4,5.3-0.6,8c-0.1,0.6,0,1.2-0.1,1.8c0,0.3,0.1,0.6-0.1,0.9c0,0.8,0,1.6,0,2.3c0,6.2-0.1,12.5-0.2,18.7
	c-0.1,2.5,0,5.1,0.1,7.6c0.1,2,0.2,3.9,0.3,5.9c0.1,1.4,0.1,2.8,0.3,4.2c0.1,0.8,0.1,1.6,0.1,2.4c0.1,1.5,0.2,2.9,0.3,4.4
	c0.1,0.7,0.1,1.5,0.2,2.2c0.2,1.4,0.4,2.8,0.5,4.1c0.1,1.8,0.5,3.5,0.8,5.2c0.3,1.6,0.7,3.3,1,4.9c0.1,0.7,0.3,1.4,0.5,2.1
	c0.1,0.5,0.3,0.9,0.5,1.4c0,0.1,0.1,0.2,0.2,0.1c0.1,0,0.1-0.2,0.1-0.3c0-0.4-0.1-0.9-0.1-1.3c0-0.2-0.1-0.4-0.1-0.6
	c-0.2-1.5-0.4-3-0.6-4.5c-0.1-0.8-0.2-1.6-0.3-2.4c-0.1-1.4-0.1-2.7-0.1-4.1c-0.1-2.6-0.1-5.1-0.2-7.7c-0.1-3-0.1-6,0-9.1
	c0-0.8,0.1-1.6,0.2-2.4c0.1-1.1,0.1-2.1,0.2-3.2c0.1-2,0.3-4,0.5-6c0.1-1.5,0.3-3,0.5-4.5c0.1-1.1,0.4-2.1,0.4-3.2
	c0.2-2.7,0.6-5.4,1-8.1c0.2-1.4,0.4-2.7,0.6-4.1c0.1-0.7,0.1-1.4,0.2-2c0.4-2.2,0.8-4.5,1.1-6.7c0-0.2,0.1-0.5,0.2-0.7
	c0-0.1,0-0.2,0-0.3c0.3-2.1,0.7-4.2,1-6.2c0.5-2.8,0.9-5.6,1.4-8.3c0.4-2.3,0.9-4.6,1.4-7c0.2-0.8,0.5-1.4,1.1-2
	c1.5-1.5,2.9-3,4.3-4.5c1.7-1.7,3.4-3.5,5.2-5.1c1.2-1,2.3-2.1,3.4-3.2c2.4-2.3,4.9-4.4,7.5-6.6c0.7-0.6,1.4-1.1,2-1.7l0.2-0.2
	c0.1,0.1,0.1,0.2-0.1,0.3c0,0.1,0,0.3-0.1,0.4c-0.9,2.3-1.5,4.6-2.1,7c-0.9,3.1-1.6,6.3-2.6,9.4c-0.3,0.8-0.5,1.7-0.6,2.6
	c0,0.2-0.1,0.4-0.2,0.7c-0.3,1.8-0.7,3.5-1,5.3c-0.2,1.3-0.5,2.6-0.8,3.9c-0.5,2-0.8,3.9-1.1,5.9c-0.2,1.6-0.4,3.2-0.7,4.7
	c-0.3,1.9-0.7,3.9-0.8,5.8c-0.1,1.8-0.3,3.7-0.4,5.5c-0.1,1.3-0.1,2.6-0.2,3.9c-0.1,0.9-0.1,1.9-0.2,2.8c-0.1,1-0.2,2.1-0.3,3.1
	c-0.2,3-0.3,6-0.3,8.9c0,3.6,0.1,7.2,0.1,10.8c0,2,0.1,3.9,0.4,5.9c0.1,0.4,0.1,0.8,0.1,1.2c0.1,2.1,0.3,4.1,0.7,6.2
	c0.3,1.9,0.5,3.8,0.8,5.6c0.1,0.6,0.3,1.3,0.4,1.9c0.1,1.5,0.5,3,0.7,4.5c0.2,1.1,0.6,2.2,1,3.3c0.1,0.2,0.1,0.3,0.4,0.3
	c-0.1-0.6-0.1-1.1-0.2-1.7c-0.1-0.8-0.2-1.5-0.3-2.3c-0.1-1.3-0.2-2.4-0.3-3.6c-0.1-0.7-0.2-1.5-0.2-2.3c-0.1-1.2-0.1-2.4-0.2-3.6
	c-0.1-0.9-0.3-1.9-0.3-2.8s0-1.8,0-2.6c-0.1-1.7-0.1-3.5-0.2-5.2c-0.1-2.6,0.1-5.2,0.2-7.8c0.1-3.2,0.3-6.4,0.4-9.7
	c0.1-1.6,0.2-3.2,0.3-4.9c0.1-0.9,0.1-1.8,0.2-2.6c0.2-1.4,0.4-2.9,0.5-4.3c0.2-1.8,0.4-3.6,0.8-5.3c0.3-1.5,0.5-3,0.7-4.5
	c0.2-1,0.2-2,0.4-3c0.5-2.8,1.1-5.5,1.7-8.2c0.3-1.5,0.7-2.9,0.9-4.4c0.7-3.2,1.6-6.4,2.5-9.6c0.5-1.9,1.2-3.8,1.6-5.8
	c0.1-0.7,0.4-1.4,0.9-2.1c-0.1-0.3,0-0.6,0.2-0.9c1.7-4,3.4-8,5.5-11.9c3-5.8,6.6-11.2,10.7-16.2c2.1-2.6,4.3-5.2,6.5-7.7
	c0.6-0.7,1.2-1.3,1.9-1.9c1.5-1.2,3-2.4,4.4-3.6c1.8-1.5,3.8-2.7,5.8-3.8c3.5-1.9,7-3.6,10.9-4.7c2.1-0.5,4.2-1,6.3-1.2
	c1.8-0.2,3.5-0.4,5.3-0.5c2-0.1,4-0.2,6,0c2.9,0.3,5.8,0.1,8.5-1.2c1.4-0.7,2.8-1.2,4.2-1.8c0.1-0.1,0.1-0.2,0.2-0.1
	c0.1,0.1,0,0.1-0.1,0.2c-0.1,0.3-0.3,0.4-0.6,0.6c-1.1,0.8-2,1.7-3,2.6c-1.2,1.1-2.4,2.2-3.6,3.3c-1.5,1.3-2.8,2.7-4.2,4.1
	c-1.3,1.3-2.6,2.6-3.9,4c-0.6,0.9-1.4,1.6-2.1,2.3c-3.8,4-7.3,8.3-10.2,13c-2.3,3.7-4.5,7.4-6.8,11.1c-1,1.6-1.9,3.3-2.7,5
	c-1.6,3.6-3.1,7.3-4.4,11.1c-0.5,1.5-1,3-1.6,4.5c-0.3,0.8-0.6,1.7-0.8,2.5c-0.3,1.1-0.5,2.2-0.8,3.2c-0.7,2.6-1.2,5.1-1.7,7.7
	c-0.5,2.4-0.8,4.8-1.2,7.2c-0.3,1.9-0.5,3.7-0.7,5.6c-0.2,1.7-0.3,3.4-0.5,5.2c-0.1,0.9-0.2,1.9-0.3,2.8c-0.1,1.6-0.1,3.2-0.2,4.9
	c0,0.3,0,0.7-0.1,1c-0.2,2.9-0.5,5.8-0.5,8.7c-0.1,4.8-0.2,9.6,0.1,14.3c0.2,2.8,0.4,5.6,0.7,8.3c0.1,0.7,0.2,1.5,0.3,2.2
	c0.3,2,0.7,4,1.1,6c0.4,2.3,0.8,4.5,1.2,6.8c0.2,1.1,0.5,2.3,0.8,3.4c0.1,0.6,0.5,1.1,0.9,1.7c0.2-0.4,0.3-0.8,0.2-1.2
	c-0.3-0.9-0.4-1.9-0.5-2.8c-0.1-1.4-0.3-2.8-0.5-4.2c-0.5-3.1-0.8-6.2-1-9.3c-0.2-3.1-0.3-6.2-0.3-9.4c0-0.4,0-0.9,0-1.3
	c-0.1-1.4-0.2-2.8-0.3-4.3c-0.2-3.3,0.1-6.6,0.2-10c0.1-1.2,0.1-2.4,0.2-3.6c0.1-1.8,0.3-3.5,0.4-5.3c0.2-2.5,0.3-5.1,0.7-7.6
	c0.3-2,0.6-4,0.9-6c0.5-3.6,1.1-7.2,1.9-10.8c2-8.9,4.9-17.5,8.7-25.7c6.3-13.6,14.6-25.8,24.9-36.5c0.3-0.4,0.7-0.8,1.1-1
	c0-0.2,0.2-0.3,0.3-0.4c4.8-4.8,9.8-9.2,15.3-13.1c2.9-2.1,6.1-3.8,9.3-5.3c1.2-0.5,2.4-0.7,3.7-0.4c1.4,0.2,2.7,0.7,3.9,1.3
	c0.1,0.1,0.3,0.1,0.4,0.2c0.2,0.1,0.2,0.3,0.1,0.4c-0.2,0.1-0.4,0.3-0.6,0.4c-5.3,3-10.2,6.5-14.9,10.4c-0.3,0.2-0.6,0.4-0.9,0.7
	c-0.5,0.5-1.1,1-1.6,1.4c-9.5,8.4-17.6,18-24.2,28.8c-3.1,5-5.9,10.2-8,15.7c-0.4,1-0.8,2-1.2,3c-1.7,4-3.2,8.1-4.2,12.4
	c-0.7,3.1-1.3,6.2-1.9,9.3c-0.6,2.9-1,5.9-1.3,8.8c-0.1,0.8-0.2,1.6-0.2,2.4c-0.2,2.4-0.4,4.7-0.5,7.1c0,0.5,0,1.1-0.1,1.6
	c-0.1,1.4-0.1,2.8,0,4.2c0.1,1.8,0.2,3.6,0.3,5.4c0.1,2.6,0.3,5.2,0.5,7.8c0.1,0.9,0.2,1.8,0.3,2.7c0.2,1.6,0.4,3.2,0.5,4.8
	c0.1,1.3,0.2,2.6,0.4,3.8c0.3,2.3,0.6,4.6,0.9,6.8c0,0.3,0.1,0.6,0.2,0.9c0.3,1.7,0.7,3.4,1,5.2c0.5,2.5,1,4.9,1.8,7.3
	c0.7,2.1,1.4,4.1,2.2,6.1c0.1,0.3,0.2,0.5,0.3,0.7l0.6,1c0.7,1.2,1.5,2.4,2.1,3.6c0.4,0.7,0.8,1.4,1.3,2.1c0.1,0.1,0.2,0.2,0.3,0.2
	c0.2-0.1,0.1-0.2,0.1-0.3c-0.2-0.9-0.4-1.8-0.7-2.7c-0.3-1.1-0.8-2.1-1.2-3.1s-0.8-2-1.2-3c-0.8-2.1-1.4-4.2-2.1-6.4
	c-0.1-0.1-0.1-0.3-0.1-0.5c-0.1-0.5-0.1-0.9-0.3-1.4c-0.5-1.6-0.9-3.3-1.3-4.9c-0.4-1.4-0.6-2.8-0.7-4.2c-0.1-1.1-0.2-2.2-0.4-3.2
	c-0.1-0.6-0.2-1.2-0.3-1.8c-0.2-1.6-0.4-3.2-0.5-4.8c-0.1-1.9-0.3-3.8-0.3-5.7c0-0.7,0-1.5,0-2.2c-0.1-2.7,0-5.4,0.1-8.1
	c0.1-3.3,0.3-6.6,0.3-10c0-0.3,0-0.6,0-0.9c0.2-2,0.3-3.9,0.5-5.9c0.3-2.8,0.7-5.6,1.2-8.4c0.3-1.9,0.7-3.9,1.2-5.8
	c0.5-2.3,1.2-4.5,1.8-6.8c0.5-1.7,0.9-3.4,1.5-5.1c1.4-4.1,3-8.1,4.9-12c0.3-0.7,0.7-1.5,1.1-2.2c3.8-8.2,8.6-15.8,14.3-22.7
	c4.3-5.3,9-10.1,14-14.7c2.4-2.2,4.7-4.3,7.2-6.3c0.3-0.2,0.5-0.5,0.9-0.6c0.1-0.4,0.5-0.6,0.7-0.8c0.9-0.7,1.8-1.4,2.8-2.1
	c1.2-0.9,2.4-1.7,3.6-2.6c1.1-0.8,2.3-1.4,3.5-2c0.4-0.2,0.8-0.2,1.1,0.1c0.9,0.9,1.8,1.8,2.7,2.6c1,0.9,0.7,1.6-0.2,2.1
	c-2.7,1.6-5.2,3.5-7.7,5.3c-0.1,0.1-0.2,0.1-0.3,0.1c-0.2,0.1-0.3,0.3-0.5,0.5c-4.1,3.2-8.1,6.5-11.9,10.1s-7.5,7.3-10.8,11.4
	c-5.4,6.7-9.8,14-13.3,21.8c-2.9,6.6-5.2,13.4-6.7,20.4c-0.9,4.4-1.6,8.8-2,13.3c-0.3,3.5-0.5,7-0.5,10.5c0,3.3,0.1,6.6,0.3,10
	c0.1,1.9,0.2,3.9,0.4,5.8c0.2,1.5,0.3,2.9,0.4,4.4c0.1,1.3,0.3,2.6,0.6,3.8c0.6,2.2,1,4.4,1.4,6.6c0.3,1.5,0.6,2.9,1,4.4
	c0.5,1.8,1.1,3.6,1.6,5.5c0.4,1.7,0.9,3.3,1.5,5c0.3,0.9,0.7,1.8,1.1,2.7c0.3,0.7,0.6,1.3,0.9,2c1.3,3.2,2.8,6.2,4.8,9.1
	c0.4,0.5,0.8,1,1.3,1.5c0.1,0.1,0.2,0.3,0.5,0.1c0-0.2-0.2-0.4-0.3-0.6c-0.3-0.7-0.8-1.4-1-2.1c-0.3-0.8-0.6-1.5-1-2.2
	c-0.2-0.3-0.3-0.6-0.5-0.9c-1.3-2.9-2.5-5.9-3.4-8.9c-0.8-2.6-1.5-5.2-2.3-7.8c-0.3-1-0.6-2.1-0.8-3.2c-0.2-0.9-0.3-1.9-0.5-2.8
	c-0.4-2-0.8-4.1-1.1-6.1c-0.3-2.3-0.5-4.6-0.9-7c-0.4-3.1-0.5-6.2-0.5-9.2c0-3.5,0.1-7,0.3-10.5c0.1-1.1,0.1-2.2,0.1-3.2
	c0.2-1.8,0.3-3.5,0.5-5.3c0.1-0.7,0.2-1.3,0.2-2c0.1-1.9,0.4-3.8,0.7-5.6c0.3-1.6,0.7-3.2,1.1-4.9c0.3-1.5,0.9-2.8,1.3-4.3
	c0.4-1.4,0.8-2.8,1.4-4.1c0.2-0.4,0.3-0.8,0.4-1.2c1.5-4.8,3.3-9.5,5.5-14c4.5-9.5,10.4-18.1,17.5-25.9c0.7-0.8,1.5-1.6,2.4-2.4
	c1.2-1,2.4-2,3.5-3.1c1.1-1,2.2-2,3.4-2.9c2.8-2.2,5.7-4.2,8.7-6.2c0.1-0.1,0.3-0.1,0.5-0.2c0-0.1,0.1-0.1,0.1-0.2
	c1.8-1.2,3.6-2.5,5.4-3.6c0.3-0.2,0.7-0.4,1-0.5c0.6-0.3,1.2-0.3,1.8,0c0.9,0.5,1.9,0.8,2.8,1.1c1.3,0.4,2.4,0.1,3.3-0.9
	c0.5-0.6,0.9-1.2,1.2-2c0.3-0.8,0.6-1.6,1-2.3c0.2-0.5,0.5-1,0.7-1.5c0.9-1.5,2.2-2.5,3.9-2.8c1.4-0.3,2.9-0.3,4.3,0
	c0.3,0.1,0.5,0.1,0.8,0.3c0.3,0.1,0.7,0.2,1,0.2c1-0.1,1.9,0.2,2.8,0.6c0.6,0.3,1.1,0.6,1.7,0.9c-0.1,0.3-0.3,0.3-0.4,0.3
	c-1.2,0.4-2.3,0.9-3.4,1.5c-5.5,2.7-10.9,5.6-16.2,8.5c-2,1.1-4,2.3-5.9,3.6c-0.1,0-0.1,0.1-0.2,0.1c-0.2,0.2-0.4,0.3-0.7,0.5
	c-4.9,3.3-9.6,7-14,11c-3.1,2.8-6,5.9-8.9,8.9c-2.7,2.8-5,5.9-7.2,9.1c-6.5,10.1-10.6,21.1-12.9,32.8c-0.7,3.4-1.2,6.9-1.5,10.4
	c-0.3,3-0.5,6-0.5,9c-0.1,2.8,0,5.6,0.1,8.4c0.1,2.7,0.4,5.4,0.7,8.1c0.4,3.1,0.9,6.2,1.5,9.2c1.4,6.9,3.7,13.6,6.3,20.2
	c0.9,2.3,2.1,4.5,3.3,6.6c0.4,0.7,0.8,1.4,1.3,2.1c1.6,2.2,3.2,4.4,4.8,6.6c1,1.3,2.1,2.4,3.4,3.5c0.5,0.4,0.9,0.8,1.4,1.2
	c0.7,0.7,1.5,1.4,2.3,2c0.1,0.1,0.3,0.3,0.4,0.1c-0.4-0.7-0.8-1.3-1.3-1.9c-1.4-1.6-2.7-3.3-4-5c-0.9-1.2-1.7-2.4-2.5-3.7
	c-0.5-0.8-1-1.6-1.5-2.3c-0.5-0.7-0.9-1.4-1.2-2.1c-1-2.2-2-4.4-2.9-6.7c-0.8-2.1-1.5-4.2-2.1-6.4c-0.6-2.2-1.1-4.4-1.7-6.6
	c-0.7-2.5-1.2-5.1-1.6-7.6c-0.4-2.3-0.7-4.7-1.1-7c-0.4-2.9-0.7-5.8-0.9-8.7c-0.2-3-0.3-5.9-0.3-8.9c0-4.7,0.3-9.4,0.9-14
	c0.5-3.8,1.2-7.6,2.2-11.4c2.2-8.4,5.5-16.4,10-23.8c4.8-7.8,10.7-14.6,17.5-20.6c7-6.2,14.7-11.4,23-15.6c0.8-0.4,1.7-0.8,2.6-1.2
	c1.4-0.8,2.9-1.4,4.4-2.1c2-0.9,4.1-1.8,6.2-2.5c1.7-0.6,3.5-1,5.3-0.9c1.1,0,2.2,0.3,3.3,0.8c1.2,0.6,2.2,1.3,2.9,2.3
	c0.1,0.1,0.6,1.1,0.5,1.4c-0.3,0.1-0.6,0.2-0.9,0.2c-5,1-9.8,2.4-14.5,4.2c-0.2,0.1-0.4,0.2-0.7,0.2c-0.1,0.1-0.2,0.1-0.4,0.2
	c-10.3,4.1-19.7,9.8-28,17.3c-9.9,8.9-17.4,19.6-22.1,32.1c-2.3,6.1-3.9,12.3-4.9,18.7c-0.4,2.5-0.7,5-0.9,7.5
	c-0.3,3.4-0.5,6.8-0.5,10.2c-0.1,4,0.1,8,0.5,12c0.2,2.3,0.5,4.6,0.9,6.9c1.1,6,2.8,11.7,5.2,17.3c3.6,8.3,8.4,15.8,14.4,22.6
	c2.5,2.9,5.2,5.6,8.1,8c2.2,1.8,4.5,3.4,6.8,5.1c2.4,1.7,4.8,3.5,7.1,5.5c0.3,0.3,0.6,0.5,0.9,0.6c4.2,2.3,8.4,4.7,12.6,7
	c6.3,3.5,12.9,6.3,19.8,8.4c4.5,1.4,9.1,2.5,13.8,3.3c2.3,0.4,4.6,0.7,6.9,1c1.9,0.2,3.8,0.4,5.8,0.5c3.2,0.2,6.4,0.4,9.7,0.3
	c2-0.1,4.1-0.1,6.1-0.3c2.3-0.2,4.5-0.4,6.8-0.7c3.7-0.5,7.4-1.2,11.1-2.2c7.4-1.9,14.4-4.6,21.1-8.4c4.1-2.3,8-4.9,11.5-8.1
	c0.2-0.2,0.5-0.4,0.7-0.6c1.3-0.9,2.4-2.1,3.6-3.2c5-4.8,9.2-10.2,12.4-16.2c0.9-1.7,1.7-3.3,2.4-5c0.5-1.3,0.9-2.6,1-4
	c0-0.3,0.1-0.6,0.1-0.9c0.1-0.4,0.2-0.9-0.1-1.3c-0.2,0-0.4-0.1-0.5-0.1c-0.1,0.1-0.2,0.3-0.2,0.4c0.1,0.6-0.1,1.1-0.3,1.6
	c-0.6,1.5-1.2,3-1.9,4.5c-1.7,3.3-3.6,6.4-6,9.3c-0.1,0.1-0.2,0.3-0.4,0.4c-0.2,0.3-0.4,0.5-0.7,0.8c-3.2,3.5-7,6.5-10.9,9.2
	c-6.7,4.6-14,8-21.9,10.1c-2.5,0.6-4.9,1.2-7.5,1.5c-1.6,0.2-3.2,0.5-4.7,0.7c-2,0.3-4,0.5-6.1,0.7c-1.8,0.2-3.6,0.2-5.4,0.3
	c-4.2,0.2-8.3,0.1-12.5-0.2c-3.7-0.2-7.4-0.7-11-1.5c-3.9-0.8-7.7-2-11.3-3.6c-2.3-1-4.5-2.3-6.8-3.4c-2.2-1.2-4.4-2.5-6.4-3.9
	c-1.6-1.1-3.1-2.3-4.6-3.5c-5.7-4.5-10.7-9.7-14.8-15.8c-1.6-2.4-3.2-4.9-4.8-7.3c-0.9-1.3-1.6-2.7-2.3-4.1
	c-0.8-1.7-1.6-3.4-2.5-5.1c-1-2.1-1.9-4.2-2.6-6.4c-0.2-0.5-0.3-1.1-0.5-1.6c-0.1-0.2-0.1-0.5-0.4-0.6c0,0-0.1,0-0.2,0
	c-0.1,0-0.1,0.1-0.1,0.1c-0.1,0.2,0,0.5,0,0.7c0.4,2.1,0.8,4.3,1.5,6.3c1.5,4.1,3.4,8,5.5,11.9c1.2,2.3,2.7,4.5,4.1,6.7
	c1.8,2.7,3.6,5.4,5.8,7.9c2,2.2,3.9,4.4,6.1,6.4c0.4,0.4,0.9,0.8,1.3,1.2c1.9,2,4.1,3.7,6.4,5.2c2.1,1.4,4.2,2.8,6.3,4.2
	c2.7,1.7,5.5,3.1,8.5,4.2c2,0.7,4,1.4,6,2.1c1,0.3,1.9,0.7,2.9,0.9c3.5,1,7.2,1.6,10.8,2.1c0.9,0.1,1.8,0.2,2.7,0.2
	c1.5,0.1,3,0.3,4.6,0.3c2,0.1,4,0.1,6,0c2.5,0,5-0.3,7.5-0.5c2.4-0.3,4.8-0.6,7.2-0.9c3.4-0.5,6.8-1.1,10.2-1.9
	c0.6-0.1,1.2-0.4,1.9-0.3c0,0.2-0.2,0.3-0.3,0.4c-1.1,0.7-2.3,1.2-3.5,1.7c-2.4,0.9-4.8,1.5-7.2,2c-2.3,0.5-4.6,0.9-6.9,1.3
	c-1.8,0.3-3.6,0.6-5.4,0.8c-3.5,0.4-7,0.4-10.5,0.3c-1.5,0-2.9,0-4.4,0c-2.8,0-5.6-0.2-8.3-0.5c-1.2-0.1-2.4-0.3-3.6-0.4
	c-0.2,0-0.3,0-0.5-0.2c-0.2,0-0.4-0.1-0.7-0.1c-0.1,0-0.2-0.1-0.2-0.2l0,0c-0.1,0.1-0.3,0-0.4,0c-1-0.2-2-0.5-3-0.7
	c-3.2-0.8-6.3-1.8-9.3-3.2c-0.5-0.3-1.1-0.5-1.6-0.7c-3.2-1.3-6.2-3-9-4.9c-1.4-1-2.8-2-4.2-2.9c-1-0.7-1.9-1.5-2.8-2.3
	c-0.5-0.6-1.1-1.1-1.7-1.6c-0.7-0.6-1.4-1.2-2.1-1.9c-1.2-1.3-2.3-2.6-3.5-3.8c-4.9-5.3-9.1-11.2-13-17.3c-4.2-6.5-4.7-8.2-6.6-14.2
	c-1-3.1-1.8-6.2-2.8-9.3c-0.5-1.6-0.9-3.3-1.1-4.9c-0.4-2.5-0.6-5.1-0.7-7.6c-0.1-3-0.1-5.9-0.1-8.9c0-1.1,0-2.2,0.1-3.4
	c0.1-0.5,0.2-1.1,0.3-1.6c0.1-0.4,0.1-0.8-0.1-1.1c-0.1,0.1-0.1,0.1-0.1,0.1c-0.1,0.1-0.1,0.2-0.2,0.4c-0.6,1.9-1,3.9-1,5.9
	c0,1.6-0.1,3.1-0.1,4.7c-0.1,3.4,0,6.8,0.4,10.3c0.4,3.2,0.8,6.3,1.4,9.4c0.5,2.6,1,5.2,1.8,7.7c0.7,2.2,1.4,4.3,2.4,6.4
	c0.9,1.7,1.7,3.4,2.5,5.1c1.3,2.9,2.9,5.7,4.5,8.4c0.8,1.3,1.7,2.6,2.7,3.8c1.6,2.1,3.3,4.2,4.9,6.3c0.4,0.3,0.6,0.8,1,1.2
	c2.4,2.9,5,5.6,7.9,8c0.8,0.6,1.5,1.3,2.2,2c1.9,1.9,4,3.6,6.3,5c0.2,0.1,0.4,0.3,0.6,0.4c0.1,0.1,0.2,0.1,0.2,0.2
	c-0.1,0.2-0.2,0.1-0.4,0c-0.6-0.1-1.1-0.4-1.7-0.7c-2.6-1.3-5.1-2.6-7.7-4c-2.1-1.1-3.9-2.5-5.6-4.1c-2.2-2.1-4.3-4.1-6.4-6.2
	c-1.6-1.6-2.8-3.3-4-5.2c-0.8-0.8-1.5-1.7-2.1-2.6c-6.6-10.2-11.3-21.3-13.7-33.2c-0.5-2.6-0.9-5.1-1.1-7.7
	c-0.1-1.2-0.2-2.4-0.3-3.7c-0.2-2.8-0.3-5.5-0.2-8.3c0.1-1.9,0.3-3.9,0.5-5.8c0.2-2.2,0.5-4.3,0.9-6.4c0.5-2.8,1.2-5.6,1.9-8.4
	c0-0.1,0.1-0.3,0.1-0.4s-0.1-0.3-0.2-0.3c-0.1-0.1-0.3,0-0.4,0.1c-0.2,0.2-0.2,0.5-0.3,0.7c-0.4,1.3-0.8,2.7-1.2,4
	c-1.2,3.6-2.1,7.2-2.7,10.9c-0.5,3.2-0.9,6.4-1,9.7c-0.1,3-0.1,6,0.2,8.9c0.1,1.8,0.3,3.5,0.6,5.3c0.3,1.9,0.6,3.7,0.9,5.6
	c0.3,1.6,0.5,3.1,0.9,4.7c0.7,3.2,1.8,6.3,2.8,9.4c0.3,0.7,0.5,1.5,0.7,2.2l0.2,0.5c0.7,1.5,1.5,3,2.2,4.6c1.2,2.8,2.6,5.6,4,8.3
	c0.5,0.9,1,1.8,1.6,2.6c0.5,0.7,0.9,1.4,1.3,2.2c0.1,0.1,0.1,0.2,0,0.3c-0.1,0-0.2,0-0.3,0c-1.3-0.9-2.7-1.8-3.6-3.1
	c-0.8-1-1.6-1.9-2.4-2.9c-1.1-1.3-1.9-2.8-2.7-4.3c-0.7-1.5-1.4-3-2.2-4.5c-1.7-3.2-3-6.5-4.2-9.9c-0.1-0.1-0.1-0.3-0.1-0.4
	l-0.4-1.2c-1.4-4-2.4-8.1-3.2-12.3c-0.4-2.3-0.7-4.6-0.9-7c-0.1-1.4-0.2-2.8-0.2-4.2c-0.3-6.6,0-13.2,1.3-19.7
	c0.8-4.3,2.1-8.5,3.9-12.5c0.2-0.5,0.4-1,0.6-1.5c1.8-5.5,4.3-10.8,7.7-15.5c0.4-0.6,0.8-1.2,1-1.9c0-0.1,0.1-0.3,0-0.4
	c-0.4,0.1-0.7,0.5-1,0.8c-0.5,0.7-1.1,1.3-1.6,2c-2.6,3.7-4.8,7.7-6.7,11.8c-0.7,1.4-1.2,2.9-1.9,4.3c-1.4,3-2.4,6.1-3.2,9.3
	c-0.7,3-1.3,6-1.7,9.1c-0.4,2.7-0.7,5.3-0.9,8c-0.3,3-0.3,6-0.3,9.1c0,2.8,0.3,5.5,0.7,8.2s0.8,5.4,1.3,8.1c0.3,1.4,0.6,2.8,1,4.1
	c0.4,1.4,0.8,2.8,1.2,4.2c0.4,1.4,0.9,2.7,1.3,4.1c-0.4-0.1-0.5-0.3-0.6-0.5c-2.9-4.6-5-9.5-6.4-14.8c-0.4-1.6-0.8-3.2-1.2-4.8
	c-0.1-0.4-0.1-0.9-0.2-1.3c-0.5-1.7-0.8-3.5-1-5.3c-0.4-3.3-0.5-6.6-0.3-9.9c0.1-1.8,0.2-3.5,0.3-5.3c0.1-2.3,0.4-4.7,0.7-7
	c0.4-3.2,1.1-6.3,1.8-9.4c0.5-2.1,1-4.1,1.9-6.1c1-2.3,2.1-4.5,3.1-6.8c2-4.5,4.5-8.6,7.6-12.5c0.7-0.9,1.4-1.9,2.1-2.9
	s1.4-2,2.5-2.6c0-0.2,0.1-0.3,0.3-0.5c0.3-0.3,0.7-0.6,0.8-1c0.1-0.1,0.2-0.2,0.1-0.3c-0.1-0.1-0.2,0.1-0.3,0.1
	c-0.4,0.2-0.7,0.5-1,0.8c-0.6,0.5-1.1,0.9-1.7,1.4c-1.1,1.2-2.3,2.5-3.3,3.7c-2.8,3.3-5.2,6.9-7.2,10.7c-1.6,3-3.1,6-4.6,9.1
	c-1,2.2-1.7,4.4-2.5,6.6c-1.2,3.5-2.2,7-2.9,10.6c-0.4,2.1-0.7,4.1-0.9,6.2c-0.1,0.6-0.1,1.1-0.2,1.7c0,0.8,0,1.6-0.1,2.3
	c-0.1,1.1-0.1,2.3-0.2,3.4c-0.1,2.8,0,5.6,0.2,8.4c0,0.7,0.1,1.4,0.2,2.1c0,0.2,0.1,0.3-0.1,0.5c-0.3-0.1-0.3-0.4-0.3-0.7
	c-0.3-1.3-0.6-2.5-0.8-3.8c-0.4-2.2-0.8-4.5-1-6.7c-0.1-1.4-0.3-2.8-0.2-4.2c-0.1-2.2-0.1-4.4,0.1-6.6c0.1-0.8,0.2-1.6,0.2-2.4
	c0.1-2.9,0.7-5.8,1.3-8.6c1.4-5.9,3.5-11.6,6-17.1c1.3-2.7,2.8-5.3,4.3-7.8c1.1-1.9,2.2-3.7,3.5-5.5c0.2-0.3,0.4-0.6,0.7-0.8
	c0.4-0.7,0.9-1.4,1.3-2.1c0.5-0.7,1-1.3,1.6-1.9c0.5-0.4,0.9-0.9,1.2-1.4c0,0,0-0.1,0-0.2c0,0-0.1-0.1-0.2,0
	c-0.4,0.1-0.6,0.4-0.9,0.6c-1.3,1.1-2.6,2.4-3.7,3.7c-0.7,0.9-1.5,1.7-2.2,2.6c-2.8,3.4-5.1,7.2-7.4,10.9c-2,3.2-3.6,6.7-5,10.2
	c-0.7,1.8-1.3,3.6-1.7,5.5c-0.1,0.3-0.1,0.7-0.4,1c-0.2-0.4-0.1-0.7,0-1c0.7-4.1,1.5-8.3,2.8-12.3c1.5-4.6,3.7-8.8,6.6-12.6
	c0.1-0.1,0.1-0.1,0.2-0.2c0-0.4,0.2-0.6,0.4-0.9c1.3-1.6,2.5-3.2,3.8-4.8c1.1-1.3,2.4-2.4,3.8-3.4c1.1-0.7,2.2-1.4,3.4-2
	c0.6-0.3,1.2-0.6,1.8-0.9c1.4-0.8,2.8-1.4,4.4-1.8c0.8-0.2,1.6-0.5,2.4-0.9c2.3-0.9,4.7-1.3,7.2-1.6c1.8-0.2,3.6,0.1,5.4,0.1
	c0.3,0,0.5,0.1,0.8,0.2c0.5,0.3,0.6,0.5,0.1,0.9c-2.4,1.8-4.4,4.1-6.3,6.5c-0.4,0.4-0.7,0.9-0.6,1.5c0.2,0,0.4-0.2,0.6-0.3
	c2.4-2.4,5.1-4.5,7.7-6.6c0.2-0.2,0.5-0.4,0.8-0.5c0.2-0.1,0.5-0.1,0.7,0c0.6,0.3,1.3,0.5,1.9,0.8c0.3,0.1,0.3,0.4,0,0.6
	c-0.1,0.1-0.3,0.3-0.5,0.4c-3.1,2.7-5.9,5.6-8.6,8.7c-0.3,0.3-0.5,0.6-0.8,0.9c-0.2,0.4-0.5,0.7-0.7,1.1c-1.6,1.9-3,4-4.4,6.1
	c-0.3,0.5-0.7,1.1-0.9,1.7c-0.1,0.2-0.1,0.4-0.1,0.6c0.3-0.1,0.4-0.4,0.6-0.6c1.3-1.6,2.6-3.2,4-4.8c1-1.2,2.1-2.3,3.3-3.3
	c0.6-0.8,1.3-1.5,2-2.1c2.6-2.3,5.1-4.7,7.7-7c0.1-0.1,0.3-0.2,0.4-0.3c0.2-0.1,0.5-0.2,0.7,0c0.4,0.3,0.9,0.5,1.3,0.7
	c0,0.2-0.1,0.3-0.1,0.4c-2.7,2.7-5.2,5.5-7.8,8.3c-0.2,0.2-0.3,0.4-0.5,0.4c-0.2,0.4-0.5,0.7-0.7,1c-2.6,3-4.9,6.2-7,9.5
	c-1.2,1.9-2.2,3.9-3.2,5.9c-0.1,0.3-0.3,0.7-0.3,1.1c0,0.1,0,0.2,0.1,0.2c0.1,0,0.1,0,0.2-0.1c0.4-0.3,0.6-0.7,0.8-1.2
	c0.6-1.1,1.3-2.2,2-3.3c1.7-2.5,3.4-4.9,5.3-7.2c1.5-1.9,3.1-3.7,4.8-5.4c0.3-0.4,0.7-0.9,1-1.2c2-2.1,4.1-4.2,6.1-6.2
	c2.2-2.2,4.5-4.3,7-6.2c0.1-0.1,0.3-0.2,0.4-0.3c0.2-0.1,0.4-0.1,0.6,0c0.1,0.1,0.2,0.1,0.3,0.2c0.9,0.8,1,0.7,0,1.4
	c-1.1,0.8-2,1.7-3,2.6c-1.2,1.2-2.1,2.5-2.8,4.1c-0.5,1.2-1.3,2.3-2.4,3.1c-1.5,1.1-3,2.3-4.4,3.6c-0.1,0.1-0.1,0.2-0.2,0.2
	c-1.6,1.5-3,3.2-4.4,4.8c-1.3,1.5-2.5,3.1-3.5,4.9c-1.1,1.9-2.1,3.8-3.1,5.7c-1.7,3.7-3.1,7.5-3.8,11.5c-0.3,1.8-0.6,3.7-0.8,5.5
	c-0.3,2.4-0.5,4.8-0.5,7.2c-0.1,3.5,0.1,7.1,0.2,10.6c0,1.4,0.3,2.7,0.6,4c0.1,0.4,0.1,0.8,0.5,1.1c0.1-0.5,0.1-0.9,0-1.2
	c-0.2-0.8-0.1-1.7-0.2-2.5c0-1.3,0-2.6,0-3.9c0-4.9,0.1-9.8,0.8-14.6c0.4-2.5,0.8-5,1.5-7.5c0.9-2.8,2-5.6,3.1-8.4
	c0.8-2.1,1.8-4.1,3-6c2.3-3.5,4.9-6.7,7.9-9.7c0.5-0.5,1.1-1.1,1.8-1.5c0.4-0.6,1-1,1.6-1.4c0.5-0.4,1-0.7,1.5-1
	c1.3-0.8,2.2-1.9,2.8-3.3c0.5-1.3,1.2-2.5,2.1-3.6c1.1-1.4,2.3-2.5,3.7-3.4c0.5-0.3,1.1-0.5,1.7-0.4c1.4,0.2,2.5-0.2,3.2-1.5
	c0.3-0.6,0.8-0.9,1.5-1c1.2-0.2,2.4-0.4,3.6-0.6c1.3-0.2,2.5,0.1,3.6,1c0,0.2-0.2,0.2-0.3,0.2c-3.6,0-6.9,0.9-10,2.5
	c-2.7,1.4-4.6,3.5-5.8,6.3c-0.4,1-0.7,2-1,3c-0.1,0.3-0.1,0.6-0.2,0.9c-0.2,0.5-0.4,0.8-0.9,1.1c-0.3,0.1-0.6,0.3-0.9,0.5l-0.6,0.3
	c-0.1,0.1-0.3,0.2-0.5,0.3l-0.7,0.5c-1.1,0.7-2.2,1.4-3.3,2.1c-0.1,0.1-0.3,0.2-0.4,0.2c-0.1,0.2-0.3,0.4-0.5,0.5
	c-0.6,0.5-1.2,1-1.8,1.5c-0.8,0.9-1.6,1.7-2.3,2.7c-1.2,1.7-2.3,3.4-3.3,5.2c-1.3,2.5-2.4,5.1-3,7.8c-0.1,0.2-0.1,0.5-0.1,0.7
	c0,0.1,0,0.1,0.1,0.2s0.2,0,0.3-0.1c0.1-0.1,0.1-0.1,0.1-0.2c0.5-1.4,1.3-2.7,1.9-4.1c1.2-2.6,2.8-5,4.5-7.2
	c2.5-3.1,5.4-5.7,8.8-7.6l0.2-0.1c0.7-0.4,1.3-0.8,2-1.1c0.6-0.3,1.1-0.6,1.8-0.7c0.2-0.1,0.4-0.2,0.5-0.3l0.2-0.1
	c0.8-0.4,1.2-1.2,1.3-2c0.1-0.4,0.1-0.9,0.2-1.3c0.2-2,0.9-3.7,2.5-4.9c0.1-0.1,0.2-0.1,0.2-0.2c2.4-2.3,5.4-3.2,8.6-3.5
	c2-0.2,3.9,0,5.9,0.2c0.9,0.1,1.5,0.7,2,1.4c0.1,0.2,0.1,0.4-0.2,0.4c-1,0-2,0-2.9,0c-2.7,0.1-5.3,0.5-7.8,1.6
	c-0.7,0.3-1.3,0.7-1.9,1.1c-1.6,1.3-2.3,2.9-2.4,5c0,0.4,0,0.7,0,1.1c0,0.9-0.4,1.5-1.3,1.9c-0.2,0.1-0.4,0.1-0.6,0.2
	c-0.5,0.4-1,0.7-1.6,0.9c-0.8,0.4-1.6,0.7-2.4,1.1c-1.3,0.7-2.6,1.5-3.8,2.3l-0.6,0.4c-0.4,0.3-0.8,0.6-1.2,0.9l-0.5,0.4
	c-0.5,0.4-1,0.7-1.4,1.1c-0.1,0.1-0.1,0.1-0.2,0.2l-0.5,0.5c-0.5,0.5-1,1-1.5,1.5l0,0l-0.7,0.8c-1.5,1.7-2.7,3.6-3.7,5.6l0,0
	c-0.1,0.1-0.2,0.3-0.2,0.5c-1.2,2.6-1.8,5.3-1.7,8.2c0.1,1.2,0.5,2.1,1.3,2.9l1,0.7c0.3,0.2,0.6,0.3,0.9,0.6c0.5,0.4,0.7,1,0.6,1.6
	c-0.1,0.5-0.3,0.9-0.4,1.4c-0.3,0.9-0.7,1.8-1,2.7c-1.6,4.7-2.6,9.5-2.9,14.4c-0.2,2.9-0.1,5.8,0.3,8.6c0.4,3.2,1.1,6.4,2.2,9.4
	c2.9,8.2,7.4,15.5,13.5,21.7c7.8,7.9,16.9,13.6,27.2,17.3c4,1.4,8.2,2.5,12.4,3.1c2.2,0.3,4.3,0.5,6.5,0.7c3.4,0.2,6.7,0,10.1-0.3
	c2.7-0.3,5.3-0.7,8-1.1c3.9-0.6,7.7-1.3,11.5-2.2c9-2.2,17.3-5.8,25.1-10.8c6.7-4.3,12.3-9.7,16.8-16.4c1.4-2.1,2.4-4.2,3.1-6.6
	c0.1-0.2,0.1-0.4,0.1-0.6c0-0.1-0.1-0.2-0.1-0.2c-0.1-0.1-0.2,0-0.3,0.1s-0.2,0.3-0.3,0.4c-0.3,0.4-0.5,0.9-0.8,1.3
	c-2.2,3.7-4.9,6.9-8,9.8c-4.6,4.2-9.8,7.4-15.6,9.8c-3.8,1.6-7.6,2.7-11.6,3.4l-0.4,0.1c-1.3,0.2-2.5,0.4-3.8,0.5h-0.4
	c-1.3,0.1-2.7,0.3-4,0.3c-1.1,0-2.3,0-3.4-0.1l-1.4-0.1c-0.9-0.1-1.8-0.2-2.7-0.3l-0.7-0.1c-0.6-0.1-1.3-0.2-1.9-0.3l-0.9-0.2
	c-0.3-0.1-0.7-0.1-1-0.2c-0.5-0.1-1.1-0.3-1.6-0.5l0,0c0,0,0,0-0.1,0c-4.8-1.5-9.2-3.7-13.1-7c-1.2-1-2.3-2.3-3-3.7
	c-1.1-2.1-2-4.3-2.3-6.7c-0.1-0.8-0.5-1.5-1.1-2c-0.6-0.5-1.1-1.1-1.6-1.7c-1.8-2-2.9-4.3-3.4-6.9c-0.5-2.5-0.3-4.9,0.2-7.4
	c0.2-0.9,0.4-1.7,0.9-2.5c1.4-2.4,3.3-4.2,5.9-5.2c1.1-0.5,2.3-0.7,3.6-0.8c1.5-0.1,2.8-0.7,3.7-2c0.1-0.1,0.2-0.2,0.3-0.3
	c0.9-1.1,2.1-1.7,3.5-1.8c2-0.2,3.8,0.3,5.6,1.1c1.5,0.7,2.8,1.6,4.1,2.7c0.2,0.2,0.5,0.4,0.7,0.6c1.1,0.8,2.4,0.4,2.8-0.9
	c0.2-0.5,0.2-1,0.3-1.5c0-1-0.1-1.9-0.3-2.8c-0.6-2.6-1.6-5-3-7.3c-0.4-0.6-0.9-1.2-1.3-1.8c-1.9-2.4-4.1-4.5-6.6-6.3
	c-4.4-3.2-9.3-4.7-14.7-5.2c-2.1-0.2-4.1-0.3-6.2-0.3c-3.6-0.1-7.1,0.2-10.6,0.9c-7,1.4-13.4,4-19.2,8.2c-5.6,4-10.3,9-14.1,14.6
	c-1.6,2.3-2.8,4.7-3.9,7.2c-0.2,0.5-0.5,1-0.7,1.5c0,0-0.1,0.1-0.2,0.1l-0.1-0.1c-0.3-1.2-0.4-2.3-0.4-3.5c-0.1-2.8-0.1-5.5,0.1-8.2
	c0.3-3.3,1-6.5,2.1-9.6c0.4-1.1,0.9-2.1,1.3-3.2c0.4-1,0.7-1.9,0.8-2.9c0.1-1.2-0.3-2.1-1.4-2.7c-0.4-0.2-0.9-0.5-1.3-0.9
	c-0.1-0.1-0.2-0.2-0.3-0.3l-0.3-0.3c-0.4-0.4-0.7-0.9-0.9-1.4c0,0-0.2-0.6-0.2-0.8c-0.1-0.4-0.1-0.8-0.1-1.2v-0.3
	c0.1-0.7,0.2-1.4,0.4-2.1c0.2-0.7,0.5-1.3,0.7-2c0.2-0.7,0.5-1.3,0.7-1.9c0.1-0.2,0.8-1.5,0.8-1.5c0.2-0.4,0.5-0.8,0.7-1.2l0.1-0.1
	c0.1-0.1,0.2-0.2,0.3-0.3v-0.1c0.7-0.9,1.4-1.8,2.2-2.6l0.3-0.3c0.2-0.2,0.4-0.3,0.6-0.5l0.3-0.2c0.4-0.4,0.8-0.7,1.3-1.1
	c2.5-1.8,5.1-3.3,7.9-4.6c1.5-0.7,3-1.3,4.4-2c0.3-0.2,0.7-0.3,1-0.5c0.6-0.4,0.9-0.9,0.9-1.6c0-0.2-0.1-0.4-0.1-0.6
	c-0.1-0.7-0.1-1.4-0.1-2.1c0.1-1,0.4-1.9,1.1-2.6c1.1-1.1,2.4-1.9,4-2.1c1.3-0.2,2.7-0.4,4-0.5c1.5-0.1,3-0.1,4.6,0
	c1.1,0.1,2,0.7,2.6,1.6c1.2,1.9,2.4,3.9,3.3,5.9c0.2,0.4,0.3,0.7,0.6,1.1c0.4,0.5,0.9,0.9,1.5,1c1.2,0.2,2.3-0.1,3.1-1.1
	c0.2-0.3,0.4-0.6,0.7-0.9c0.8-1,1.1-1.1,2.2-0.3c0.1,0,0.1,0.1,0.2,0.1c1.4,1.1,2.5,2.4,3.5,3.9c1.9,3,3.8,6.1,5.5,9.3
	c0.6,1,1.2,2.1,1.8,3.1c0.1,0.2,0.3,0.4,0.4,0.6c0.6,0.6,1.3,0.6,1.9,0.1c0.2-0.1,0.3-0.3,0.5-0.5c0.6-0.7,1-1.5,1.2-2.4
	c0.4-2,0.4-3.9,0.1-5.9c-0.3-2.1-1-4.1-1.9-6.1c-1.1-2.6-2.5-5-4-7.4c-3.8-6.2-8.6-11.3-14.7-15.3c-3.2-2.1-6.6-3.7-10.1-5.2
	c0,0-0.1,0-0.1-0.1h-0.1c-0.7-0.3-1.4-0.5-2-0.7h-0.1c-1.1-0.4-2.5-0.9-2.5-0.9c-0.4-0.1-0.8-0.2-1.1-0.4l-1-0.3
	c-1.1-0.4-2.3-0.7-3.4-1.1h-0.1c-2-0.5-3.5-0.8-3.5-0.8c-0.7-0.1-1.3-0.2-2-0.3c-1.3-0.2-2.7-0.2-4.1-0.3c-0.7,0-1.4,0-2-0.1
	c-2.4-0.3-4.8-0.6-7.2-0.5c-1.6,0-3.1,0.1-4.7,0.2c-1.6,0.1-3.2,0.4-4.7,0.7c-0.3,0.1-0.6,0.1-0.8,0.3v0.1c0,0.1,0,0.1,0.1,0.1
	c0.4,0,0.7,0.1,1.1,0.1c0.7-0.1,1.4-0.1,2.1-0.2c3.4-0.3,6.8-0.2,10.2,0.2c2.5,0.3,4.9,0.7,7.4,0.9l0.5,0.1c2.3,0.3,4.5,0.7,6.8,1.3
	c7.2,2.1,14,5.1,20.3,9.2c1.5,1,3,2,4.4,3.3c1,0.9,1.9,1.9,2.8,2.9c0,0,2.2,2.5,2.7,3.1l0.1,0.1c2.7,3.5,5,7.2,7,11.2
	c0.8,1.6,1.6,3.2,2.1,5c0.5,1.7,0.7,3.5,0.4,5.2c0,0.2-0.1,0.4-0.2,0.6c-0.1,0.2-0.4,0.3-0.6,0.2c-0.2-0.1-0.4-0.3-0.5-0.5
	c-0.5-0.6-0.9-1.2-1.2-1.9c-0.5-1-1.1-2.1-1.6-3.1c-1.4-2.6-2.9-5-4.8-7.3c-0.5-0.7-1.1-1.3-1.7-1.9l-0.5-0.4l0,0l0,0l0,0
	c-0.6-0.4-1.2-0.8-1.9-1.1c-1.2-0.4-2.3-0.2-3.1,0.8c-0.3,0.3-0.6,0.7-0.9,1.1c-0.2,0.2-0.4,0.5-0.6,0.7c-0.3,0.3-0.6,0.3-0.9-0.1
	c-0.2-0.3-0.4-0.6-0.5-1c-0.2-0.4-0.4-0.8-0.6-1.2l0,0l0,0c-1-2-2.2-3.9-3.6-5.6c-2.2-2.7-4.7-5.2-7.5-7.3c-1.3-1-2.7-1.9-4.2-2.7
	c-0.8-0.4-1.7-0.8-2.6-1c-2.1-0.5-3.9-0.1-5.3,1.6c-0.3,0.4-0.7,0.8-1,1.3c-0.2,0.2-0.3,0.4-0.5,0.7c-0.5,0.7-0.8,0.7-1.6,0.4
	c-0.9-0.3-1.7-0.8-2.4-1.4c-1.1-0.9-2.3-1.6-3.6-2.1c-1.2-0.5-2-0.2-2.7,0.8c-0.4,0.6-0.7,1.2-1,1.9c-0.2,0.4-0.4,0.9-0.6,1.3
	c-0.3,0.6-0.9,0.9-1.6,0.9c-1,0-1.8-0.4-2.5-1c-1.5-1.2-3.2-2-4.9-2.8c-3.8-1.7-7.7-2-11.7-1.2c-1.6,0.3-3.1,0.8-4.7,1.3
	c-4.4,1.3-8.4,3.3-12.2,5.6c-0.8,0.5-1.6,1.1-2.4,1.7c-2.5,1.9-4.5,4.1-6.4,6.5c-2.1,2.7-4.1,5.4-5.5,8.5c-0.1,0.3-0.3,0.6-0.6,0.8
	c0-0.4,0.1-0.7,0.2-1c0.2-0.5,0.4-1,0.5-1.4c2.3-6.6,5.2-12.9,8.9-18.9c6.4-10.4,14.7-19,25.1-25.6c6.9-4.4,14.4-7.6,22.2-9.8
	c2.1-0.6,4.3-1.2,6.5-1.6c1.3-0.2,2.6-0.3,3.9-0.8c0.3-0.1,0.6,0,0.8,0.2c0.2,0.2,0.3,0.4,0.5,0.6c1,1.2,1.9,2.5,2.9,3.7
	c0.4,0.5,0.9,1.1,1.3,1.5c0.6,0.6,1.3,1,2,1.3c1.1,0.4,2.1,0.1,2.8-0.7c0.3-0.3,0.5-0.7,0.7-1c0.5-0.8,1-1.6,1.5-2.4
	c0.3-0.5,0.7-0.9,1-1.3c1.5-1.4,3.2-1.9,5.2-1.6c1,0.2,2,0.5,2.9,1c0.8,0.4,1.4,0.9,2.1,1.5c0.7,0.7,1.2,1.4,1.7,2.2
	c1.2,2,2.4,4,3.4,6.1c0.3,0.7,0.7,1.4,1.3,2c0.5,0.5,1,0.8,1.6,1c0.4,0.1,0.8,0.1,1.2,0l0.3-0.1c0.4-0.1,0.7-0.3,1.1-0.6l0,0
	c0.6-0.7,0.7-1.1,0.7-1.1c0.2-0.5,0.2-1,0.2-1.5c0-2.4-0.4-4.7-1-7c-0.2-0.9-0.5-1.9-0.9-2.8c0,0-4.6-14.9-21.3-30.7
	c0,0-10.4-10.7-27.6-15.1c0,0-3.1-0.9-3.4-0.4c0,0,0,0.3,0.4,0.4c0.4,0.1,8.9,3.1,17.1,8.8c0,0,13.3,7.6,25.4,26.9
	c0,0,3.3,5.9,4.4,8.1v0.2c0.9,1.8,1.7,3.8,1.7,3.8c0.1,0.2,0.2,0.4,0.3,0.6c0.6,1.6,0.9,3.2,1.2,4.8c0,0.1,0.1,0.3-0.1,0.3
	c-0.1,0-0.1-0.1-0.2-0.1c-0.7-1.3-1.5-2.5-2.2-3.8l-0.2-0.4c-1.1-2.1-2.6-3.7-4.4-5.1c-1.8-1.3-3.7-2.2-6-2.4c-0.3,0-0.6,0-0.9-0.1
	h-0.2c-1.3,0-2.6,0.2-3.8,0.9c-2,1.1-3.4,2.7-4.3,4.7c-0.2,0.4-0.3,0.9-0.5,1.3c-0.1,0.3-0.1,0.8-0.5,0.8c-0.4,0-0.5-0.4-0.7-0.7
	c0,0,0-0.1-0.1-0.1c-1.4-2.4-3.1-4.5-4.7-6.6c-1.6-2.1-3.4-4.2-5.5-5.9c-0.2-0.2-0.4-0.4-0.6-0.6c-0.6-0.6-1.2-1.2-1.9-1.7
	c-1.8-1.4-3.7-2.7-5.7-3.9s-4-2.2-6.2-3c-2.3-0.9-4.7-1.4-7.2-1.3c-3.2,0.1-5.7,1.4-7.7,3.9c-0.8,1-1.3,2.1-1.8,3.3
	c-0.2,0.6-0.5,1.3-0.7,1.9c-0.3,0.7-0.5,0.7-1.1,0.3c-0.9-0.6-1.7-1.3-2.3-2.1c-0.6-0.9-1.4-1.6-2.1-2.3c-0.7-0.7-1.4-1.4-2.1-2.1
	c-0.5-0.5-1-1.1-1.5-1.6c-3.9-3.9-8.5-6.4-14-7.2c-3.1-0.4-6.2-0.1-9.1,0.8c-2.3,0.8-4.5,1.8-6.8,2.8c-2.1,1-4.2,2-6.4,2.9
	c-1.3,0.5-2.7,0.9-4.1,1.1c-2,0.3-4,0.4-6,0.3c-2.4-0.1-4.8-0.1-7.2,0c-3.4,0.2-6.7,0.6-10,1.3c-5,1.1-9.8,2.8-14.3,5.3
	c-4.4,2.5-8.5,5.4-12.4,8.7c-4.1,3.4-7.9,7.1-11.5,11.1c-5.5,6-11.3,11.8-17.3,17.4c-5.4,5.1-10.8,10.2-16.1,15.4
	c-4.6,4.4-9,9-13.3,13.8c-1.6,1.8-3,3.6-4.2,5.6c-0.4,0.7-0.8,1.4-1.3,2.1l-0.5,0.8c-0.1,0.2-0.3,0.5-0.4,0.7l-0.2,0.4
	c-0.1,0.2-0.2,0.3-0.3,0.5l-0.4,0.7c-0.2,0.3-0.3,0.6-0.7,0.8c0-0.2,0-0.3,0-0.4c0.7-2,1.3-4.1,1.9-6.1c4.1-13.9,10.1-26.9,18-39.1
	c8.1-12.5,17.7-23.5,28.9-33.2c3.6-3.1,7.4-6.1,11.3-8.9l0.2-0.1c2.2-1.6,4.4-3.1,6.7-4.5c0.3-0.2,0.7-0.4,1-0.6l1-0.6
	c0.9-0.5,1.7-1,2.6-1.5l0.8-0.4c1-0.6,2-1.1,3-1.7l0.8-0.4c0.3-0.2,0.7-0.3,1-0.5l0.5-0.3c4.3-2.1,8.7-4.1,13.2-5.8l0.4-0.1
	c1.7-0.7,3.5-1.3,5.2-1.9c5.3-1.8,10.7-3.2,16.1-4.5l0.8-0.2c0.3-0.1,0.7-0.2,1.1-0.3c0.4-0.1,0.9-0.2,1.3-0.3l0.2-0.1
	c4.2-0.9,8.4-1.8,12.7-2.6c2.9-0.5,5.7-1,8.6-1.5c1.3-0.2,2.7-0.5,4-0.5c1,0,2.1-0.1,3.1-0.2c1-0.1,2-0.2,3-0.6
	c0.1-0.1,0.3-0.1,0.3-0.4c-1.4-0.1-2.8-0.3-4.2-0.4c-0.2,0-0.4,0-0.6,0c-1.3-0.1-2.7-0.1-4,0c-0.2,0-0.5,0-0.7,0
	c-0.3,0-0.6,0.1-0.9,0.1c-4.4,0.2-8.7,0.3-13.1,0.8c-1.4,0.1-2.7,0.3-4.1,0.5l-0.5,0.1c-0.6,0.1-1.2,0.2-1.8,0.3l-2.3,0.4
	c-0.4,0.1-0.7,0.1-1.1,0.2l-0.5,0.1c-0.6,0.1-1.2,0.2-1.8,0.3l-0.7,0.1c-0.8,0.2-1.7,0.3-2.5,0.5l-0.6,0.1c-1.8,0.4-3.6,0.8-5.4,1.3
	c-3.2,0.9-6.3,1.9-9.4,3l-0.5,0.2c-0.5,0.2-1,0.3-1.5,0.5l-0.5,0.2c-1.2,0.4-2.3,0.9-3.5,1.4l-0.8,0.3c-2.9,1.1-5.7,2.3-8.5,3.7
	l-1.1,0.5c-2.6,1.3-5.2,2.6-7.7,4C335.2,172.3,325.6,179.3,316.7,187.3 M441.4,354.2C441.4,354.2,441.4,354.3,441.4,354.2
	C441.4,354.3,441.3,354.2,441.4,354.2L441.4,354.2 M462.4,327.1c-0.1-1.6-0.3-3.2-0.5-4.9c-0.1-1.2-0.1-2.4,0-3.6
	c0.1-0.7,0.2-1.5,0.1-2.2c-0.3,0-0.3,0.2-0.4,0.3c-0.4,0.9-0.5,1.9-0.7,2.9c-0.2,1.5-0.2,3-0.2,4.6c0,0.2,0.1,0.5-0.1,0.7
	c-0.2,0.1-0.3-0.1-0.3-0.1c-0.5-0.6-0.8-1.4-0.8-2.2c-0.3-3.4,0.3-6.7,1.9-9.8c0.6-1.3,1.3-2.5,2.1-3.7c0.3-0.5,0.6-0.9,1.1-1.2
	c0.1-0.1,0.2-0.2,0.4-0.1c-0.9,3.6-1.5,7.3-1.6,11s0,7.4,0.4,11.1C463.1,329.1,462.5,328.2,462.4,327.1 M477.6,344.1
	c-0.2,0.2-0.4,0-0.7-0.1c-0.8-0.4-1.4-1.1-1.8-1.9c-0.9-1.6-1.7-3.2-2.3-4.8c-1.7-4.1-2.9-8.2-3.6-12.6c-0.2-1.1-0.4-2.1-0.6-3.2
	c0-0.1,0-0.1-0.1-0.2l-0.1-0.1c0,0-0.1,0-0.1,0.1c-0.2,0.3-0.2,0.7-0.2,1.1c-0.1,3.6,0.2,7.2,1.1,10.8c0.3,1.4,0.7,2.8,1,4.1
	c0,0.2,0.1,0.3,0.1,0.5c0,0.1,0,0.1-0.1,0.2c0,0-0.1,0-0.2,0c-0.1-0.1-0.3-0.2-0.4-0.3c-1.4-1.3-2.3-3-2.7-4.8
	c-0.9-3.4-1.6-6.9-1.9-10.5c0-0.6-0.1-1.1-0.2-1.7c-0.2-3.6,0.3-7,1.3-10.4c0.5-1.7,1-3.3,1.5-5c0.2-0.6,0.4-1.1,0.7-1.6
	c0.8-1.4,1.9-2.5,3.2-3.5c0,0.7-0.2,1.2-0.4,1.7c-1,2.4-1.6,4.9-1.9,7.5c-0.1,1-0.3,1.9-0.5,2.9c-0.1,0.3-0.1,0.6,0,0.9
	c0,0.1,0.1,0.2,0.2,0.2c0.1,0,0.2-0.1,0.2-0.1c0.1-0.2,0.2-0.5,0.3-0.8c1-4.7,2.7-9.2,4.7-13.5c0.2-0.4,0.4-0.8,0.6-1.2
	c0.5-0.9,1.1-1.5,2-2c0.2-0.1,0.4-0.3,0.5-0.1c0.2,0.1,0,0.4,0,0.5c-0.2,0.5-0.4,0.9-0.6,1.4c-1.3,2.9-2.2,6-2.9,9.1
	c-0.4,1.7-0.8,3.4-1.1,5.1c-0.6,3.5-0.8,7-0.4,10.5c0.1,1.1,0.2,2.3,0.3,3.4c0.5,4.9,1.5,9.6,3.6,14c0.6,1.3,1.1,2.6,1.7,3.9
	C477.6,343.8,477.7,344,477.6,344.1 M490.4,352.1c-0.2-0.2-0.4-0.4-0.6-0.7c-0.9-0.9-1.6-1.9-2.3-3c-2.5-4-4.7-8-6.4-12.4
	c-1.3-3.2-2.1-6.5-2.8-9.9c-0.1-0.5-0.2-1.1-0.3-1.6c0-0.1-0.1-0.2-0.2-0.2c-0.1,0-0.2,0.1-0.2,0.2c-0.1,0.3-0.1,0.7-0.1,1
	c0.1,2.4,0.6,4.8,1.1,7.1c1,3.9,2.4,7.7,4.1,11.4c0.6,1.4,1.3,2.7,1.9,4c0.1,0.1,0.1,0.2,0.2,0.4c0,0.1,0.1,0.2,0,0.3
	c-0.1,0.1-0.2,0.1-0.3,0c-0.6-0.3-1.1-0.6-1.5-1c-0.4-0.4-0.7-0.9-1.1-1.4c-1.8-2.7-3.2-5.5-4.2-8.5c-0.7-2.1-1.4-4.2-2.1-6.4
	c-0.7-2.2-1.2-4.5-1.4-6.8c-0.3-2.9-0.3-5.8-0.1-8.7c0.4-5.3,1.5-10.5,3.4-15.5c0.4-1.1,0.9-2.1,1.4-3.2c0.7-1.2,1.3-2.4,2-3.6
	c0.3-0.6,0.7-1.1,1.3-1.5c0.5-0.4,1.1-0.6,1.8-0.5c0.2,0,0.3,0.2,0.2,0.4c-0.1,0.1-0.2,0.3-0.3,0.4c-3,4.5-5.1,9.3-6.1,14.6
	c-0.5,2.5-0.6,5-0.7,7.5c0,0.1,0,0.2,0,0.3c0,0.1,0.1,0.2,0.2,0.2s0.2-0.1,0.3-0.1c0.1-0.2,0.1-0.4,0.2-0.6c0.3-1.7,0.6-3.3,1-5
	c1-4.5,2.7-8.8,4.9-12.9c0.9-1.7,2-3.2,3.2-4.7c0.2-0.3,0.5-0.6,0.6-0.9c0.7-1.1,1.5-1.5,2.9-1.4c0,0.3-0.1,0.4-0.2,0.5
	c-1,1.3-1.9,2.6-2.7,4c-0.9,1.6-1.8,3.2-2.7,4.8c-1.4,2.5-2.3,5.2-3,8c-1.1,4.6-1.5,9.2-1.2,13.8c0.5,9.4,3,18.2,7.7,26.4
	c0.8,1.5,1.8,2.9,2.8,4.2c0.3,0.3,0.5,0.7,0.6,1.2C491.2,352.6,490.8,352.4,490.4,352.1 M498.6,355.1
	C498.6,355.2,498.6,355.2,498.6,355.1c-0.3,0.1-0.6,0-0.8-0.1c-0.2-0.1-0.3-0.3-0.5-0.4c-3.6-3.8-6.8-7.8-9.3-12.4
	c-2.1-3.8-3.7-7.9-4.9-12.1c-0.5-1.6-0.7-3.3-0.9-5c-0.3-2.4-0.5-4.8-0.4-7.2c0.1-7.1,1.8-13.8,5-20c0.9-1.7,2-3.4,3.4-4.8
	c0.8-0.8,1.5-1.7,2.1-2.6c0.3-0.4,0.6-0.8,1-1.1c0.5-0.4,1.1-0.6,1.8-0.5c0.2,0,0.3,0.2,0.2,0.4c-0.1,0.1-0.2,0.3-0.3,0.4
	c-3.7,3.7-6.4,8-8.5,12.8c-0.5,1.2-1,2.4-1.3,3.6c-0.2,0.9-0.4,1.9-0.3,2.8c0,0.1,0,0.2,0.2,0.2c0.1,0,0.2,0,0.3-0.1
	c0.2-0.2,0.3-0.5,0.4-0.8c0.7-2.1,1.4-4.1,2.3-6.1c1.9-4,4.4-7.6,7.5-10.8c0.6-0.6,1.2-1.2,1.8-1.8c0.3-0.3,0.6-0.5,0.9-0.6
	c0.2-0.1,0.3-0.1,0.4,0.1c0.1,0.1,0,0.3-0.1,0.4c-0.1,0.2-0.3,0.3-0.4,0.5c-3.2,3.2-5.8,6.8-8.1,10.7c-1.5,2.6-2.5,5.4-3,8.4
	c-0.3,2-0.6,4-0.7,6c-0.2,1.7-0.1,3.3,0.1,5c0.3,3.7,1,7.3,1.8,10.8c1,4.6,2.9,8.9,5.4,13c1,1.6,2.1,3.1,3.2,4.6
	c0.1,0.1,0.2,0.3,0.3,0.4c0.1,0,0.2,0.1,0.2,0.2c0.1,0,0.2,0.1,0.2,0.2c-0.1,0.1-0.2,0-0.3-0.1s-0.1-0.1-0.2-0.2
	c-1.6-1.5-3-3.2-4.4-5c-2.8-3.8-5-8-6.3-12.6c-0.3-1.1-0.7-2.1-1-3.2c0-0.1-0.1-0.3-0.1-0.4c-0.1-0.1-0.1-0.2-0.2-0.2
	c-0.1,0-0.2,0.1-0.2,0.2c0,0.3,0,0.5,0.1,0.8c0.2,1.4,0.6,2.8,1,4.2c1.2,4.4,3,8.5,5.6,12.4c1.4,2.1,2.7,4.2,4.1,6.2
	c0.8,1.2,1.7,2.3,2.7,3.3c0.1,0.1,0.3,0.3,0.4,0.5C498.7,355,498.6,355.1,498.6,355.1 M497.5,349.1c0.1,0,0.2,0.1,0.1,0.2h-0.1
	C497.5,349.3,497.4,349.2,497.5,349.1 M509.8,354.2c0,0-0.1,0.1-0.2,0c-0.2-0.1-0.3-0.2-0.5-0.3c-2.1-1.3-4-2.8-5.8-4.5
	c-2.5-2.4-4.6-5.1-6.4-8.1c-2.2-3.8-4-7.7-5.3-11.9c-0.5-1.6-0.8-3.1-1.1-4.8c-0.1-0.5-0.2-1-0.4-1.5c0-0.2-0.1-0.3-0.3-0.3
	c-0.3,0.6-0.3,1.3-0.2,2c0.2,2.2,0.7,4.4,1.4,6.5c2.4,6.8,5.9,12.9,10.9,18.2c0.5,0.5,0.9,1,1.2,1.5c0,0.1,0,0.1,0,0.2
	c0,0-0.1,0.1-0.2,0c-0.3-0.1-0.6-0.3-0.8-0.6c-4.8-4.4-8.7-9.5-11.2-15.7c-1.1-2.7-1.8-5.5-2.3-8.3c-0.6-3.3-1-6.7-0.8-10.1
	c0.2-5.4,1.3-10.5,3.8-15.4c1.1-2,2.3-3.9,3.8-5.7c1.4-1.6,2.7-3.2,4.2-4.7c0.3-0.3,0.7-0.6,1.1-0.9c0.3-0.2,0.6-0.4,0.9-0.4
	c0.2,0,0.4,0,0.5,0.2c0.1,0.3-0.1,0.3-0.3,0.5c-1.6,1.4-3,2.9-4.3,4.5c-2.4,3-4.2,6.2-5.5,9.8c-0.1,0.2-0.3,0.4-0.1,0.7
	c0.3,0,0.3-0.3,0.4-0.5c0.6-1.1,1.2-2.3,1.8-3.4c2-3.7,4.7-6.9,7.9-9.6c0.4-0.4,0.9-0.7,1.5-0.9c0.1,0,0.1,0,0.2,0.1
	c0,0.1,0,0.2,0,0.2c-0.1,0.2-0.3,0.4-0.5,0.5c-1.2,1.3-2.4,2.5-3.5,3.8c-2,2.1-3.6,4.6-4.7,7.3c-0.4,1-0.8,2.1-1.3,3.1
	c-0.9,2.2-1.4,4.4-1.7,6.8c-0.2,1.8-0.4,3.6-0.4,5.4c-0.1,5.9,1.1,11.6,3.5,17c2,4.6,4.6,8.8,7.9,12.7c1.7,1.9,3.5,3.7,5.5,5.3
	c0.3,0.3,0.6,0.5,0.9,0.8c0.2,0,0.3,0.2,0.5,0.3C509.9,354.1,509.9,354.2,509.8,354.2 M497.6,304.2c0.3,0,0.4-0.4,0.5-0.6
	c2-3.2,4.4-6.1,7.2-8.6c0.6-0.5,1.3-1,2-1.5c0.2-0.1,0.5-0.2,0.8,0c0.2,0.1,0.2,0.4,0.1,0.5c-0.2,0.2-0.5,0.4-0.7,0.6
	c-3.5,2.8-6.4,6-8.4,10.1c-1.4,2.9-2.2,5.9-2.6,9c-0.3,2.2-0.3,4.5-0.1,6.7c0.3,3.5,1.1,7,2.3,10.3c1,2.7,2.1,5.3,3.5,7.8
	c1.2,2,2.5,3.9,4.1,5.5c0.2,0.2,0.4,0.5,0.6,0.7c0,0,0,0.1,0,0.2c0,0-0.1,0.1-0.2,0c-0.1-0.1-0.2-0.2-0.3-0.3
	c-2.2-2.2-4.3-4.6-6-7.2c-1.3-2.1-2.4-4.2-3.2-6.5c-0.4-1-0.8-1.9-1.2-2.9c0-0.1-0.1-0.2-0.1-0.3c0-0.1-0.1-0.1-0.2-0.1
	c-0.1,0-0.1,0-0.1,0.1c0,0.3,0,0.7,0.1,1c0.6,3.2,1.7,6.2,3.3,9c1.3,2.3,2.7,4.5,4.4,6.6c0.1,0.1,0.2,0.3,0.3,0.4
	c0.1,0.1,0.1,0.2,0,0.3c-0.1,0-0.1,0-0.2,0s-0.1-0.1-0.2-0.1c-1.9-2.1-3.9-4.2-5.4-6.7c-1.5-2.6-2.6-5.3-3.4-8.2
	c-0.6-2.2-1.1-4.5-1.4-6.8c-0.1-1.4-0.3-2.8-0.3-4.2c0.1-5.8,1.3-11.3,3.9-16.5c1.2-2.5,2.9-4.7,4.8-6.7c1.2-1.3,2.3-2.5,3.5-3.7
	c0.1-0.1,0.1-0.1,0.2-0.2c0.5-0.4,0.6-0.4,1.1,0.1c0.1,0.1,0.1,0.3,0,0.4c-0.1,0.1-0.3,0.3-0.5,0.4c-2.8,2.2-5.1,4.8-6.9,7.9
	c-0.3,0.5-0.7,1.1-1,1.7c-0.1,0.3-0.3,0.6-0.4,0.8C497.4,303.9,497.5,304.3,497.6,304.2 M508,349.3C508,349.4,508,349.4,508,349.3
	C507.8,349.4,508,349.4,508,349.3c-0.2,0-0.3,0-0.4,0c-1.1-1-2.2-2-3.2-3c-0.1-0.1-0.1-0.2-0.2-0.3l0.1-0.1c0.1,0.1,0.3,0.1,0.3,0.2
	c0.7,0.7,1.6,1.4,2.3,2.1c0.3,0.3,0.6,0.6,0.8,0.9C507.9,349,508,349.2,508,349.3C508,349.4,507.9,349.2,508,349.3 M509.3,344.2
	c0-0.1,0.1-0.1,0.1-0.1c0.1,0,0.1,0.1,0.2,0.2c-0.1,0.1-0.1,0.1-0.2,0.1C509.4,344.3,509.3,344.3,509.3,344.2 M507.7,329.3
	c0.4,0.4,0.6,0.9,0.7,1.4c0.5,2.4,1.3,4.7,2.5,6.8c0.1,0.1,0.1,0.2,0.1,0.3c0.1,0.1,0.2,0.2,0,0.3c0,0-0.1-0.1-0.2-0.2
	c-0.4-0.2-0.6-0.6-0.9-1c-2.9-4.3-5.3-8.9-6.5-14c-0.3-1.1-0.5-2.3-0.7-3.5c0-0.1,0-0.3,0-0.5c0.2,0.4,0.3,0.7,0.4,1.1
	C503.9,323.5,505.5,326.6,507.7,329.3 M501.8,312.1c-0.6,2.7-0.7,5.4-0.5,8.2c0.3,2.9,1,5.7,2.1,8.4c1,2.5,2.2,4.9,3.4,7.3
	c0.6,1.2,1.4,2.2,2.2,3.2c0.1,0.2,0.3,0.4,0.4,0.6c0,0,0,0.1,0,0.2c0,0-0.1,0-0.2,0c-0.2-0.2-0.4-0.4-0.6-0.7
	c-1.2-1.4-2.3-2.9-3.3-4.3c-0.6-0.8-1.2-1.6-1.8-2.3c-0.1-0.2-0.3-0.4-0.6-0.5c0,0.5,0.1,0.9,0.2,1.3c0.4,1.4,1,2.7,1.7,3.9
	c1.2,2.1,2.5,4,4.1,5.8c0.1,0.1,0.2,0.3,0.3,0.4c0,0,0,0.1-0.1,0.2H509c-0.1-0.1-0.2-0.1-0.3-0.2c-5-5.4-8.7-11.5-10.2-18.8
	c-0.7-3.6-0.9-7.3-0.5-10.9c0.6-5.8,2.9-10.8,6.7-15.2c1.2-1.3,2.5-2.3,3.9-3.4c0.2-0.2,0.5-0.3,0.7-0.3c0.1,0,0.3,0,0.3,0.1
	c0.1,0.1,0.1,0.3,0,0.5c-0.1,0.1-0.2,0.2-0.3,0.3c-2.9,1.9-5.2,4.5-6.9,7.5c-1.6,2.7-2.5,5.7-3,8.8c-0.3,1.9-0.4,3.8-0.5,5.7
	c0,1,0.1,2,0.3,2.9c0,0.1,0.1,0.2,0.2,0.4c0,0,0.1,0,0.2,0c0-0.5,0-0.9,0-1.4c0.2-3.6,0.7-7.2,1.8-10.6c0.9-2.8,2.3-5.3,4.3-7.5
	c1.9-2.1,4-3.8,6.3-5.2c0.7-0.4,1.4-0.7,2.2-1c0.4-0.1,0.7,0,1,0.2c0.1,0.1,0.1,0.3,0,0.3c-0.2,0.1-0.5,0.3-0.7,0.4
	c-1.8,1-3.5,2-5,3.3C505.4,302.8,502.9,307,501.8,312.1 M506.5,305.6L506.5,305.6L506.5,305.6L506.5,305.6 M506.5,305.5
	c0-0.5,0.3-0.8,0.7-1.1c0,0,0,0,0.1,0C507.1,304.9,506.7,305.2,506.5,305.5 M507.3,304.5c0-0.2,0-0.2,0.2-0.2
	C507.4,304.4,507.4,304.5,507.3,304.5 M507.7,304.1c-0.1,0.1-0.1,0.1-0.2,0.2c-0.1-0.1,0-0.2,0.1-0.3
	C507.6,304,507.7,304,507.7,304.1C507.7,304,507.7,304.1,507.7,304.1 M518.3,297.8c-0.8,0.8-1.5,1.7-2,2.7c-0.2,0.4-0.5,0.6-0.9,0.6
	c-0.8,0-1.5,0.1-2.2,0.3c-1.6,0.3-3.1,1-4.4,2c-0.2,0.1-0.3,0.3-0.6,0.3l-0.1-0.1c0-0.1,0.1-0.2,0.1-0.3c0.4-0.4,0.7-0.7,1.1-1.1
	c2.4-2.1,5-3.9,8-5c0.2-0.1,0.4-0.2,0.7-0.2c0.2-0.1,0.6,0.2,0.5,0.5C518.4,297.6,518.4,297.7,518.3,297.8 M459.3,310.7
	c0.1-0.1,0.4-1.1,0.4-1.1c0.3-1,0.7-2,1.2-2.9c4.1-7.9,9.9-14,17.5-18.5c3.2-1.9,6.5-3.6,10.1-4.8c2.5-0.9,5.1-1.4,7.7-1.8
	c1.7-0.3,3.5-0.4,5.3-0.5c4-0.1,7.9,0.3,11.7,1.3c0.8,0.2,1.6,0.5,2.3,0.8c3.2,1.3,6.2,2.8,9.1,4.8c3.5,2.4,6.1,5.6,8.2,9.3
	c0.4,0.8,0.8,1.7,1,2.5c0.1,0.2,0.1,0.4,0.1,0.5c0,0.3,0,0.5-0.1,0.7c-0.2,0.4-0.5,0.5-0.8,0.1c-0.4-0.4-0.7-0.8-1-1.3
	c-1.4-2.3-3.3-4.1-5.2-5.8c-1-0.9-2.3-1.4-3.6-1.8c-0.4-0.1-0.8-0.1-1.2-0.1c-1.2,0.1-1.8,1.3-1.3,2.4c0.1,0.3,0.3,0.5,0.5,0.8
	c0.2,0.3,0.4,0.6,0.5,0.9c0.1,0.1,0.1,0.3,0.1,0.5s-0.2,0.3-0.4,0.3c-0.2-0.1-0.3-0.2-0.5-0.3c-0.5-0.4-0.9-0.9-1.3-1.4
	c-0.9-1.1-1.9-2.2-3.1-3.1c-0.5-0.4-1-0.7-1.5-1.1c-0.5-0.3-1-0.5-1.5-0.5c-1.1-0.1-1.6,0.4-1.7,1.4c0,0.3,0,0.5-0.1,0.8
	c-0.1,0.4-0.3,0.5-0.6,0.3c-0.2-0.1-0.3-0.3-0.5-0.4c-0.7-0.7-1.4-1.3-2.1-2.1c-0.5-0.5-1-1-1.7-1.3c-2.5-1.3-5-2.2-7.7-2.7
	c-2.1-0.4-4.2-0.4-6.3-0.2c-3.8,0.4-7.3,1.7-10.7,3.2c-4.5,2.1-8.6,4.8-12.2,8.3c-2.6,2.5-5.1,5.2-7.2,8.1c-0.8,1.1-1.6,2.3-2.3,3.5
	c-0.2,0.3-0.3,0.6-0.5,0.9l-0.2,0.5c-0.1,0.4-0.3,0.7-0.6,1.2C458.9,311.5,459.1,311.2,459.3,310.7 M568.9,399.2
	c-13,19.9-28.5,38.6-48.8,51.5c-9.4,5.9-20.2,12.5-31.2,14.7c-8.4,1.7-17.1,1.8-25.7,1c-13.8-1.3-27.7-3.9-41.3-6.5
	c-7-1.3-14.1-2.7-21.1-3.8c-6.7-1.1-13.9-2.7-20.7-2.4c0,0-8-0.2-19.5,1.6l-0.5,0.1c-0.2,0.1-1.5,0.4-1.5,0.3c0,0-0.1-0.3,0.4-0.6
	l0.1-0.1c0.3-0.2,0.7-0.4,1-0.5c0,0,1.6-0.7,4.4-1.4h0.1c0,0,1.9-0.5,6.1-1.2l0.4-0.1c1.4-0.2,2.7-0.3,4.1-0.5
	c1.6-0.1,2.5-0.3,4.6-0.5c1.3-0.1,2.6-0.2,3.9-0.3c17.7-0.5,35.4,2,52.8,5.2c17.1,3.1,33.6,7.3,51.1,3.6c4.2-0.9,8.4-2.2,12.4-3.8
	c1.5-0.6,2.9-1.3,4.3-2.1c1-0.5,1.9-1.1,2.9-1.7c0.3-0.2,0.7-0.4,1-0.7c0-0.2-0.2-0.1-0.3-0.1s-0.2,0-0.3,0
	c-1.2,0.3-2.5,0.5-3.7,0.6c-13,1.4-26,1.7-38.9-0.5c-13.1-2.2-25.9-6.3-38.7-9.7c-20.9-5.6-43-10.6-64.8-9.7c-9,0.4-18.1,1-27,2.2
	c-1.5,0.2-3.1,0.5-4.6,0.7c-1.3,0.2-2.7,0.4-4,0.6c-0.2,0-0.3,0-0.5-0.1l-0.1-0.1c0.1-0.1,0.1-0.2,0.2-0.2c1.5-0.9,3-1.8,4.6-2.3
	c1.9-0.6,3.8-1.4,5.8-1.9c2.1-0.6,4.2-1.2,6.3-1.8c15.3-4.2,31.7-4.3,47.4-2.2c3.5,0.5,6.9,0.9,10.4,1.4c3.8,0.6,7.6,1.3,11.4,2.3
	c2.3,0.6,4.6,1.1,6.8,1.7l0.6,0.1c0.5,0.1,0.9,0.2,1.3,0.3c3.9,1,7.8,2.2,11.6,3.3l10.7,2.6c0.3,0.1,0.6,0.2,0.9,0.2
	c0.7,0.2,1.5,0.4,2.2,0.6l1.8,0.5c13.6,3.4,28.2,6.5,42.1,6.5c12.7,0,25.6-2.3,37-8.1c2.8-1.4,5.5-3.1,8-5.1
	c0.3-0.2,0.6-0.4,0.8-0.8c-0.5,0-0.9,0.1-1.3,0.3c-1.5,0.5-2.9,0.8-4.4,1.1c-1.3,0.3-2.7,0.5-4,0.8c-16.2,3-33.5,0.5-49.6-2.7
	l-0.7-0.1c-1.5-0.3-2.9-0.6-4.4-0.9c-2.6-0.5-5.1-1.1-7.7-1.7l-0.7-0.2c-1.2-0.3-2.4-0.6-3.6-0.9l-0.6-0.2
	c-10.1-2.7-20.2-6.1-29.9-9.7c-30.4-11.3-64-13.5-95.8-7.9c-1.7,0.3-3.4,0.7-5.1,1c-2.9,0.6-5.8,1.2-8.8,1.8c-1.7,0.4-3.4,0.7-5,1.2
	c-1.7,0.4-3.3,1-5,1.5c-0.8,0.2-1.6,0.5-2.5,0.6c-0.4,0.1-0.7,0.2-1.1,0.3c-0.3,0.1-0.7,0.2-1,0.1c-0.1-0.3,0.1-0.3,0.2-0.4
	c0.4-0.3,0.9-0.5,1.3-0.7c1.1-0.5,2.1-1,3.1-1.6c2.5-1.4,5.1-2.4,7.7-3.5c2.7-1.1,5.5-1.8,8.3-2.8c0.5-0.2,0.9-0.3,1.3-0.5
	c2.5-1.1,5.2-1.8,7.9-2.4c32.8-7.4,68.4-3.6,99.8,7.9c14.5,5.3,29.5,10.4,44.7,13.7c21.5,4.7,47,8.5,66.1-5.7c1.4-1,2.7-2.1,3.9-3.2
	c0.2-0.2,0.4-0.4,0.6-0.6c0.1-0.1,0.3-0.1,0.2-0.2s-0.2-0.1-0.3,0.1c-1.3,0.4-2.7,0.7-4,1.2c-1.2,0.4-2.4,0.6-3.6,0.9
	c-0.9,0.2-1.8,0.3-2.7,0.6c-1.8,0.5-3.6,0.8-5.5,0.9c-1,0.1-2,0.1-2.9,0.3c-0.6,0.1-1.1,0.1-1.7,0.1c-2.2,0.1-4.5,0.2-6.7,0.3
	c-1.4,0.1-2.8,0.1-4.3-0.1c-0.6-0.1-1.2,0-1.8,0c-1.9-0.1-3.8-0.1-5.8-0.4c-1.7-0.2-3.5-0.5-5.2-0.8c-1.6-0.2-3.3-0.5-4.9-0.8
	c-0.3-0.1-0.6-0.1-0.9-0.1c-0.8,0-1.6-0.1-2.4-0.3c-2.8-0.5-5.6-1.2-8.4-1.9c-0.8-0.2-1.6-0.4-2.4-0.6c-2.9-0.7-5.8-1.8-8.6-2.8
	c-1.8-0.7-3.6-1.3-5.4-2c-2.8-1.1-5.7-2.2-8.5-3.4c-1.2-0.6-2.5-1.1-3.7-1.6c-0.6-0.3-1.2-0.5-1.9-0.8c-0.6-0.3-1.1-0.5-1.7-0.7
	c-1.5-0.6-3-1.2-4.4-1.8c-1.2-0.5-2.5-1-3.7-1.5c-3.1-1.3-6.3-2.6-9.3-4c-4.5-2.1-9.2-3.7-14.1-5c-1.8-0.5-3.5-1-5.3-1.4
	c-2.1-0.5-4.2-0.9-6.2-1.4c-0.4-0.1-0.8-0.2-1.2-0.3c-10.7-3.2-22.6-3.5-33.8-3.9c-13.5-0.5-26.8,1-40.2,1c-1.5,0.1-2.9,0.3-4.4,0.4
	c-3,0.3-6.1,0.7-9.1,1.2s-6,1-8.9,1.5c-1.9,0.3-3.8,0.7-5.7,1.1c-0.9,0.2-1.9,0.3-2.8,0.4c-3,0.6-5.9,1.3-8.8,2.2
	c-1.7,0.5-3.5,1-5.3,1.4c-0.4,0.1-0.9,0.2-1.3,0.3c-0.2,0.1-0.5,0.1-0.7,0.1c-0.1,0-0.2,0-0.2-0.1c-0.1-0.1,0-0.2,0.1-0.3
	c0.2-0.1,0.3-0.3,0.5-0.3c1.8-0.7,3.5-1.8,5.3-2.5c1.7-0.7,3.4-1.4,5.2-2c3.9-1.4,7.8-2.6,11.9-3.6c3-0.7,5.9-1.5,8.9-2.2
	c3.6-0.9,7.2-1.7,10.8-2.3c2.4-0.4,4.8-0.8,7.2-1.2c10.4-1.7,21-2.3,31.5-2.2c6.2,0.1,12.5,0.1,18.7,0.7c1.9,0.2,3.7,0.5,5.5,0.8
	c5.6,1,11,2.5,16.5,3.9c2.4,0.6,4.7,1.4,7.1,2.3c2,0.7,4.1,1.4,6.2,2c0.1,0,0.3,0,0.4,0c0,0,0.1,0,0.1-0.1s0-0.1,0-0.2
	c-0.1-0.1-0.3-0.2-0.4-0.3c-1.9-1-3.7-2.2-5.6-3.3c-2.1-1.2-4.1-2.5-6.2-3.7c-0.4-0.2-0.7-0.5-1.1-0.7c-1.8-1.2-3.5-2.3-5.3-3.5
	c-1.2-0.8-2.4-1.5-3.6-2.1c-0.6-0.3-1.3-0.7-1.9-1c-2.9-1.8-5.8-3.4-8.9-4.9c-1.5-0.8-3.1-1.6-4.6-2.3c-1.5-0.7-3-1.4-4.6-2
	c-2.4-0.9-4.7-1.9-6.9-3.2c-0.7-0.4-1.5-0.8-2.3-1.1c-1.7-0.7-3.4-1.6-5.1-2.2c-1.3-0.5-2.6-1.1-3.9-1.5c-3.8-1.4-7.6-2.5-11.5-3.5
	c-1.4-0.3-2.7-0.8-4.1-1.2c-6-1.8-12-2.8-18-3.1h-0.2c-16.2-0.9-32.3,2.9-48.1,7.9c-2.5,0.8-4.9,1.9-7.2,3c-0.6,0.3-1.2,0.7-1.7,1.1
	c-0.3,0.2-0.6,0.4-1,0.5c-0.1,0-0.2,0-0.3-0.1s-0.1-0.2,0-0.3c0.1-0.2,0.3-0.4,0.4-0.6c0.5-0.5,1-0.9,1.6-1.3c1.1-0.7,2.2-1.3,3.3-2
	c1.9-1.3,3.9-2.4,6-3.5c0.1-0.1,0.3-0.2,0.4-0.3c3.7-2.3,7.6-3.8,11.7-5.1c1.6-0.5,3.2-1.1,4.8-1.6c2-0.6,4-1,6-1.4
	c0.8-0.2,1.5-0.3,2.3-0.5c1.7-0.4,3.5-0.7,5.2-0.9c1.3-0.2,2.5-0.4,3.8-0.4c0.3,0,0.7,0,1,0c1.3,0,2.5-0.1,3.8-0.3
	c0.5-0.1,1-0.1,1.5-0.1c2.8-0.1,5.6,0,8.3,0.2c0.5,0.1,0.9,0.1,1.4,0.2h0.1c1.3,0.1,2.5,0.3,3.7,0.5c1.3,0.2,2.6,0.3,3.9,0.5
	c3.5,0.6,7,1.1,10.4,1.9c2.5,0.6,5,1.4,7.4,2.2c1.2,0.4,2.4,0.8,3.7,1.1c1.2,0.3,2.3,0.8,3.4,1.3c2,0.8,4,1.5,6.1,2.3
	c0.6,0.2,1.3,0.5,1.9,0.8c1.9,1,3.9,1.8,5.9,2.6c0.1,0,0.1,0.1,0.2,0.1c2.1,1.1,4.4,1.9,6.6,2.9c1.7,0.7,3.2,1.6,4.8,2.5
	c1.2,0.7,2.4,1.4,3.6,2.1c3.2,1.6,6.2,3.5,9.2,5.4c1.4,0.9,2.7,2,4,2.9c1.5,1,2.9,2,4.4,2.9c1.7,1.1,3.5,2.1,5.2,3.2
	c2.3,1.5,4.6,2.8,6.9,4.2c1.2,0.7,2.3,1.5,3.5,2.1c2.2,1.3,4.4,2.6,6.6,3.8c1.2,0.6,2.4,1.3,3.5,2c2.1,1.3,4.2,2.4,6.4,3.6
	c1.8,0.9,3.6,1.8,5.4,2.7c2.8,1.4,5.8,2.6,8.7,3.9c1.4,0.6,2.8,1.1,4.1,1.7c3.3,1.5,6.6,2.7,10,4c1.9,0.7,3.7,1.4,5.6,2.1
	c4.3,1.6,8.6,3,13.1,4c1.9,0.4,3.8,0.9,5.8,1.3c2.2,0.5,4.4,0.9,6.7,1.3c2.3,0.3,4.5,0.7,6.7,1c1.4,0.2,2.8,0.2,4.2,0.2
	c3.6,0.1,7.3-0.2,10.9-0.4c1.2-0.1,2.3-0.3,3.5-0.5c1.8-0.2,3.5-0.6,5.3-0.7c0.8-0.1,1.6-0.2,2.4-0.4c1.1-0.3,2.3-0.6,3.4-0.9
	c0.3-0.1,0.5-0.1,0.8-0.3c1.4-0.7,2.9-1.3,4.4-1.9c0.3-0.1,0.5-0.3,0.8-0.4c0.2-0.1,0.3-0.2,0.5-0.3c1.5-0.6,2.8-1.7,4.3-2.5
	c0.9-0.5,1.7-1.3,2.5-2c1.5-1.2,3-2.5,4.3-4c0.6-0.7,1.3-1.2,2-1.9c0.2-0.2,0.4-0.3,0.5-0.7c-0.5,0.1-1,0.3-1.4,0.5
	c-0.9,0.4-1.9,0.9-2.7,1.3c-1.8,0.9-3.7,1.6-5.5,2.3c-2.9,1.1-5.8,1.8-8.8,2.6c-1.1,0.3-2.2,0.6-3.4,0.8c-1.6,0.3-3.3,0.5-4.9,0.7
	c-23.4,3-46.5-2.1-68.1-11c-3.3-1.3-6.5-2.8-9.7-4.3c-2.1-1-4.3-2.1-6.4-3c-2-0.9-3.9-1.9-5.8-3c-0.6-0.4-1.2-0.8-1.9-1.2
	c-1-0.6-2-1.1-3-1.7c-2.6-1.5-5.2-3.1-7.6-5c-2.1-1.5-4.2-3-6.2-4.6c-0.6-0.5-1.2-0.9-1.9-1.4c-0.3-0.2-0.5-0.4-0.7-0.7
	c0.2-0.1,0.4,0,0.5,0.1c0.9,0.5,1.8,1,2.7,1.5c1.6,0.9,3.1,1.9,4.7,2.7c1.4,0.8,2.8,1.5,4.3,2.2c1.8,0.9,3.5,2,5.3,3
	c0.3,0.1,0.5,0.3,0.8,0.5c2,1,4,2,6,2.9c3.6,1.6,7.1,3.4,10.7,4.9c1.3,0.5,2.6,0.9,3.9,1.5c3.1,1.4,6.4,2.5,9.6,3.6
	c2.7,0.9,5.5,1.9,8.3,2.8c15.4,5.2,31.3,6.3,47.4,5.2c1.8-0.1,3.6-0.2,5.4-0.4c1.4-0.1,2.8-0.2,4.2-0.8c0.3-0.1,0.7-0.2,1-0.2
	c1.5-0.4,3.1-0.7,4.6-1.2c3.6-1,7-2.2,10.4-3.6c0.1-0.1,0.3-0.1,0.4-0.1c1.1-0.3,2-0.8,2.9-1.4c1.3-0.9,2.8-1.5,4.2-2.3
	c0.3-0.2,0.6-0.3,0.9-0.5c0.5-0.1,0.9-0.4,1.3-0.7c1.3-0.7,2.6-1.6,3.8-2.5c1.5-1,2.9-2.2,4.2-3.5c1-0.9,1.8-2,2.7-3
	c1-1.1,1.9-2.3,2.9-3.4c0.5-0.6,0.9-1.2,1.2-1.9c0.3-0.2,0.5-0.5,0.6-0.8c0.3-0.7,0.8-1.3,1.3-1.8c0.4-0.4,0.6-0.9,1-1.3
	c0.2-0.3,0.4-0.6,0.7-0.9c0.2,0.1,0,0.3,0,0.4c-0.3,1-0.6,2.1-1,3.1c-0.2,0.4-0.2,0.9-0.4,1.3c-0.5,1.3-1,2.6-1.6,3.8
	c-0.9,1.8-1.8,3.6-2.8,5.4c-0.8,1.5-1.5,3-2.5,4.4c-0.1,0.1-0.2,0.2-0.2,0.3C572.6,393.6,570.8,396.4,568.9,399.2 M280.1,377.2
	c1.2-0.6,2.5-1.1,3.7-1.7c4.5-1.9,9.1-3.6,13.7-5.1c3.6-1.2,7.4-2.1,11.1-2.7c1.5-0.3,3.1-0.5,4.6-0.7c0.9-0.1,1.9-0.3,2.8-0.4
	c1.3-0.2,2.6-0.3,3.8-0.5c3.4-0.5,6.8-0.9,10.2-1c4.8-0.2,9.7-0.1,14.6-0.2c2.2,0,4.4,0.1,6.6,0.2c2.1,0.1,4.3,0.2,6.4,0.3
	c0.4,0,0.9,0,1.3,0.1c2.8,0.2,5.6,0.6,8.5,1.1c0.2,0,0.4,0,0.6,0c0.1,0,0.1-0.1,0.1-0.1v-0.1c-0.1-0.1-0.2-0.1-0.4-0.2
	c-3.6-1.4-7.2-2.6-10.9-3.6c-3.5-0.9-7-1.5-10.6-1.9c-1-0.1-2-0.1-2.9-0.2c-2-0.2-4.1-0.4-6.1-0.3c-1.2,0-2.4,0-3.7,0
	c-1.5,0-2.9,0-4.4,0.1c-3,0.2-6,0.4-9,0.7c-1.5,0.1-2.9,0.4-4.3,0.7c-3.5,0.8-7,1.7-10.5,2.8c-1.7,0.5-3.5,1-5.2,1.7
	c-2,0.9-4.1,1.7-6.1,2.5c-3.4,1.3-6.7,3-9.9,4.8c-0.9,0.5-1.8,1.1-2.7,1.7s-1.6,1.4-2.5,1.9c0,0-0.1,0-0.1,0.1s-0.1,0.2-0.1,0.3
	c0,0.1,0.1,0.1,0.2,0.2C279.4,377.5,279.7,377.4,280.1,377.2 M584,358.9c-0.7,1-1.3,2-2.1,2.9c-0.7,0.9-1.3,1.9-2.1,2.9
	s-1.5,2-2.4,2.9c-1.1,1.1-2.2,2.3-3.3,3.4c-0.9,0.8-1.8,1.6-2.7,2.3c-1.3,1-2.6,1.9-3.9,2.9c-1,0.8-2.1,1.5-3.2,2.1
	c-0.5,0.3-1,0.5-1.6,0.7c-3.2,1.5-6.5,3-9.9,4.2c-3.2,1.1-6.4,2.2-9.7,2.9c-3,0.7-5.9,1.5-8.9,2c-2.3,0.4-4.7,0.8-7,1
	c-1.4,0.1-2.8,0.3-4.2,0.4c-1.9,0.2-3.7,0.3-5.6,0.3c-2.4,0-4.8,0-7.2-0.1c-3.3-0.2-6.6-0.4-9.9-0.8c-3.4-0.4-6.7-0.9-10.1-1.5
	c-4.7-0.9-9.3-1.9-14-3.2c-6.2-1.7-12.4-3.6-18.4-6.2c-2.3-1-4.5-2-6.8-3c-0.5-0.2-1.1-0.4-1.6-0.6c-0.1,0-0.3-0.1-0.4,0
	c0.2,0.3,0.5,0.4,0.7,0.5c1,0.6,2.1,1.2,3,1.9c0.6,0.4,1.2,0.7,1.9,1c0.9,0.4,1.9,0.9,2.7,1.4c1.6,1,3.2,1.8,4.9,2.7
	c1.3,0.7,2.6,1.2,3.9,1.7c3,1.3,6.1,2.5,9.3,3.1c0.3,0.1,0.6,0.2,0.9,0.3c1.7,0.5,3.4,1,5.2,1.5c2.7,0.7,5.4,1.5,8.2,2.1
	c2,0.4,4.1,0.7,6.1,1.1c0.8,0.1,1.7,0.3,2.5,0.4c1.3,0.1,2.6,0.3,3.8,0.6c0.9,0.2,1.9,0.3,2.8,0.4c1.9,0.2,3.9,0.3,5.8,0.5
	c3.7,0.3,7.3,0.1,11-0.2c1.7-0.1,3.3-0.4,5-0.5c2.3-0.1,4.6-0.5,6.8-0.9c3-0.6,6-1.2,8.9-2c3-0.8,6.1-1.5,9.1-2.6
	c2.4-0.9,4.8-1.7,7.1-2.9c0.4-0.2,0.7-0.3,1.1-0.5c2.5-1.1,5-2.3,7.2-3.9c0.9-0.6,1.9-1.3,2.9-1.8c0.7-0.3,1.3-0.8,1.8-1.3
	c0.5-0.4,1.1-0.9,1.6-1.2c0.5-0.3,0.9-0.7,1.4-1.1c1-0.9,2-2,2.8-3.1c0.5-0.7,1.1-1.5,1.7-2.2c1.3-1.7,2.5-3.5,3.5-5.4
	c0.1-0.1,0.1-0.3,0.1-0.4c0.1-0.6,0.4-1.2,0.6-1.7c0.5-1.1,0.8-2.2,1.1-3.4c0-0.2,0.1-0.4,0-0.6C584.3,358.3,584.1,358.6,584,358.9
	 M335.2,299.5c0-0.9,0-1.8,0.1-2.6c0.1-0.9,0.1-1.7,0.1-2.5c0-1.8,0.1-3.6,0.3-5.4c0.1-1.6,0.3-3.2,0.5-4.9c0.2-2.4,0.4-4.7,0.7-7.1
	c0.4-4,1.1-7.9,1.7-11.9c0.3-1.8,0.6-3.5,0.9-5.3c0.6-4,1.4-7.9,2.4-11.7c2.9-11,6.7-21.7,11.9-31.9c0.1-0.1,0.1-0.2,0.1-0.3
	s0-0.2-0.1-0.3c-0.1-0.1-0.3-0.1-0.4,0c-0.2,0.2-0.3,0.4-0.5,0.5c-2.9,3.8-5.3,8-7.6,12.2c-2.4,4.4-4.3,9.1-5.9,13.9
	c-1.8,5.3-3.2,10.8-4.1,16.3c-0.4,2.2-0.8,4.4-1.2,6.6c-0.3,1.5-0.5,3.1-0.6,4.6c-0.2,2.1-0.3,4.2-0.5,6.3c-0.1,2-0.3,3.9-0.4,5.9
	c-0.2,2.7-0.3,5.4-0.5,8c-0.2,1.6-0.3,3.2-0.5,4.9c-0.1,1.8-0.2,3.6-0.1,5.4c0.1,4,0.1,8,0.3,11.9c0.1,1.5,0.3,3,0.4,4.5
	c0.2,2.5,0.6,5,1,7.6c0.1,0.9,0.4,1.9,0.5,2.8c0.2,2.5,0.7,5,1.2,7.5c0.1,0.8,0.3,1.5,0.9,2.2c0-0.3,0-0.5-0.1-0.8
	c-0.1-1-0.1-2-0.2-2.9v-0.1v-0.5c0-0.3,0-0.6,0-0.9c0-0.6-0.1-1.1-0.1-1.7c-0.1-0.6-0.2-1.1-0.2-1.7c-0.1-1.7-0.2-3.4-0.2-5.2
	c0-2.4,0-4.8-0.1-7.2c0-3.6,0-7.3,0.2-10.9C335.1,302.9,335.2,301.2,335.2,299.5 M449.3,289.9l0.2-0.9c0.1-0.2,0.1-0.4,0.1-0.7
	c0.2-0.9,0.5-1.9,0.7-2.9c0.1-0.3,0.2-0.6,0.2-0.9c0-0.1,0-0.2-0.2-0.2c-0.1,0-0.1,0-0.2,0.1c-0.1,0.2-0.3,0.4-0.4,0.6
	c-0.8,1.6-1.4,3.3-1.9,5c-1,3.8-1.3,7.8-1.4,11.6c0,1.7-0.1,3.3,0.1,4.9c0.2,2.5,0.6,4.9,1.2,7.3c0.4,1.8,0.9,3.6,1.7,5.3
	c0.5,1,1,2,1.5,3c0.1,0.1,0.2,0.3,0.3,0.4c0.1,0.1,0.2,0.1,0.3,0s0.1-0.2,0.1-0.3c-0.1-0.4-0.2-0.7-0.4-1.1c-0.8-2.2-1.4-4.5-2-6.8
	c-0.8-3.1-1.3-6.2-1.3-9.4c0-3.2,0-6.4,0.4-9.6C448.6,293.7,448.9,291.8,449.3,289.9 M375.5,467.5c-0.7-0.1-1.4-0.1-2.1-0.2
	c-0.2,0-0.5,0-0.7,0c-0.1,0-0.1,0-0.1,0.1s0,0.1,0.1,0.2c0.4,0.4,1,0.6,1,0.6c0.9,0.4,1.8,0.7,2.6,1.1c0,0,0.8,0.3,1.8,0.7l0,0
	c1.5,0.5,3,1,4.4,1.5l0.8,0.2c0.3,0.1,0.6,0.2,0.9,0.3c2.1,0.6,4.1,1.1,6.2,1.6l0.8,0.2c2.1,0.5,4.1,1,6.2,1.4l3.1,0.6l5.2,0.9
	c4.2,0.6,9.3,1.2,15.8,1.8c13.1,1.1,25.6-0.7,25.6-0.7c15-2.3,16.3-3,16.3-3c7.5-1.3-2.3-0.8-2.3-0.8c-9.6,0.8-23,0.2-23,0.2
	c-14.3-0.5-30.9-2.8-30.9-2.8c-1.3-0.1-2.5-0.3-3.8-0.4l-2.7-0.3c-0.5-0.1-1-0.1-1.5-0.2l-0.8-0.1c-1.3-0.2-2.5-0.3-3.8-0.5l0,0l0,0
	c-2.8-0.3-5.5-0.7-8.3-1l-7.9-0.9c-0.7-0.1-1.3-0.1-2-0.2h-0.1C376.3,467.6,375.9,467.5,375.5,467.5 M541.1,252.2
	c-0.9-0.5-1.9-0.9-2.9-1.2c-0.4-0.1-0.7-0.1-1.1-0.1c-0.7-0.1-1.1-0.5-1.3-1.1c-0.1-0.4-0.2-0.7-0.4-1.1c-0.6-1.6-1.4-3.1-2.6-4.3
	c-0.5-0.5-1-0.9-1.6-1.3c-0.1,0-0.1,0-0.2-0.1l-0.1,0.1c0,0.3,0.1,0.5,0.2,0.7c0.9,2.2,1.5,4.4,1.9,6.7c0.1,0.7,0.3,1.3,0.4,2
	c0.1,0.5,0.3,0.7,0.9,0.7c0.4,0,0.8,0,1.2,0c2.1-0.1,4.1,0,6.1,0.8c0.1,0.1,0.3,0.1,0.4,0.1c0.2,0,0.4-0.2,0.3-0.4
	C542.1,253.1,541.7,252.5,541.1,252.2 M571.7,251.9c-0.6-0.9-1.4-1.7-2.2-2.4c-4.5-3.4-9.3-6.2-14.5-8.2c-0.4-0.1-0.8-0.3-1.1-0.5
	c-0.7-0.3-1.2-0.9-1.5-1.6c-0.1-0.3-0.2-0.7-0.3-1c-0.3-1.4-0.5-2.9-0.8-4.3c-1.4-6.5-3.6-12.8-6.5-18.8c-0.2-0.4-0.4-0.7-0.6-1.1
	c-0.2-0.2-0.3-0.4-0.5-0.4c-0.1,0-0.2,0-0.2,0.1s0,0.3,0,0.4c0.7,2.9,1.1,5.9,1.5,8.8c0.3,2,0.6,3.9,1,5.9c0.3,1.7,0.7,3.4,0.9,5.1
	c0.3,2.4,0.4,4.9,0.6,7.3c0.1,0.9,0.1,1.8,0.2,2.7c0.1,0.8,0.3,1.1,1.1,1.3c0.7,0.2,1.4,0.3,2.1,0.5c1.3,0.3,2.5,0.5,3.8,0.7
	c4.1,0.9,8,2.3,11.9,3.6c1.8,0.6,3.5,1.5,5.2,2.2c0,0,0.1,0.1,0.2-0.1C572,252.3,571.7,251.9,571.7,251.9 M554.3,359.6
	c0.1,0,0.2,0.1,0.2,0.1c0.1,0.1,0,0.2-0.1,0.3c-0.3,0.2-0.5,0.3-0.8,0.5c-2.6,1.4-5.3,2.5-8,3.4c-4,1.3-8.1,2.3-12.3,3
	c-4.6,0.7-9.2,0.9-13.9,0.9h-0.6l0,0c-1.9,0-3.8,0-5.7-0.1c-4.9-0.1-9.6-0.9-14.3-2.5c-1.9-0.7-3.9-1.3-5.8-2.1
	c-0.3-0.1-0.6-0.2-0.9-0.3c-2.3-0.7-4.4-1.7-6.5-2.8c-1.7-0.9-3.4-1.7-5.1-2.6c-1.9-1-3.6-2.1-5.2-3.5c-0.7-0.5-1.3-1.1-2-1.6
	c-0.2-0.1-0.4-0.3-0.3-0.6c0-0.1,0.2-0.3,0.3-0.2c1.1,0.8,2.3,1.4,3.5,2.1c1.9,1.2,3.9,2.3,6,3.2c1.7,0.8,3.4,1.6,5,2.4
	c2.6,1.2,5.4,2.1,8.1,3c3,1,6,1.9,9.1,2.5c1.7,0.3,3.3,0.6,5,0.7c2.1,0.1,4.2,0.4,6.4,0.5c2.5,0.2,5,0.1,7.5,0
	c1.7-0.1,3.3-0.2,5-0.3c3.2-0.2,6.3-0.6,9.4-1.3c1.1-0.2,2.3-0.4,3.4-0.6c1.9-0.3,3.7-0.8,5.5-1.4c2.1-0.7,4.3-1.3,6.3-2.3
	C553.8,359.7,554.1,359.6,554.3,359.6 M585,522.3c1.9,0,3.8,0.5,5.6,1.5c1.8,1,3.3,2.4,4.3,4.2c1,1.8,1.5,3.7,1.5,5.7
	s-0.5,3.9-1.5,5.7c-1,1.8-2.4,3.2-4.2,4.2c-1.8,1-3.7,1.5-5.7,1.5s-3.9-0.5-5.7-1.5c-1.8-1-3.2-2.4-4.2-4.2c-1-1.8-1.5-3.7-1.5-5.7
	s0.5-3.9,1.5-5.7c1-1.8,2.4-3.2,4.3-4.2C581.2,522.8,583,522.3,585,522.3z M585,524.1c-1.6,0-3.2,0.4-4.7,1.2
	c-1.5,0.8-2.7,2-3.6,3.5c-0.9,1.5-1.3,3.1-1.3,4.8c0,1.6,0.4,3.2,1.3,4.7c0.8,1.5,2,2.7,3.5,3.5c1.5,0.8,3.1,1.3,4.7,1.3
	c1.6,0,3.2-0.4,4.7-1.3c1.5-0.8,2.7-2,3.5-3.5c0.8-1.5,1.2-3.1,1.2-4.7c0-1.7-0.4-3.2-1.3-4.8c-0.8-1.5-2-2.7-3.6-3.5
	C587.8,524.5,586.6,524.1,585,524.1z M580,540v-12.3h4.2c1.4,0,2.5,0.1,3.1,0.3c0.7,0.2,1.2,0.6,1.5,1.2c0.4,0.6,0.6,1.2,0.6,1.8
	c0,0.9-0.3,1.7-1,2.3c-0.6,0.7-1.5,1-2.5,1.1c0.4,0.2,0.8,0.4,1,0.7c0.5,0.5,1.1,1.3,1.8,2.4l1.5,2.4h-2.4l-1.1-1.9
	c-0.9-1.5-1.5-2.5-2.1-2.9c-0.4-0.3-0.9-0.4-1.6-0.4h-1.2v5.2L580,540L580,540z M581.9,533.1h2.4c1.2,0,1.9-0.2,2.4-0.5
	c0.5-0.3,0.6-0.8,0.6-1.4c0-0.4-0.1-0.7-0.3-1c-0.2-0.3-0.5-0.5-0.8-0.6c-0.4-0.1-1-0.2-2-0.2H582L581.9,533.1L581.9,533.1z
	 M490.3,517.1c2.3-0.7,3.5-2.6,2.8-4.6c-0.7-2.4-3.3-3.6-7.6-3.9c-5.5-0.4-12.8-2.3-14.8-9.1c-1.7-5.6,0.9-12.6,9.6-15.3
	c5.9-1.8,11.3-0.2,13.4,0.5c0.8,0.2,1,1.2,0.9,1.7l-1.5,5.2c-0.2,0.7-1.1,1.6-1.7,1.3c-0.6-0.1-5.7-2-9.1-0.9c-2,0.6-3.1,2.5-2.7,4
	c0.6,2.1,2.8,3.2,7.9,3.6c5,0.4,13.1,1.7,15.4,9.4c1.8,5.8-1.4,13.3-9.7,15.8c-7.4,2.3-12.4,0.5-14.1-0.4c-0.7-0.4-1-0.6-0.8-1.5
	l1.2-5.5c0.2-0.9,1.3-1.1,1.8-0.9C481.6,516.5,486.6,518.2,490.3,517.1 M415,492.4c11.4,0.5,20.4,10.2,19.9,21.5
	c-0.5,11.5-10.2,20.4-21.7,19.9l-14.4-0.6c-0.6,0-1.1-0.6-1-1.2l1.7-39.2c0-0.6,0.5-1.1,1.1-1.1L415,492.4 M413,525.1
	c6.7,0.3,11.8-4.8,12.1-11.5c0.3-6.7-4.3-12.2-11-12.4l-5.7-0.3l-1,24L413,525.1 M376.9,485.5c6.8,2.1,10.6,9.4,8.5,16.1
	c-1.6,5.2-6.4,8.3-11.9,8.7l3.2,16.8c0.2,0.9-0.5,1.6-1.5,1.3l-7.5-2.4c-0.5-0.1-0.7-0.5-0.7-0.8l-2.8-17.3l-3.9-1.2l-4.5,14.4
	c-0.2,0.6-0.9,0.9-1.4,0.7l-6.7-2.1c-0.6-0.2-0.9-0.9-0.7-1.4l11.8-37.4c0.2-0.6,0.8-0.9,1.4-0.7L376.9,485.5 M376.6,499.1
	c0.7-2.4-0.6-4.9-2.9-5.6l-8.4-2.6l-2.8,8.8l8.4,2.6C373.2,503,375.8,501.4,376.6,499.1 M336.9,467.8c0.4,0.2,0.6,0.7,0.5,1.1
	l-4,43.8c-0.1,0.8-0.9,1.3-1.7,0.8l-5.7-3.3c-0.9-0.5-1.2-1.1-1.1-2.3l0.5-5.1l-13.9-8.1l-4.2,3c-0.6,0.5-1.5,0.7-2.6,0.1l-5.6-3.3
	c-0.8-0.4-0.8-1.3-0.1-1.8l36.1-25.1c0.3-0.2,0.8-0.3,1.2-0.1L336.9,467.8 M327.5,483.2L327.5,483.2l-8.8,6.2l6.6,3.8l0.1,0.1
	l1.1,0.6l0.1-0.8L327.5,483.2z M648.4,322.6c0,0.7-0.5,1.1-1.1,1.2l-39.2,1c-0.6,0-1.1-0.5-1.2-1.1l-0.4-17.7
	c-0.2-7.1,5.4-13.1,12.5-13.2c5.4-0.1,9.9,3.4,12.1,8.5l14.8-8.5c0.8-0.4,1.7,0,1.7,1l0.2,7.9c0,0.5-0.3,0.8-0.5,1l-15.5,8.3
	l0.1,4.1l15.1-0.4c0.6,0,1.1,0.5,1.2,1.1L648.4,322.6z M624.5,315l-0.2-8.8c-0.1-2.4-2.4-4.4-4.9-4.4c-2.5,0.1-4.4,2.2-4.4,4.6
	l0.2,8.8L624.5,315z M584.8,402l5.8,2.8c0.5,0.2,1.3,0,1.5-0.5l5.5-11.7l0.1,0.1l20.8,27.3l1,0.5c0.5,0.3,1.2,0,1.5-0.5l11-23.3
	c0.3-0.6,0-1.3-0.5-1.5l-5.8-2.8c-0.5-0.3-1.2-0.1-1.5,0.5l-5.5,11.7l-0.1-0.1L598.3,379c0,0-1.2-1.6-1.8-1.8
	c-0.6-0.2-1.2,0-1.5,0.5l-10.8,22.8C584,401,584.3,401.7,584.8,402 M600.7,364.5l38.3,8.6c0.6,0.1,1.2-0.2,1.3-0.9l5.4-23.9
	c0.1-0.6-0.3-1.2-0.9-1.3l-6.3-1.4c-0.6-0.1-1.2,0.2-1.3,0.9l-3.6,16l-7.8-1.8l3-13.2c0.1-0.6-0.2-1.2-0.9-1.4l-6.3-1.4
	c-0.6-0.1-1.2,0.3-1.3,0.9l-3,13.2l-7.2-1.6l3.6-16c0.1-0.6-0.3-1.2-0.9-1.3l-6.3-1.4c-0.6-0.1-1.2,0.2-1.3,0.9l-5.4,23.9
	C599.7,363.8,600.1,364.4,600.7,364.5 M568.8,482.9l16.5-15c0.5-0.4,0.5-1.2,0.1-1.6l-4.3-4.8c-0.4-0.5-1.1-0.5-1.6-0.1l-10.5,9.5
	l-21.2-23.5c-0.4-0.4-1.2-0.5-1.6-0.1L541,452c-0.5,0.4-0.5,1.1-0.1,1.6l26.3,29.1C567.6,483.2,568.3,483.3,568.8,482.9
	 M525.7,509.9c0.3,0.5,1,0.7,1.5,0.4l21.3-12.2c0.6-0.3,0.7-1,0.4-1.5l-3.2-5.6c-0.3-0.5-1-0.7-1.5-0.4l-14.2,8.2l-4-6.9l11.7-6.7
	c0.5-0.3,0.7-1,0.4-1.5l-3.2-5.6c-0.3-0.5-1-0.7-1.5-0.4l-11.7,6.7L518,478l14.2-8.2c0.6-0.3,0.7-1,0.4-1.5l-3.2-5.6
	c-0.3-0.5-1-0.7-1.5-0.4l-21.3,12.2c-0.6,0.3-0.7,1-0.4,1.5L525.7,509.9z M601.1,449.4l4.3-5.7c0.4-0.5,0.3-1.2-0.2-1.6L579.9,423
	l5.1-6.8c0.4-0.5,0.3-1.2-0.2-1.6l-5.2-3.9c-0.5-0.4-1.2-0.3-1.6,0.2l-15.9,21c-0.4,0.5-0.3,1.2,0.2,1.6l5.2,3.9
	c0.5,0.4,1.2,0.3,1.6-0.2l5.1-6.8l25.2,19.1C600,449.9,600.7,449.8,601.1,449.4 M281.1,479.9l5,4.9c0.4,0.4,1.2,0.4,1.6,0l27.4-28.1
	c0.4-0.4,0.4-1.2,0-1.6l-5-4.9c-0.5-0.5-1.2-0.4-1.6,0L298,460.9l-12.1-11.8l10.4-10.7c0.4-0.4,0.5-1.1,0-1.6l-5-4.9
	c-0.2-0.2-0.6-0.3-0.9-0.3c-0.3,0-0.5,0.1-0.7,0.3L262.3,460c-0.4,0.4-0.4,1.2,0,1.6l5,4.9c0.5,0.5,1.2,0.4,1.6,0l10.9-11.2
	l12.1,11.8L281,478.3C280.6,478.8,280.6,479.5,281.1,479.9 M649.5,236.4c8.2,24,12.6,49.6,12.6,76.4
	c0,130.1-105.3,235.6-235.2,235.6c-91.4,0-170.6-52.2-209.6-128.5l-15,6.4c41.5,81.9,126.5,138.2,224.5,138.2
	c138.9,0,251.6-112.8,251.6-252c0-28.9-5-56.9-13.9-82.7L649.5,236.4z M604.9,208.3L645,191c1.3-0.6,1.6-1.8,0.7-2.9l-7.2-8.9
	c-0.5-0.6-1.5-0.8-2.2-0.5L605,193.1l-0.3-0.3l17.4-33.6c0.3-0.5,0.3-1.3-0.2-2l-1.1-1.4c-0.5-0.6-1.3-0.8-1.9-0.6l-36.5,9.9
	l-0.2-0.3l20.6-27.5c0.4-0.6,0.4-1.6-0.1-2.2l-7.2-8.9c-0.9-1.1-2.1-1.1-2.9,0.1l-39.7,56c-0.5,0.6-0.4,1.5,0,2.1l1.1,1.4
	c0.4,0.5,1.3,0.8,1.9,0.6l42.5-11.4l0.2,0.2l-19.9,39c-0.4,0.8-0.4,1.5,0,2.1l1.1,1.4c0.4,0.5,1.3,0.8,1.9,0.6
	c0.2,0,0.9-0.4,0.9-0.4L604.9,208.3 M441,133.2l36.5,5.9c1.1,0.2,2-0.6,2.1-1.5l1.7-10.6c0.2-1-0.5-2-1.5-2.1l-23.1-3.8l8.4-51.8
	c0.2-1-0.6-2-1.5-2.1L452,65.3c-1.1-0.2-2,0.6-2.1,1.5l-10.5,64.3C439.3,132,439.9,133,441,133.2 M408.5,135.1
	c8.7-1.2,16.6-5.4,22.4-12.7c0.6-0.8,0.5-2.1-0.3-2.7l-8.7-7c-0.7-0.6-1.9-0.4-2.5,0.3c-3.1,3.5-7.8,5.8-12.4,6.5
	c-11,1.5-20.4-6.3-21.9-17.1c-1.5-10.9,5.3-21.2,16.4-22.7c4.8-0.7,9.8,0.4,13.8,3.2c0.8,0.6,1.9,0.4,2.4-0.3l6.5-8.9
	c0.7-0.9,0.5-2.1-0.5-2.7c-7.5-5.1-15.1-7.2-24.8-5.8c-19.5,2.7-33,20.5-30.4,40C371.2,124.4,389,137.8,408.5,135.1 M552,98.5
	c0.6,0.3,0.9,1.1,0.9,1.8l-6.1,72.7c-0.1,1.4-1.5,2.1-2.7,1.4l-9.4-5.3c-1.7-1-2.1-2.5-1.9-3.8l0.8-8.6l-23.2-13.3l-7,5.1
	c-1,0.8-2.5,1.3-4.2,0.3l-9.4-5.4c-1.3-0.7-1.3-2.2-0.2-3.1l59.6-42.2c0.5-0.4,1.4-0.4,2-0.1L552,98.5 M536.7,124.3L536.7,124.3
	l-14.5,10.4l13,7.4L536.7,124.3z M179.3,278.8c-0.2,1,0.4,2,1.4,2.3l63.1,16c0.9,0.2,2-0.4,2.3-1.4l2.9-11.3c0.3-1.1-0.4-2-1.4-2.3
	l-25.1-6.3l6.9-27.3l25.1,6.4c0.9,0.2,2-0.3,2.3-1.4l2.9-11.3c0.2-0.9-0.4-2-1.4-2.3l-63.1-16c-0.9-0.2-2,0.3-2.3,1.4l-0.8,3.2
	l-2.1,8.2c-0.3,1,0.4,2,1.3,2.3l24,6.1l-6.9,27.3l-24-6.1c-1-0.3-2,0.3-2.3,1.3L179.3,278.8 M209.5,196.3l56.4,32.5
	c0.9,0.5,2.1,0.2,2.5-0.7l5.9-10.2c0.5-0.9,0.2-2.1-0.7-2.6l-56.4-32.5c-0.9-0.5-2.1-0.2-2.6,0.7l-5.9,10.2
	C208.3,194.6,208.6,195.9,209.5,196.3 M312.9,170.2c0.5,0.8,1.7,1.2,2.6,0.6l34.5-21.7c0.9-0.6,1.1-1.7,0.6-2.6l-5.7-9.1
	c-0.5-0.8-1.7-1.2-2.6-0.6l-23.1,14.5l-7.1-11.2l19-11.9c0.8-0.5,1.2-1.7,0.6-2.6l-5.7-9.1c-0.5-0.8-1.7-1.1-2.6-0.6l-19,11.9
	l-6.4-10.2l23-14.5c0.9-0.6,1.1-1.7,0.6-2.6l-5.7-9.1c-0.5-0.8-1.7-1.2-2.6-0.6l-34.4,21.7c-0.9,0.6-1.1,1.7-0.6,2.6L312.9,170.2z
	 M235.9,172.5c0.7,0.7,1.9,0.7,2.6-0.1l9.4-10.5l39,35.2c0.7,0.7,2,0.6,2.7-0.1l7.9-8.8c0.7-0.7,0.6-2-0.1-2.6l-39-35.2l9.4-10.4
	c0.7-0.8,0.6-2-0.1-2.7l-8-7.2c-0.7-0.7-1.9-0.7-2.6,0.1l-29.2,32.4c-0.7,0.8-0.6,2,0.1,2.6L235.9,172.5z M251.2,358.4
	c0.7-0.3,1.1-1,1.1-1.8l-0.2-1.7c-0.1-0.7-0.7-1.3-1.3-1.5l-42.1-12.7v-0.3l37.2-22.6l0.2-0.1c0.8-0.4,1.2-1,1.1-1.8l-0.2-1.7
	c-0.1-0.7-0.7-1.3-1.3-1.5c-0.2-0.1-1-0.2-1-0.2l-67.3-10c-1.4-0.2-2.3,0.7-2.1,2.1l1.5,11.4c0.1,0.8,0.9,1.5,1.6,1.6l34.1,4.2v0.4
	l-32.4,19.5c-0.6,0.3-1,0.9-0.9,1.8l0.2,1.8c0.1,0.8,0.7,1.3,1.3,1.5l36.3,10.8v0.4l-32,12.6c-0.7,0.3-1.2,1.1-1.1,1.9l1.5,11.4
	c0.2,1.4,1.2,2,2.6,1.5L251.2,358.4z"/>
</svg>
